<?xml version="1.0" encoding="UTF-8" standalone="no"?>
<!DOCTYPE svg PUBLIC "-//W3C//DTD SVG 1.1//EN"
 "http://www.w3.org/Graphics/SVG/1.1/DTD/svg11.dtd">
<!-- Generated by graphviz version 2.44.0 (20200408.0750)
 -->
<!-- Title: dependency&#45;cruiser output Pages: 1 -->
<svg width="644pt" height="709pt"
 viewBox="0.00 0.00 644.02 708.84" xmlns="http://www.w3.org/2000/svg" xmlns:xlink="http://www.w3.org/1999/xlink">
<g id="graph0" class="graph" transform="scale(1 1) rotate(0) translate(4 704.84)">
<title>dependency&#45;cruiser output</title>
<polygon fill="white" stroke="transparent" points="-4,4 -4,-704.84 640.02,-704.84 640.02,4 -4,4"/>
<g id="clust1" class="cluster">
<title>cluster_client</title>
<path fill="#ffffff" stroke="black" stroke-width="2" d="M20,-29.84C20,-29.84 616.02,-29.84 616.02,-29.84 622.02,-29.84 628.02,-35.84 628.02,-41.84 628.02,-41.84 628.02,-680.84 628.02,-680.84 628.02,-686.84 622.02,-692.84 616.02,-692.84 616.02,-692.84 20,-692.84 20,-692.84 14,-692.84 8,-686.84 8,-680.84 8,-680.84 8,-41.84 8,-41.84 8,-35.84 14,-29.84 20,-29.84"/>
<text text-anchor="middle" x="318.01" y="-680.74" font-family="Helvetica,sans-Serif" font-weight="bold" font-size="9.00">client</text>
</g>
<g id="clust2" class="cluster">
<title>cluster_client/src</title>
<path fill="#ffffff" stroke="black" stroke-width="2" d="M28,-37.84C28,-37.84 608.02,-37.84 608.02,-37.84 614.02,-37.84 620.02,-43.84 620.02,-49.84 620.02,-49.84 620.02,-653.84 620.02,-653.84 620.02,-659.84 614.02,-665.84 608.02,-665.84 608.02,-665.84 28,-665.84 28,-665.84 22,-665.84 16,-659.84 16,-653.84 16,-653.84 16,-49.84 16,-49.84 16,-43.84 22,-37.84 28,-37.84"/>
<text text-anchor="middle" x="318.01" y="-653.74" font-family="Helvetica,sans-Serif" font-weight="bold" font-size="9.00">src</text>
</g>
<g id="clust3" class="cluster">
<title>cluster_client/src/components</title>
<path fill="#ffffff" stroke="black" stroke-width="2" d="M142.51,-178.84C142.51,-178.84 379.26,-178.84 379.26,-178.84 385.26,-178.84 391.26,-184.84 391.26,-190.84 391.26,-190.84 391.26,-534.84 391.26,-534.84 391.26,-540.84 385.26,-546.84 379.26,-546.84 379.26,-546.84 142.51,-546.84 142.51,-546.84 136.51,-546.84 130.51,-540.84 130.51,-534.84 130.51,-534.84 130.51,-190.84 130.51,-190.84 130.51,-184.84 136.51,-178.84 142.51,-178.84"/>
<text text-anchor="middle" x="260.88" y="-534.74" font-family="Helvetica,sans-Serif" font-weight="bold" font-size="9.00">components</text>
</g>
<g id="clust4" class="cluster">
<title>cluster_client/src/components/layout</title>
<path fill="#ffffff" stroke="black" stroke-width="2" d="M169.51,-186.84C169.51,-186.84 355.51,-186.84 355.51,-186.84 361.51,-186.84 367.51,-192.84 367.51,-198.84 367.51,-198.84 367.51,-258.84 367.51,-258.84 367.51,-264.84 361.51,-270.84 355.51,-270.84 355.51,-270.84 169.51,-270.84 169.51,-270.84 163.51,-270.84 157.51,-264.84 157.51,-258.84 157.51,-258.84 157.51,-198.84 157.51,-198.84 157.51,-192.84 163.51,-186.84 169.51,-186.84"/>
<text text-anchor="middle" x="262.51" y="-258.74" font-family="Helvetica,sans-Serif" font-weight="bold" font-size="9.00">layout</text>
</g>
<g id="clust5" class="cluster">
<title>cluster_client/src/components/pages</title>
<path fill="#ffffff" stroke="black" stroke-width="2" d="M150.51,-278.84C150.51,-278.84 234.51,-278.84 234.51,-278.84 240.51,-278.84 246.51,-284.84 246.51,-290.84 246.51,-290.84 246.51,-507.84 246.51,-507.84 246.51,-513.84 240.51,-519.84 234.51,-519.84 234.51,-519.84 150.51,-519.84 150.51,-519.84 144.51,-519.84 138.51,-513.84 138.51,-507.84 138.51,-507.84 138.51,-290.84 138.51,-290.84 138.51,-284.84 144.51,-278.84 150.51,-278.84"/>
<text text-anchor="middle" x="192.51" y="-507.74" font-family="Helvetica,sans-Serif" font-weight="bold" font-size="9.00">pages</text>
</g>
<g id="clust6" class="cluster">
<title>cluster_client/src/components/pages/home</title>
<path fill="#ffffff" stroke="black" stroke-width="2" d="M169.51,-378.84C169.51,-378.84 215.51,-378.84 215.51,-378.84 221.51,-378.84 227.51,-384.84 227.51,-390.84 227.51,-390.84 227.51,-419.84 227.51,-419.84 227.51,-425.84 221.51,-431.84 215.51,-431.84 215.51,-431.84 169.51,-431.84 169.51,-431.84 163.51,-431.84 157.51,-425.84 157.51,-419.84 157.51,-419.84 157.51,-390.84 157.51,-390.84 157.51,-384.84 163.51,-378.84 169.51,-378.84"/>
<text text-anchor="middle" x="192.51" y="-419.74" font-family="Helvetica,sans-Serif" font-weight="bold" font-size="9.00">home</text>
</g>
<g id="clust7" class="cluster">
<title>cluster_client/src/components/pages/questions</title>
<path fill="#ffffff" stroke="black" stroke-width="2" d="M169.51,-439.84C169.51,-439.84 215.51,-439.84 215.51,-439.84 221.51,-439.84 227.51,-445.84 227.51,-451.84 227.51,-451.84 227.51,-480.84 227.51,-480.84 227.51,-486.84 221.51,-492.84 215.51,-492.84 215.51,-492.84 169.51,-492.84 169.51,-492.84 163.51,-492.84 157.51,-486.84 157.51,-480.84 157.51,-480.84 157.51,-451.84 157.51,-451.84 157.51,-445.84 163.51,-439.84 169.51,-439.84"/>
<text text-anchor="middle" x="192.51" y="-480.74" font-family="Helvetica,sans-Serif" font-weight="bold" font-size="9.00">questions</text>
</g>
<g id="clust8" class="cluster">
<title>cluster_client/src/components/pages/quiz</title>
<path fill="#ffffff" stroke="black" stroke-width="2" d="M158.51,-286.84C158.51,-286.84 226.51,-286.84 226.51,-286.84 232.51,-286.84 238.51,-292.84 238.51,-298.84 238.51,-298.84 238.51,-358.84 238.51,-358.84 238.51,-364.84 232.51,-370.84 226.51,-370.84 226.51,-370.84 158.51,-370.84 158.51,-370.84 152.51,-370.84 146.51,-364.84 146.51,-358.84 146.51,-358.84 146.51,-298.84 146.51,-298.84 146.51,-292.84 152.51,-286.84 158.51,-286.84"/>
<text text-anchor="middle" x="192.51" y="-358.74" font-family="Helvetica,sans-Serif" font-weight="bold" font-size="9.00">quiz</text>
</g>
<g id="clust9" class="cluster">
<title>cluster_client/src/components/shared</title>
<path fill="#ffffff" stroke="black" stroke-width="2" d="M293.76,-378.84C293.76,-378.84 371.26,-378.84 371.26,-378.84 377.26,-378.84 383.26,-384.84 383.26,-390.84 383.26,-390.84 383.26,-481.84 383.26,-481.84 383.26,-487.84 377.26,-493.84 371.26,-493.84 371.26,-493.84 293.76,-493.84 293.76,-493.84 287.76,-493.84 281.76,-487.84 281.76,-481.84 281.76,-481.84 281.76,-390.84 281.76,-390.84 281.76,-384.84 287.76,-378.84 293.76,-378.84"/>
<text text-anchor="middle" x="332.51" y="-481.74" font-family="Helvetica,sans-Serif" font-weight="bold" font-size="9.00">shared</text>
</g>
<g id="clust10" class="cluster">
<title>cluster_client/src/handlers</title>
<path fill="#ffffff" stroke="black" stroke-width="2" d="M291.5,-554.84C291.5,-554.84 373.52,-554.84 373.52,-554.84 379.52,-554.84 385.52,-560.84 385.52,-566.84 385.52,-566.84 385.52,-626.84 385.52,-626.84 385.52,-632.84 379.52,-638.84 373.52,-638.84 373.52,-638.84 291.5,-638.84 291.5,-638.84 285.5,-638.84 279.5,-632.84 279.5,-626.84 279.5,-626.84 279.5,-566.84 279.5,-566.84 279.5,-560.84 285.5,-554.84 291.5,-554.84"/>
<text text-anchor="middle" x="332.51" y="-626.74" font-family="Helvetica,sans-Serif" font-weight="bold" font-size="9.00">handlers</text>
</g>
<g id="clust11" class="cluster">
<title>cluster_client/src/init</title>
<path fill="#ffffff" stroke="black" stroke-width="2" d="M451.77,-523.84C451.77,-523.84 600.02,-523.84 600.02,-523.84 606.02,-523.84 612.02,-529.84 612.02,-535.84 612.02,-535.84 612.02,-595.84 612.02,-595.84 612.02,-601.84 606.02,-607.84 600.02,-607.84 600.02,-607.84 451.77,-607.84 451.77,-607.84 445.77,-607.84 439.77,-601.84 439.77,-595.84 439.77,-595.84 439.77,-535.84 439.77,-535.84 439.77,-529.84 445.77,-523.84 451.77,-523.84"/>
<text text-anchor="middle" x="525.89" y="-595.74" font-family="Helvetica,sans-Serif" font-weight="bold" font-size="9.00">init</text>
</g>
<g id="clust12" class="cluster">
<title>cluster_client/src/logic</title>
<path fill="#ffffff" stroke="black" stroke-width="2" d="M266.51,-55.84C266.51,-55.84 530.02,-55.84 530.02,-55.84 536.02,-55.84 542.02,-61.84 542.02,-67.84 542.02,-67.84 542.02,-158.84 542.02,-158.84 542.02,-164.84 536.02,-170.84 530.02,-170.84 530.02,-170.84 266.51,-170.84 266.51,-170.84 260.51,-170.84 254.51,-164.84 254.51,-158.84 254.51,-158.84 254.51,-67.84 254.51,-67.84 254.51,-61.84 260.51,-55.84 266.51,-55.84"/>
<text text-anchor="middle" x="398.26" y="-158.74" font-family="Helvetica,sans-Serif" font-weight="bold" font-size="9.00">logic</text>
</g>
<!-- client/src/components/layout/footer.js -->
<g id="node1" class="node">
<title>client/src/components/layout/footer.js</title>
<g id="a_node1"><a xlink:href="../client/src/components/layout/footer.js" xlink:title="footer.js">
<path fill="#ffffcc" stroke="black" d="M353.31,-213.14C353.31,-213.14 311.71,-213.14 311.71,-213.14 308.61,-213.14 305.51,-210.04 305.51,-206.94 305.51,-206.94 305.51,-200.74 305.51,-200.74 305.51,-197.64 308.61,-194.54 311.71,-194.54 311.71,-194.54 353.31,-194.54 353.31,-194.54 356.41,-194.54 359.51,-197.64 359.51,-200.74 359.51,-200.74 359.51,-206.94 359.51,-206.94 359.51,-210.04 356.41,-213.14 353.31,-213.14"/>
<text text-anchor="middle" x="332.51" y="-201.14" font-family="Helvetica,sans-Serif" font-size="9.00">footer.js</text>
</a>
</g>
</g>
<!-- client/src/components/layout/navbar.js -->
<g id="node2" class="node">
<title>client/src/components/layout/navbar.js</title>
<g id="a_node2"><a xlink:href="../client/src/components/layout/navbar.js" xlink:title="navbar.js">
<path fill="#ffffcc" stroke="black" d="M353.31,-244.14C353.31,-244.14 311.71,-244.14 311.71,-244.14 308.61,-244.14 305.51,-241.04 305.51,-237.94 305.51,-237.94 305.51,-231.74 305.51,-231.74 305.51,-228.64 308.61,-225.54 311.71,-225.54 311.71,-225.54 353.31,-225.54 353.31,-225.54 356.41,-225.54 359.51,-228.64 359.51,-231.74 359.51,-231.74 359.51,-237.94 359.51,-237.94 359.51,-241.04 356.41,-244.14 353.31,-244.14"/>
<text text-anchor="middle" x="332.51" y="-232.14" font-family="Helvetica,sans-Serif" font-size="9.00">navbar.js</text>
</a>
</g>
</g>
<!-- client/src/components/layout/page.js -->
<g id="node3" class="node">
<title>client/src/components/layout/page.js</title>
<g id="a_node3"><a xlink:href="../client/src/components/layout/page.js" xlink:title="page.js">
<path fill="#ffffcc" stroke="black" d="M213.31,-244.14C213.31,-244.14 171.71,-244.14 171.71,-244.14 168.61,-244.14 165.51,-241.04 165.51,-237.94 165.51,-237.94 165.51,-231.74 165.51,-231.74 165.51,-228.64 168.61,-225.54 171.71,-225.54 171.71,-225.54 213.31,-225.54 213.31,-225.54 216.41,-225.54 219.51,-228.64 219.51,-231.74 219.51,-231.74 219.51,-237.94 219.51,-237.94 219.51,-241.04 216.41,-244.14 213.31,-244.14"/>
<text text-anchor="middle" x="192.51" y="-232.14" font-family="Helvetica,sans-Serif" font-size="9.00">page.js</text>
</a>
</g>
</g>
<!-- client/src/components/layout/page.js&#45;&gt;client/src/components/layout/footer.js -->
<g id="edge1" class="edge">
<title>client/src/components/layout/page.js&#45;&gt;client/src/components/layout/footer.js</title>
<path fill="none" stroke="#000000" stroke-width="2" stroke-opacity="0.200000" d="M219.58,-228.21C230.37,-225.52 243.02,-222.45 254.51,-219.84 269.17,-216.52 285.47,-213.09 299.29,-210.27"/>
<polygon fill="#000000" fill-opacity="0.200000" stroke="#000000" stroke-width="2" stroke-opacity="0.200000" points="299.98,-212.27 305.44,-209.02 299.14,-208.15 299.98,-212.27"/>
</g>
<!-- client/src/components/layout/page.js&#45;&gt;client/src/components/layout/navbar.js -->
<g id="edge2" class="edge">
<title>client/src/components/layout/page.js&#45;&gt;client/src/components/layout/navbar.js</title>
<path fill="none" stroke="#000000" stroke-width="2" stroke-opacity="0.200000" d="M219.79,-234.84C242.33,-234.84 274.9,-234.84 299.06,-234.84"/>
<polygon fill="#000000" fill-opacity="0.200000" stroke="#000000" stroke-width="2" stroke-opacity="0.200000" points="299.33,-236.94 305.33,-234.84 299.33,-232.74 299.33,-236.94"/>
</g>
<!-- client/src/components/layout/table.js -->
<g id="node4" class="node">
<title>client/src/components/layout/table.js</title>
<g id="a_node4"><a xlink:href="../client/src/components/layout/table.js" xlink:title="table.js">
<path fill="#ffffcc" stroke="black" d="M213.31,-213.14C213.31,-213.14 171.71,-213.14 171.71,-213.14 168.61,-213.14 165.51,-210.04 165.51,-206.94 165.51,-206.94 165.51,-200.74 165.51,-200.74 165.51,-197.64 168.61,-194.54 171.71,-194.54 171.71,-194.54 213.31,-194.54 213.31,-194.54 216.41,-194.54 219.51,-197.64 219.51,-200.74 219.51,-200.74 219.51,-206.94 219.51,-206.94 219.51,-210.04 216.41,-213.14 213.31,-213.14"/>
<text text-anchor="middle" x="192.51" y="-201.14" font-family="Helvetica,sans-Serif" font-size="9.00">table.js</text>
</a>
</g>
</g>
<!-- client/src/logic/camelCaseToTitleCase.js -->
<g id="node5" class="node">
<title>client/src/logic/camelCaseToTitleCase.js</title>
<g id="a_node5"><a xlink:href="../client/src/logic/camelCaseToTitleCase.js" xlink:title="camelCaseToTitleCase.js">
<path fill="#ffffcc" stroke="black" d="M527.57,-98.14C527.57,-98.14 421.97,-98.14 421.97,-98.14 418.87,-98.14 415.77,-95.04 415.77,-91.94 415.77,-91.94 415.77,-85.74 415.77,-85.74 415.77,-82.64 418.87,-79.54 421.97,-79.54 421.97,-79.54 527.57,-79.54 527.57,-79.54 530.67,-79.54 533.77,-82.64 533.77,-85.74 533.77,-85.74 533.77,-91.94 533.77,-91.94 533.77,-95.04 530.67,-98.14 527.57,-98.14"/>
<text text-anchor="middle" x="474.77" y="-86.14" font-family="Helvetica,sans-Serif" font-size="9.00">camelCaseToTitleCase.js</text>
</a>
</g>
</g>
<!-- client/src/components/layout/table.js&#45;&gt;client/src/logic/camelCaseToTitleCase.js -->
<g id="edge3" class="edge">
<title>client/src/components/layout/table.js&#45;&gt;client/src/logic/camelCaseToTitleCase.js</title>
<path fill="none" stroke="#000000" stroke-width="2" stroke-opacity="0.200000" d="M219.68,-197.51C228.24,-195.42 237.78,-193.06 246.51,-190.84 250.85,-189.74 399.12,-152.76 402.52,-149.84 413.54,-140.38 405.66,-130.52 415.52,-119.84 422.86,-111.89 432.71,-105.59 442.22,-100.8"/>
<polygon fill="#000000" fill-opacity="0.200000" stroke="#000000" stroke-width="2" stroke-opacity="0.200000" points="443.26,-102.63 447.76,-98.15 441.45,-98.84 443.26,-102.63"/>
</g>
<!-- client/src/components/pages/home/index.js -->
<g id="node6" class="node">
<title>client/src/components/pages/home/index.js</title>
<g id="a_node6"><a xlink:href="../client/src/components/pages/home/index.js" xlink:title="index.js">
<path fill="#ffffcc" stroke="black" d="M213.31,-405.14C213.31,-405.14 171.71,-405.14 171.71,-405.14 168.61,-405.14 165.51,-402.04 165.51,-398.94 165.51,-398.94 165.51,-392.74 165.51,-392.74 165.51,-389.64 168.61,-386.54 171.71,-386.54 171.71,-386.54 213.31,-386.54 213.31,-386.54 216.41,-386.54 219.51,-389.64 219.51,-392.74 219.51,-392.74 219.51,-398.94 219.51,-398.94 219.51,-402.04 216.41,-405.14 213.31,-405.14"/>
<text text-anchor="middle" x="192.51" y="-393.14" font-family="Helvetica,sans-Serif" font-size="9.00">index.js</text>
</a>
</g>
</g>
<!-- client/src/handlers/start&#45;quiz.js -->
<g id="node7" class="node">
<title>client/src/handlers/start&#45;quiz.js</title>
<g id="a_node7"><a xlink:href="../client/src/handlers/start-quiz.js" xlink:title="start&#45;quiz.js">
<path fill="#ffffcc" stroke="black" d="M357.31,-612.14C357.31,-612.14 307.71,-612.14 307.71,-612.14 304.61,-612.14 301.51,-609.04 301.51,-605.94 301.51,-605.94 301.51,-599.74 301.51,-599.74 301.51,-596.64 304.61,-593.54 307.71,-593.54 307.71,-593.54 357.31,-593.54 357.31,-593.54 360.41,-593.54 363.51,-596.64 363.51,-599.74 363.51,-599.74 363.51,-605.94 363.51,-605.94 363.51,-609.04 360.41,-612.14 357.31,-612.14"/>
<text text-anchor="middle" x="332.51" y="-600.14" font-family="Helvetica,sans-Serif" font-size="9.00">start&#45;quiz.js</text>
</a>
</g>
</g>
<!-- client/src/components/pages/home/index.js&#45;&gt;client/src/handlers/start&#45;quiz.js -->
<g id="edge4" class="edge">
<title>client/src/components/pages/home/index.js&#45;&gt;client/src/handlers/start&#45;quiz.js</title>
<path fill="none" stroke="#000000" stroke-width="2" stroke-opacity="0.200000" d="M212.68,-405.19C224.66,-412.13 239.16,-422.83 246.51,-436.84 254.26,-451.63 243.63,-574.18 254.51,-586.84 262.72,-596.4 275.01,-601.15 287.38,-603.31"/>
<polygon fill="#000000" fill-opacity="0.200000" stroke="#000000" stroke-width="2" stroke-opacity="0.200000" points="294.98,-606.23 301.17,-604.77 295.42,-602.05 294.98,-606.23"/>
<polyline fill="none" stroke="#000000" stroke-width="2" stroke-opacity="0.200000" points="295.2,-604.14 292.22,-603.82 "/>
<ellipse fill="none" stroke="#000000" stroke-width="2" stroke-opacity="0.200000" cx="289.83" cy="-603.57" rx="2.4" ry="2.4"/>
</g>
<!-- client/src/components/shared/button.js -->
<g id="node8" class="node">
<title>client/src/components/shared/button.js</title>
<g id="a_node8"><a xlink:href="../client/src/components/shared/button.js" xlink:title="button.js">
<path fill="#ffffcc" stroke="black" d="M353.31,-467.14C353.31,-467.14 311.71,-467.14 311.71,-467.14 308.61,-467.14 305.51,-464.04 305.51,-460.94 305.51,-460.94 305.51,-454.74 305.51,-454.74 305.51,-451.64 308.61,-448.54 311.71,-448.54 311.71,-448.54 353.31,-448.54 353.31,-448.54 356.41,-448.54 359.51,-451.64 359.51,-454.74 359.51,-454.74 359.51,-460.94 359.51,-460.94 359.51,-464.04 356.41,-467.14 353.31,-467.14"/>
<text text-anchor="middle" x="332.51" y="-455.14" font-family="Helvetica,sans-Serif" font-size="9.00">button.js</text>
</a>
</g>
</g>
<!-- client/src/components/pages/home/index.js&#45;&gt;client/src/components/shared/button.js -->
<g id="edge5" class="edge">
<title>client/src/components/pages/home/index.js&#45;&gt;client/src/components/shared/button.js</title>
<path fill="none" stroke="#000000" stroke-width="2" stroke-opacity="0.200000" d="M205.28,-405.16C221.43,-417.88 249.1,-439.39 254.51,-441.84 268.42,-448.15 284.88,-452 299,-454.33"/>
<polygon fill="#000000" fill-opacity="0.200000" stroke="#000000" stroke-width="2" stroke-opacity="0.200000" points="299.06,-456.47 305.31,-455.3 299.7,-452.32 299.06,-456.47"/>
</g>
<!-- client/src/components/shared/title&#45;description.js -->
<g id="node9" class="node">
<title>client/src/components/shared/title&#45;description.js</title>
<g id="a_node9"><a xlink:href="../client/src/components/shared/title-description.js" xlink:title="title&#45;description.js">
<path fill="#ffffcc" stroke="black" d="M368.81,-405.14C368.81,-405.14 296.21,-405.14 296.21,-405.14 293.11,-405.14 290.01,-402.04 290.01,-398.94 290.01,-398.94 290.01,-392.74 290.01,-392.74 290.01,-389.64 293.11,-386.54 296.21,-386.54 296.21,-386.54 368.81,-386.54 368.81,-386.54 371.91,-386.54 375.01,-389.64 375.01,-392.74 375.01,-392.74 375.01,-398.94 375.01,-398.94 375.01,-402.04 371.91,-405.14 368.81,-405.14"/>
<text text-anchor="middle" x="332.51" y="-393.14" font-family="Helvetica,sans-Serif" font-size="9.00">title&#45;description.js</text>
</a>
</g>
</g>
<!-- client/src/components/pages/home/index.js&#45;&gt;client/src/components/shared/title&#45;description.js -->
<g id="edge6" class="edge">
<title>client/src/components/pages/home/index.js&#45;&gt;client/src/components/shared/title&#45;description.js</title>
<path fill="none" stroke="#000000" stroke-width="2" stroke-opacity="0.200000" d="M219.79,-395.84C237.8,-395.84 262.21,-395.84 283.62,-395.84"/>
<polygon fill="#000000" fill-opacity="0.200000" stroke="#000000" stroke-width="2" stroke-opacity="0.200000" points="283.86,-397.94 289.86,-395.84 283.86,-393.74 283.86,-397.94"/>
</g>
<!-- client/src/init/state.js -->
<g id="node15" class="node">
<title>client/src/init/state.js</title>
<g id="a_node15"><a xlink:href="../client/src/init/state.js" xlink:title="state.js">
<path fill="#ffffcc" stroke="black" d="M495.57,-581.14C495.57,-581.14 453.97,-581.14 453.97,-581.14 450.87,-581.14 447.77,-578.04 447.77,-574.94 447.77,-574.94 447.77,-568.74 447.77,-568.74 447.77,-565.64 450.87,-562.54 453.97,-562.54 453.97,-562.54 495.57,-562.54 495.57,-562.54 498.67,-562.54 501.77,-565.64 501.77,-568.74 501.77,-568.74 501.77,-574.94 501.77,-574.94 501.77,-578.04 498.67,-581.14 495.57,-581.14"/>
<text text-anchor="middle" x="474.77" y="-569.14" font-family="Helvetica,sans-Serif" font-size="9.00">state.js</text>
</a>
</g>
</g>
<!-- client/src/handlers/start&#45;quiz.js&#45;&gt;client/src/init/state.js -->
<g id="edge15" class="edge">
<title>client/src/handlers/start&#45;quiz.js&#45;&gt;client/src/init/state.js</title>
<path fill="none" stroke="#000000" stroke-width="2" stroke-opacity="0.200000" d="M363.6,-596.19C386.51,-591.13 417.98,-584.17 441.43,-578.99"/>
<polygon fill="#000000" fill-opacity="0.200000" stroke="#000000" stroke-width="2" stroke-opacity="0.200000" points="442.1,-580.99 447.51,-577.65 441.19,-576.89 442.1,-580.99"/>
</g>
<!-- client/src/init/router.js -->
<g id="node17" class="node">
<title>client/src/init/router.js</title>
<g id="a_node17"><a xlink:href="../client/src/init/router.js" xlink:title="router.js">
<path fill="#ffffcc" stroke="black" d="M597.82,-550.14C597.82,-550.14 556.22,-550.14 556.22,-550.14 553.12,-550.14 550.02,-547.04 550.02,-543.94 550.02,-543.94 550.02,-537.74 550.02,-537.74 550.02,-534.64 553.12,-531.54 556.22,-531.54 556.22,-531.54 597.82,-531.54 597.82,-531.54 600.92,-531.54 604.02,-534.64 604.02,-537.74 604.02,-537.74 604.02,-543.94 604.02,-543.94 604.02,-547.04 600.92,-550.14 597.82,-550.14"/>
<text text-anchor="middle" x="577.02" y="-538.14" font-family="Helvetica,sans-Serif" font-size="9.00">router.js</text>
</a>
</g>
</g>
<!-- client/src/handlers/start&#45;quiz.js&#45;&gt;client/src/init/router.js -->
<g id="edge14" class="edge">
<title>client/src/handlers/start&#45;quiz.js&#45;&gt;client/src/init/router.js</title>
<path fill="none" stroke="#000000" stroke-width="2" stroke-opacity="0.200000" d="M363.68,-607.96C406.32,-613.62 485.32,-618.22 542.02,-586.84 551.94,-581.35 559.78,-571.6 565.42,-562.49"/>
<polygon fill="#000000" fill-opacity="0.200000" stroke="#000000" stroke-width="2" stroke-opacity="0.200000" points="571.08,-556.44 572.09,-550.16 567.38,-554.44 571.08,-556.44"/>
<polyline fill="none" stroke="#000000" stroke-width="2" stroke-opacity="0.200000" points="569.23,-555.44 567.8,-558.08 "/>
<ellipse fill="none" stroke="#000000" stroke-width="2" stroke-opacity="0.200000" cx="566.66" cy="-560.19" rx="2.4" ry="2.4"/>
</g>
<!-- client/src/components/pages/questions/index.js -->
<g id="node10" class="node">
<title>client/src/components/pages/questions/index.js</title>
<g id="a_node10"><a xlink:href="../client/src/components/pages/questions/index.js" xlink:title="index.js">
<path fill="#ffffcc" stroke="black" d="M213.31,-466.14C213.31,-466.14 171.71,-466.14 171.71,-466.14 168.61,-466.14 165.51,-463.04 165.51,-459.94 165.51,-459.94 165.51,-453.74 165.51,-453.74 165.51,-450.64 168.61,-447.54 171.71,-447.54 171.71,-447.54 213.31,-447.54 213.31,-447.54 216.41,-447.54 219.51,-450.64 219.51,-453.74 219.51,-453.74 219.51,-459.94 219.51,-459.94 219.51,-463.04 216.41,-466.14 213.31,-466.14"/>
<text text-anchor="middle" x="192.51" y="-454.14" font-family="Helvetica,sans-Serif" font-size="9.00">index.js</text>
</a>
</g>
</g>
<!-- client/src/components/shared/input&#45;greeting.js -->
<g id="node11" class="node">
<title>client/src/components/shared/input&#45;greeting.js</title>
<g id="a_node11"><a xlink:href="../client/src/components/shared/input-greeting.js" xlink:title="input&#45;greeting.js">
<path fill="#ffffcc" stroke="black" d="M366.32,-436.14C366.32,-436.14 298.7,-436.14 298.7,-436.14 295.6,-436.14 292.5,-433.04 292.5,-429.94 292.5,-429.94 292.5,-423.74 292.5,-423.74 292.5,-420.64 295.6,-417.54 298.7,-417.54 298.7,-417.54 366.32,-417.54 366.32,-417.54 369.42,-417.54 372.52,-420.64 372.52,-423.74 372.52,-423.74 372.52,-429.94 372.52,-429.94 372.52,-433.04 369.42,-436.14 366.32,-436.14"/>
<text text-anchor="middle" x="332.51" y="-424.14" font-family="Helvetica,sans-Serif" font-size="9.00">input&#45;greeting.js</text>
</a>
</g>
</g>
<!-- client/src/components/pages/questions/index.js&#45;&gt;client/src/components/shared/input&#45;greeting.js -->
<g id="edge7" class="edge">
<title>client/src/components/pages/questions/index.js&#45;&gt;client/src/components/shared/input&#45;greeting.js</title>
<path fill="none" stroke="#000000" stroke-width="2" stroke-opacity="0.200000" d="M219.6,-450.73C230.4,-448.23 243.04,-445.35 254.51,-442.84 264.77,-440.6 275.81,-438.26 286.24,-436.09"/>
<polygon fill="#000000" fill-opacity="0.200000" stroke="#000000" stroke-width="2" stroke-opacity="0.200000" points="286.86,-438.1 292.3,-434.83 286,-433.99 286.86,-438.1"/>
</g>
<!-- client/src/handlers/change&#45;greeting.js -->
<g id="node14" class="node">
<title>client/src/handlers/change&#45;greeting.js</title>
<g id="a_node14"><a xlink:href="../client/src/handlers/change-greeting.js" xlink:title="change&#45;greeting.js">
<path fill="#ffffcc" stroke="black" d="M371.33,-581.14C371.33,-581.14 293.69,-581.14 293.69,-581.14 290.59,-581.14 287.49,-578.04 287.49,-574.94 287.49,-574.94 287.49,-568.74 287.49,-568.74 287.49,-565.64 290.59,-562.54 293.69,-562.54 293.69,-562.54 371.33,-562.54 371.33,-562.54 374.43,-562.54 377.53,-565.64 377.53,-568.74 377.53,-568.74 377.53,-574.94 377.53,-574.94 377.53,-578.04 374.43,-581.14 371.33,-581.14"/>
<text text-anchor="middle" x="332.51" y="-569.14" font-family="Helvetica,sans-Serif" font-size="9.00">change&#45;greeting.js</text>
</a>
</g>
</g>
<!-- client/src/components/shared/input&#45;greeting.js&#45;&gt;client/src/handlers/change&#45;greeting.js -->
<g id="edge9" class="edge">
<title>client/src/components/shared/input&#45;greeting.js&#45;&gt;client/src/handlers/change&#45;greeting.js</title>
<path fill="none" stroke="#000000" stroke-width="2" stroke-opacity="0.200000" d="M292.46,-424.5C274.28,-425.92 255.68,-431.77 250.51,-448.84 247.8,-457.78 247.8,-481.91 250.51,-490.84 259.81,-521.56 289.65,-545.59 310.64,-559.25"/>
<polygon fill="#000000" fill-opacity="0.200000" stroke="#000000" stroke-width="2" stroke-opacity="0.200000" points="309.57,-561.06 315.77,-562.49 311.82,-557.51 309.57,-561.06"/>
</g>
<!-- client/src/components/shared/input&#45;greeting.js&#45;&gt;client/src/init/state.js -->
<g id="edge10" class="edge">
<title>client/src/components/shared/input&#45;greeting.js&#45;&gt;client/src/init/state.js</title>
<path fill="none" stroke="#000000" stroke-width="2" stroke-opacity="0.200000" d="M372.55,-427.67C383.71,-429.87 394.9,-434.31 402.52,-442.84 436.18,-480.56 382.62,-517.46 415.52,-555.84 422.07,-563.49 431.91,-567.65 441.65,-569.87"/>
<polygon fill="#000000" fill-opacity="0.200000" stroke="#000000" stroke-width="2" stroke-opacity="0.200000" points="441.38,-571.95 447.66,-571.01 442.16,-567.83 441.38,-571.95"/>
</g>
<!-- client/src/logic/reverse.js -->
<g id="node16" class="node">
<title>client/src/logic/reverse.js</title>
<g id="a_node16"><a xlink:href="../client/src/logic/reverse.js" xlink:title="reverse.js">
<path fill="#ffffcc" stroke="black" d="M496.07,-144.14C496.07,-144.14 453.47,-144.14 453.47,-144.14 450.37,-144.14 447.27,-141.04 447.27,-137.94 447.27,-137.94 447.27,-131.74 447.27,-131.74 447.27,-128.64 450.37,-125.54 453.47,-125.54 453.47,-125.54 496.07,-125.54 496.07,-125.54 499.17,-125.54 502.27,-128.64 502.27,-131.74 502.27,-131.74 502.27,-137.94 502.27,-137.94 502.27,-141.04 499.17,-144.14 496.07,-144.14"/>
<text text-anchor="middle" x="474.77" y="-132.14" font-family="Helvetica,sans-Serif" font-size="9.00">reverse.js</text>
</a>
</g>
</g>
<!-- client/src/components/shared/input&#45;greeting.js&#45;&gt;client/src/logic/reverse.js -->
<g id="edge11" class="edge">
<title>client/src/components/shared/input&#45;greeting.js&#45;&gt;client/src/logic/reverse.js</title>
<path fill="none" stroke="#000000" stroke-width="2" stroke-opacity="0.200000" d="M372.57,-425.21C383.47,-422.94 394.51,-418.66 402.52,-410.84 440.73,-373.56 465.15,-203.05 471.87,-150.39"/>
<polygon fill="#000000" fill-opacity="0.200000" stroke="#000000" stroke-width="2" stroke-opacity="0.200000" points="473.97,-150.51 472.64,-144.29 469.81,-149.98 473.97,-150.51"/>
</g>
<!-- client/src/components/pages/quiz/index.js -->
<g id="node12" class="node">
<title>client/src/components/pages/quiz/index.js</title>
<g id="a_node12"><a xlink:href="../client/src/components/pages/quiz/index.js" xlink:title="index.js">
<path fill="#ffffcc" stroke="black" d="M213.31,-344.14C213.31,-344.14 171.71,-344.14 171.71,-344.14 168.61,-344.14 165.51,-341.04 165.51,-337.94 165.51,-337.94 165.51,-331.74 165.51,-331.74 165.51,-328.64 168.61,-325.54 171.71,-325.54 171.71,-325.54 213.31,-325.54 213.31,-325.54 216.41,-325.54 219.51,-328.64 219.51,-331.74 219.51,-331.74 219.51,-337.94 219.51,-337.94 219.51,-341.04 216.41,-344.14 213.31,-344.14"/>
<text text-anchor="middle" x="192.51" y="-332.14" font-family="Helvetica,sans-Serif" font-size="9.00">index.js</text>
</a>
</g>
</g>
<!-- client/src/components/pages/quiz/index.js&#45;&gt;client/src/components/shared/input&#45;greeting.js -->
<g id="edge8" class="edge">
<title>client/src/components/pages/quiz/index.js&#45;&gt;client/src/components/shared/input&#45;greeting.js</title>
<path fill="none" stroke="#000000" stroke-width="2" stroke-opacity="0.200000" d="M211.14,-344.17C222.92,-351.3 237.8,-362.22 246.51,-375.84 255.1,-389.29 243.11,-399.67 254.51,-410.84 262.98,-419.15 274.56,-423.66 286.18,-425.99"/>
<polygon fill="#000000" fill-opacity="0.200000" stroke="#000000" stroke-width="2" stroke-opacity="0.200000" points="285.97,-428.09 292.24,-427.02 286.68,-423.95 285.97,-428.09"/>
</g>
<!-- client/src/components/pages/quiz/progress&#45;bar.js -->
<g id="node13" class="node">
<title>client/src/components/pages/quiz/progress&#45;bar.js</title>
<g id="a_node13"><a xlink:href="../client/src/components/pages/quiz/progress-bar.js" xlink:title="progress&#45;bar.js">
<path fill="#ccffcc" stroke="black" d="M224.31,-313.14C224.31,-313.14 160.71,-313.14 160.71,-313.14 157.61,-313.14 154.51,-310.04 154.51,-306.94 154.51,-306.94 154.51,-300.74 154.51,-300.74 154.51,-297.64 157.61,-294.54 160.71,-294.54 160.71,-294.54 224.31,-294.54 224.31,-294.54 227.41,-294.54 230.51,-297.64 230.51,-300.74 230.51,-300.74 230.51,-306.94 230.51,-306.94 230.51,-310.04 227.41,-313.14 224.31,-313.14"/>
<text text-anchor="middle" x="192.51" y="-301.14" font-family="Helvetica,sans-Serif" font-size="9.00">progress&#45;bar.js</text>
</a>
</g>
</g>
<!-- client/src/handlers/change&#45;greeting.js&#45;&gt;client/src/init/state.js -->
<g id="edge12" class="edge">
<title>client/src/handlers/change&#45;greeting.js&#45;&gt;client/src/init/state.js</title>
<path fill="none" stroke="#000000" stroke-width="2" stroke-opacity="0.200000" d="M377.89,-571.84C398.51,-571.84 422.58,-571.84 441.45,-571.84"/>
<polygon fill="#000000" fill-opacity="0.200000" stroke="#000000" stroke-width="2" stroke-opacity="0.200000" points="441.63,-573.94 447.63,-571.84 441.63,-569.74 441.63,-573.94"/>
</g>
<!-- client/src/handlers/change&#45;greeting.js&#45;&gt;client/src/logic/reverse.js -->
<g id="edge13" class="edge">
<title>client/src/handlers/change&#45;greeting.js&#45;&gt;client/src/logic/reverse.js</title>
<path fill="none" stroke="#000000" stroke-width="2" stroke-opacity="0.200000" d="M345.66,-562.36C361.41,-549.37 388.52,-524.46 402.52,-496.84 464.72,-374.11 472.7,-202.46 473.66,-150.41"/>
<polygon fill="#000000" fill-opacity="0.200000" stroke="#000000" stroke-width="2" stroke-opacity="0.200000" points="475.76,-150.43 473.75,-144.4 471.56,-150.37 475.76,-150.43"/>
</g>
<!-- client/src/routes.js -->
<g id="node19" class="node">
<title>client/src/routes.js</title>
<g id="a_node19"><a xlink:href="../client/src/routes.js" xlink:title="routes.js">
<path fill="#ffffcc" stroke="black" d="M94.05,-344.14C94.05,-344.14 52.45,-344.14 52.45,-344.14 49.35,-344.14 46.25,-341.04 46.25,-337.94 46.25,-337.94 46.25,-331.74 46.25,-331.74 46.25,-328.64 49.35,-325.54 52.45,-325.54 52.45,-325.54 94.05,-325.54 94.05,-325.54 97.15,-325.54 100.25,-328.64 100.25,-331.74 100.25,-331.74 100.25,-337.94 100.25,-337.94 100.25,-341.04 97.15,-344.14 94.05,-344.14"/>
<text text-anchor="middle" x="73.25" y="-332.14" font-family="Helvetica,sans-Serif" font-size="9.00">routes.js</text>
</a>
</g>
</g>
<!-- client/src/init/router.js&#45;&gt;client/src/routes.js -->
<g id="edge17" class="edge">
<title>client/src/init/router.js&#45;&gt;client/src/routes.js</title>
<path fill="none" stroke="#000000" stroke-width="2" stroke-opacity="0.200000" d="M576.11,-531.4C576.67,-466.4 578.35,-86.73 542.02,-52.84 448.58,34.32 371.88,-2.33 254.51,-52.84 144.75,-100.08 95.01,-253.4 79.69,-311.89"/>
<polygon fill="#000000" fill-opacity="0.200000" stroke="#000000" stroke-width="2" stroke-opacity="0.200000" points="75.74,-319.1 76.33,-325.43 79.81,-320.11 75.74,-319.1"/>
<polyline fill="none" stroke="#000000" stroke-width="2" stroke-opacity="0.200000" points="77.77,-319.6 78.5,-316.69 "/>
<ellipse fill="none" stroke="#000000" stroke-width="2" stroke-opacity="0.200000" cx="79.08" cy="-314.36" rx="2.4" ry="2.4"/>
</g>
<!-- client/src/init/index.js -->
<g id="node18" class="node">
<title>client/src/init/index.js</title>
<g id="a_node18"><a xlink:href="../client/src/init/index.js" xlink:title="index.js">
<path fill="#ffffcc" stroke="black" d="M495.57,-550.14C495.57,-550.14 453.97,-550.14 453.97,-550.14 450.87,-550.14 447.77,-547.04 447.77,-543.94 447.77,-543.94 447.77,-537.74 447.77,-537.74 447.77,-534.64 450.87,-531.54 453.97,-531.54 453.97,-531.54 495.57,-531.54 495.57,-531.54 498.67,-531.54 501.77,-534.64 501.77,-537.74 501.77,-537.74 501.77,-543.94 501.77,-543.94 501.77,-547.04 498.67,-550.14 495.57,-550.14"/>
<text text-anchor="middle" x="474.77" y="-538.14" font-family="Helvetica,sans-Serif" font-size="9.00">index.js</text>
</a>
</g>
</g>
<!-- client/src/init/index.js&#45;&gt;client/src/init/router.js -->
<g id="edge16" class="edge">
<title>client/src/init/index.js&#45;&gt;client/src/init/router.js</title>
<path fill="none" stroke="#000000" stroke-width="2" stroke-opacity="0.200000" d="M501.85,-540.84C514.62,-540.84 530.14,-540.84 543.66,-540.84"/>
<polygon fill="#000000" fill-opacity="0.200000" stroke="#000000" stroke-width="2" stroke-opacity="0.200000" points="543.72,-542.94 549.72,-540.84 543.72,-538.74 543.72,-542.94"/>
</g>
<!-- client/src/routes.js&#45;&gt;client/src/components/layout/page.js -->
<g id="edge21" class="edge">
<title>client/src/routes.js&#45;&gt;client/src/components/layout/page.js</title>
<path fill="none" stroke="#000000" stroke-width="2" stroke-opacity="0.200000" d="M84.46,-325.26C95.6,-314.86 114.06,-297.88 130.51,-283.84 144.97,-271.5 161.86,-258 174.19,-248.3"/>
<polygon fill="#000000" fill-opacity="0.200000" stroke="#000000" stroke-width="2" stroke-opacity="0.200000" points="175.75,-249.75 179.18,-244.39 173.16,-246.44 175.75,-249.75"/>
</g>
<!-- client/src/routes.js&#45;&gt;client/src/components/pages/home/index.js -->
<g id="edge22" class="edge">
<title>client/src/routes.js&#45;&gt;client/src/components/pages/home/index.js</title>
<path fill="none" stroke="#000000" stroke-width="2" stroke-opacity="0.200000" d="M85.76,-344.16C96.75,-352.72 114.03,-365.34 130.51,-373.84 137.3,-377.35 144.78,-380.54 152.1,-383.34"/>
<polygon fill="#000000" fill-opacity="0.200000" stroke="#000000" stroke-width="2" stroke-opacity="0.200000" points="159,-388.03 165.36,-388.08 160.41,-384.08 159,-388.03"/>
<polyline fill="none" stroke="#000000" stroke-width="2" stroke-opacity="0.200000" points="159.71,-386.06 156.88,-385.05 "/>
<ellipse fill="none" stroke="#000000" stroke-width="2" stroke-opacity="0.200000" cx="154.62" cy="-384.24" rx="2.4" ry="2.4"/>
</g>
<!-- client/src/routes.js&#45;&gt;client/src/components/pages/questions/index.js -->
<g id="edge23" class="edge">
<title>client/src/routes.js&#45;&gt;client/src/components/pages/questions/index.js</title>
<path fill="none" stroke="#000000" stroke-width="2" stroke-opacity="0.200000" d="M77.07,-344.29C83.39,-363.94 100.55,-409.5 130.51,-434.84 138.77,-441.83 149.43,-446.68 159.52,-450"/>
<polygon fill="#000000" fill-opacity="0.200000" stroke="#000000" stroke-width="2" stroke-opacity="0.200000" points="159.02,-452.04 165.37,-451.78 160.24,-448.02 159.02,-452.04"/>
</g>
<!-- client/src/routes.js&#45;&gt;client/src/components/pages/quiz/index.js -->
<g id="edge24" class="edge">
<title>client/src/routes.js&#45;&gt;client/src/components/pages/quiz/index.js</title>
<path fill="none" stroke="#000000" stroke-width="2" stroke-opacity="0.200000" d="M100.28,-334.84C117.61,-334.84 140.53,-334.84 159.05,-334.84"/>
<polygon fill="#000000" fill-opacity="0.200000" stroke="#000000" stroke-width="2" stroke-opacity="0.200000" points="159.15,-336.94 165.15,-334.84 159.15,-332.74 159.15,-336.94"/>
</g>
<!-- client/src/logic/camelCaseToTitleCase.spec.js -->
<g id="node20" class="node">
<title>client/src/logic/camelCaseToTitleCase.spec.js</title>
<g id="a_node20"><a xlink:href="../client/src/logic/camelCaseToTitleCase.spec.js" xlink:title="camelCaseToTitleCase.spec.js">
<path fill="#ffffcc" stroke="black" d="M396.32,-82.14C396.32,-82.14 268.7,-82.14 268.7,-82.14 265.6,-82.14 262.5,-79.04 262.5,-75.94 262.5,-75.94 262.5,-69.74 262.5,-69.74 262.5,-66.64 265.6,-63.54 268.7,-63.54 268.7,-63.54 396.32,-63.54 396.32,-63.54 399.42,-63.54 402.52,-66.64 402.52,-69.74 402.52,-69.74 402.52,-75.94 402.52,-75.94 402.52,-79.04 399.42,-82.14 396.32,-82.14"/>
<text text-anchor="middle" x="332.51" y="-70.14" font-family="Helvetica,sans-Serif" font-size="9.00">camelCaseToTitleCase.spec.js</text>
</a>
</g>
</g>
<!-- client/src/logic/camelCaseToTitleCase.spec.js&#45;&gt;client/src/logic/camelCaseToTitleCase.js -->
<g id="edge18" class="edge">
<title>client/src/logic/camelCaseToTitleCase.spec.js&#45;&gt;client/src/logic/camelCaseToTitleCase.js</title>
<path fill="none" stroke="#000000" stroke-width="2" stroke-opacity="0.200000" d="M402.82,-80.75C405.09,-81.01 407.37,-81.27 409.63,-81.53"/>
<polygon fill="#000000" fill-opacity="0.200000" stroke="#000000" stroke-width="2" stroke-opacity="0.200000" points="409.4,-83.61 415.6,-82.21 409.88,-79.44 409.4,-83.61"/>
</g>
<!-- client/src/logic/progress&#45;bar.js -->
<g id="node21" class="node">
<title>client/src/logic/progress&#45;bar.js</title>
<g id="a_node21"><a xlink:href="../client/src/logic/progress-bar.js" xlink:title="progress&#45;bar.js">
<path fill="#ccffcc" stroke="black" d="M364.31,-113.14C364.31,-113.14 300.71,-113.14 300.71,-113.14 297.61,-113.14 294.51,-110.04 294.51,-106.94 294.51,-106.94 294.51,-100.74 294.51,-100.74 294.51,-97.64 297.61,-94.54 300.71,-94.54 300.71,-94.54 364.31,-94.54 364.31,-94.54 367.41,-94.54 370.51,-97.64 370.51,-100.74 370.51,-100.74 370.51,-106.94 370.51,-106.94 370.51,-110.04 367.41,-113.14 364.31,-113.14"/>
<text text-anchor="middle" x="332.51" y="-101.14" font-family="Helvetica,sans-Serif" font-size="9.00">progress&#45;bar.js</text>
</a>
</g>
</g>
<!-- client/src/logic/reverse.spec.js -->
<g id="node22" class="node">
<title>client/src/logic/reverse.spec.js</title>
<g id="a_node22"><a xlink:href="../client/src/logic/reverse.spec.js" xlink:title="reverse.spec.js">
<path fill="#ffffcc" stroke="black" d="M364.32,-144.14C364.32,-144.14 300.7,-144.14 300.7,-144.14 297.6,-144.14 294.5,-141.04 294.5,-137.94 294.5,-137.94 294.5,-131.74 294.5,-131.74 294.5,-128.64 297.6,-125.54 300.7,-125.54 300.7,-125.54 364.32,-125.54 364.32,-125.54 367.42,-125.54 370.52,-128.64 370.52,-131.74 370.52,-131.74 370.52,-137.94 370.52,-137.94 370.52,-141.04 367.42,-144.14 364.32,-144.14"/>
<text text-anchor="middle" x="332.51" y="-132.14" font-family="Helvetica,sans-Serif" font-size="9.00">reverse.spec.js</text>
</a>
</g>
</g>
<!-- client/src/logic/reverse.spec.js&#45;&gt;client/src/logic/reverse.js -->
<g id="edge19" class="edge">
<title>client/src/logic/reverse.spec.js&#45;&gt;client/src/logic/reverse.js</title>
<path fill="none" stroke="#000000" stroke-width="2" stroke-opacity="0.200000" d="M370.73,-134.84C392.59,-134.84 419.98,-134.84 441.02,-134.84"/>
<polygon fill="#000000" fill-opacity="0.200000" stroke="#000000" stroke-width="2" stroke-opacity="0.200000" points="441.05,-136.94 447.05,-134.84 441.05,-132.74 441.05,-136.94"/>
</g>
<!-- client/src/progress&#45;bar&#45;code.js -->
<g id="node23" class="node">
<title>client/src/progress&#45;bar&#45;code.js</title>
<g id="a_node23"><a xlink:href="../client/src/progress-bar-code.js" xlink:title="progress&#45;bar&#45;code.js">
<path fill="#ffffcc" stroke="black" d="M116.06,-466.14C116.06,-466.14 30.45,-466.14 30.45,-466.14 27.35,-466.14 24.25,-463.04 24.25,-459.94 24.25,-459.94 24.25,-453.74 24.25,-453.74 24.25,-450.64 27.35,-447.54 30.45,-447.54 30.45,-447.54 116.06,-447.54 116.06,-447.54 119.16,-447.54 122.26,-450.64 122.26,-453.74 122.26,-453.74 122.26,-459.94 122.26,-459.94 122.26,-463.04 119.16,-466.14 116.06,-466.14"/>
<text text-anchor="middle" x="73.25" y="-454.14" font-family="Helvetica,sans-Serif" font-size="9.00">progress&#45;bar&#45;code.js</text>
</a>
</g>
</g>
<!-- client/src/progress&#45;bar&#45;code.js&#45;&gt;client/src/components/pages/questions/index.js -->
<g id="edge20" class="edge">
<title>client/src/progress&#45;bar&#45;code.js&#45;&gt;client/src/components/pages/questions/index.js</title>
<path fill="none" stroke="#000000" stroke-width="2" stroke-opacity="0.200000" d="M122.28,-456.84C134.66,-456.84 147.7,-456.84 159.07,-456.84"/>
<polygon fill="#000000" fill-opacity="0.200000" stroke="#000000" stroke-width="2" stroke-opacity="0.200000" points="159.21,-458.94 165.21,-456.84 159.21,-454.74 159.21,-458.94"/>
</g>
</g>
</svg>
