<?xml version="1.0" encoding="UTF-8" standalone="no"?>
<!DOCTYPE svg PUBLIC "-//W3C//DTD SVG 1.1//EN"
 "http://www.w3.org/Graphics/SVG/1.1/DTD/svg11.dtd">
<!-- Generated by graphviz version 2.44.0 (20200408.0750)
 -->
<!-- Title: dependency&#45;cruiser output Pages: 1 -->
<svg width="478pt" height="563pt"
 viewBox="0.00 0.00 477.52 563.00" xmlns="http://www.w3.org/2000/svg" xmlns:xlink="http://www.w3.org/1999/xlink">
<g id="graph0" class="graph" transform="scale(1 1) rotate(0) translate(4 559)">
<title>dependency&#45;cruiser output</title>
<polygon fill="white" stroke="transparent" points="-4,4 -4,-559 473.52,-559 473.52,4 -4,4"/>
<g id="clust1" class="cluster">
<title>cluster_client</title>
<path fill="#ffffff" stroke="black" stroke-width="2" d="M20,-8C20,-8 449.52,-8 449.52,-8 455.52,-8 461.52,-14 461.52,-20 461.52,-20 461.52,-535 461.52,-535 461.52,-541 455.52,-547 449.52,-547 449.52,-547 20,-547 20,-547 14,-547 8,-541 8,-535 8,-535 8,-20 8,-20 8,-14 14,-8 20,-8"/>
<text text-anchor="middle" x="234.76" y="-534.9" font-family="Helvetica,sans-Serif" font-weight="bold" font-size="9.00">client</text>
</g>
<g id="clust2" class="cluster">
<title>cluster_client/src</title>
<path fill="#ffffff" stroke="black" stroke-width="2" d="M28,-16C28,-16 441.52,-16 441.52,-16 447.52,-16 453.52,-22 453.52,-28 453.52,-28 453.52,-508 453.52,-508 453.52,-514 447.52,-520 441.52,-520 441.52,-520 28,-520 28,-520 22,-520 16,-514 16,-508 16,-508 16,-28 16,-28 16,-22 22,-16 28,-16"/>
<text text-anchor="middle" x="234.76" y="-507.9" font-family="Helvetica,sans-Serif" font-weight="bold" font-size="9.00">src</text>
</g>
<g id="clust3" class="cluster">
<title>cluster_client/src/components</title>
<path fill="#ffffff" stroke="black" stroke-width="2" d="M98,-95C98,-95 285.02,-95 285.02,-95 291.02,-95 297.02,-101 297.02,-107 297.02,-107 297.02,-420 297.02,-420 297.02,-426 291.02,-432 285.02,-432 285.02,-432 98,-432 98,-432 92,-432 86,-426 86,-420 86,-420 86,-107 86,-107 86,-101 92,-95 98,-95"/>
<text text-anchor="middle" x="191.51" y="-419.9" font-family="Helvetica,sans-Serif" font-weight="bold" font-size="9.00">components</text>
</g>
<g id="clust4" class="cluster">
<title>cluster_client/src/components/layout</title>
<path fill="#ffffff" stroke="black" stroke-width="2" d="M114,-321C114,-321 264.01,-321 264.01,-321 270.01,-321 276.01,-327 276.01,-333 276.01,-333 276.01,-393 276.01,-393 276.01,-399 270.01,-405 264.01,-405 264.01,-405 114,-405 114,-405 108,-405 102,-399 102,-393 102,-393 102,-333 102,-333 102,-327 108,-321 114,-321"/>
<text text-anchor="middle" x="189" y="-392.9" font-family="Helvetica,sans-Serif" font-weight="bold" font-size="9.00">layout</text>
</g>
<g id="clust5" class="cluster">
<title>cluster_client/src/components/pages</title>
<path fill="#ffffff" stroke="black" stroke-width="2" d="M106,-103C106,-103 168,-103 168,-103 174,-103 180,-109 180,-115 180,-115 180,-301 180,-301 180,-307 174,-313 168,-313 168,-313 106,-313 106,-313 100,-313 94,-307 94,-301 94,-301 94,-115 94,-115 94,-109 100,-103 106,-103"/>
<text text-anchor="middle" x="137" y="-300.9" font-family="Helvetica,sans-Serif" font-weight="bold" font-size="9.00">pages</text>
</g>
<g id="clust6" class="cluster">
<title>cluster_client/src/components/pages/home</title>
<path fill="#ffffff" stroke="black" stroke-width="2" d="M114,-233C114,-233 160,-233 160,-233 166,-233 172,-239 172,-245 172,-245 172,-274 172,-274 172,-280 166,-286 160,-286 160,-286 114,-286 114,-286 108,-286 102,-280 102,-274 102,-274 102,-245 102,-245 102,-239 108,-233 114,-233"/>
<text text-anchor="middle" x="137" y="-273.9" font-family="Helvetica,sans-Serif" font-weight="bold" font-size="9.00">home</text>
</g>
<g id="clust7" class="cluster">
<title>cluster_client/src/components/pages/questions</title>
<path fill="#ffffff" stroke="black" stroke-width="2" d="M114,-172C114,-172 160,-172 160,-172 166,-172 172,-178 172,-184 172,-184 172,-213 172,-213 172,-219 166,-225 160,-225 160,-225 114,-225 114,-225 108,-225 102,-219 102,-213 102,-213 102,-184 102,-184 102,-178 108,-172 114,-172"/>
<text text-anchor="middle" x="137" y="-212.9" font-family="Helvetica,sans-Serif" font-weight="bold" font-size="9.00">questions</text>
</g>
<g id="clust8" class="cluster">
<title>cluster_client/src/components/pages/quiz</title>
<path fill="#ffffff" stroke="black" stroke-width="2" d="M114,-111C114,-111 160,-111 160,-111 166,-111 172,-117 172,-123 172,-123 172,-152 172,-152 172,-158 166,-164 160,-164 160,-164 114,-164 114,-164 108,-164 102,-158 102,-152 102,-152 102,-123 102,-123 102,-117 108,-111 114,-111"/>
<text text-anchor="middle" x="137" y="-151.9" font-family="Helvetica,sans-Serif" font-weight="bold" font-size="9.00">quiz</text>
</g>
<g id="clust9" class="cluster">
<title>cluster_client/src/components/shared</title>
<path fill="#ffffff" stroke="black" stroke-width="2" d="M205,-172C205,-172 277.02,-172 277.02,-172 283.02,-172 289.02,-178 289.02,-184 289.02,-184 289.02,-213 289.02,-213 289.02,-219 283.02,-225 277.02,-225 277.02,-225 205,-225 205,-225 199,-225 193,-219 193,-213 193,-213 193,-184 193,-184 193,-178 199,-172 205,-172"/>
<text text-anchor="middle" x="241.01" y="-212.9" font-family="Helvetica,sans-Serif" font-weight="bold" font-size="9.00">shared</text>
</g>
<g id="clust10" class="cluster">
<title>cluster_client/src/handlers</title>
<path fill="#ffffff" stroke="black" stroke-width="2" d="M200,-440C200,-440 282.02,-440 282.02,-440 288.02,-440 294.02,-446 294.02,-452 294.02,-452 294.02,-481 294.02,-481 294.02,-487 288.02,-493 282.02,-493 282.02,-493 200,-493 200,-493 194,-493 188,-487 188,-481 188,-481 188,-452 188,-452 188,-446 194,-440 200,-440"/>
<text text-anchor="middle" x="241.01" y="-480.9" font-family="Helvetica,sans-Serif" font-weight="bold" font-size="9.00">handlers</text>
</g>
<g id="clust11" class="cluster">
<title>cluster_client/src/init</title>
<path fill="#ffffff" stroke="black" stroke-width="2" d="M317.02,-141C317.02,-141 433.52,-141 433.52,-141 439.52,-141 445.52,-147 445.52,-153 445.52,-153 445.52,-213 445.52,-213 445.52,-219 439.52,-225 433.52,-225 433.52,-225 317.02,-225 317.02,-225 311.02,-225 305.02,-219 305.02,-213 305.02,-213 305.02,-153 305.02,-153 305.02,-147 311.02,-141 317.02,-141"/>
<text text-anchor="middle" x="375.27" y="-212.9" font-family="Helvetica,sans-Serif" font-weight="bold" font-size="9.00">init</text>
</g>
<g id="clust12" class="cluster">
<title>cluster_client/src/logic</title>
<path fill="#ffffff" stroke="black" stroke-width="2" d="M206.76,-34C206.76,-34 363.52,-34 363.52,-34 369.52,-34 375.52,-40 375.52,-46 375.52,-46 375.52,-75 375.52,-75 375.52,-81 369.52,-87 363.52,-87 363.52,-87 206.76,-87 206.76,-87 200.76,-87 194.76,-81 194.76,-75 194.76,-75 194.76,-46 194.76,-46 194.76,-40 200.76,-34 206.76,-34"/>
<text text-anchor="middle" x="285.14" y="-74.9" font-family="Helvetica,sans-Serif" font-weight="bold" font-size="9.00">logic</text>
</g>
<!-- client/src/components/layout/footer.js -->
<g id="node1" class="node">
<title>client/src/components/layout/footer.js</title>
<g id="a_node1"><a xlink:href="../client/src/components/layout/footer.js" xlink:title="footer.js">
<path fill="#ffffcc" stroke="black" d="M261.81,-347.3C261.81,-347.3 220.21,-347.3 220.21,-347.3 217.11,-347.3 214.01,-344.2 214.01,-341.1 214.01,-341.1 214.01,-334.9 214.01,-334.9 214.01,-331.8 217.11,-328.7 220.21,-328.7 220.21,-328.7 261.81,-328.7 261.81,-328.7 264.91,-328.7 268.01,-331.8 268.01,-334.9 268.01,-334.9 268.01,-341.1 268.01,-341.1 268.01,-344.2 264.91,-347.3 261.81,-347.3"/>
<text text-anchor="middle" x="241.01" y="-335.3" font-family="Helvetica,sans-Serif" font-size="9.00">footer.js</text>
</a>
</g>
</g>
<!-- client/src/components/layout/navbar.js -->
<g id="node2" class="node">
<title>client/src/components/layout/navbar.js</title>
<g id="a_node2"><a xlink:href="../client/src/components/layout/navbar.js" xlink:title="navbar.js">
<path fill="#ffffcc" stroke="black" d="M261.81,-378.3C261.81,-378.3 220.21,-378.3 220.21,-378.3 217.11,-378.3 214.01,-375.2 214.01,-372.1 214.01,-372.1 214.01,-365.9 214.01,-365.9 214.01,-362.8 217.11,-359.7 220.21,-359.7 220.21,-359.7 261.81,-359.7 261.81,-359.7 264.91,-359.7 268.01,-362.8 268.01,-365.9 268.01,-365.9 268.01,-372.1 268.01,-372.1 268.01,-375.2 264.91,-378.3 261.81,-378.3"/>
<text text-anchor="middle" x="241.01" y="-366.3" font-family="Helvetica,sans-Serif" font-size="9.00">navbar.js</text>
</a>
</g>
</g>
<!-- client/src/components/layout/page.js -->
<g id="node3" class="node">
<title>client/src/components/layout/page.js</title>
<g id="a_node3"><a xlink:href="../client/src/components/layout/page.js" xlink:title="page.js">
<path fill="#ffffcc" stroke="black" d="M157.8,-347.3C157.8,-347.3 116.2,-347.3 116.2,-347.3 113.1,-347.3 110,-344.2 110,-341.1 110,-341.1 110,-334.9 110,-334.9 110,-331.8 113.1,-328.7 116.2,-328.7 116.2,-328.7 157.8,-328.7 157.8,-328.7 160.9,-328.7 164,-331.8 164,-334.9 164,-334.9 164,-341.1 164,-341.1 164,-344.2 160.9,-347.3 157.8,-347.3"/>
<text text-anchor="middle" x="137" y="-335.3" font-family="Helvetica,sans-Serif" font-size="9.00">page.js</text>
</a>
</g>
</g>
<!-- client/src/components/layout/page.js&#45;&gt;client/src/components/layout/footer.js -->
<g id="edge1" class="edge">
<title>client/src/components/layout/page.js&#45;&gt;client/src/components/layout/footer.js</title>
<path fill="none" stroke="#000000" stroke-width="2" stroke-opacity="0.200000" d="M164.01,-338C177.21,-338 193.39,-338 207.42,-338"/>
<polygon fill="#000000" fill-opacity="0.200000" stroke="#000000" stroke-width="2" stroke-opacity="0.200000" points="207.7,-340.1 213.7,-338 207.7,-335.9 207.7,-340.1"/>
</g>
<!-- client/src/components/layout/page.js&#45;&gt;client/src/components/layout/navbar.js -->
<g id="edge2" class="edge">
<title>client/src/components/layout/page.js&#45;&gt;client/src/components/layout/navbar.js</title>
<path fill="none" stroke="#000000" stroke-width="2" stroke-opacity="0.200000" d="M164.01,-345.9C177.33,-349.95 193.68,-354.92 207.8,-359.21"/>
<polygon fill="#000000" fill-opacity="0.200000" stroke="#000000" stroke-width="2" stroke-opacity="0.200000" points="207.35,-361.27 213.7,-361 208.57,-357.25 207.35,-361.27"/>
</g>
<!-- client/src/components/pages/home/index.js -->
<g id="node4" class="node">
<title>client/src/components/pages/home/index.js</title>
<g id="a_node4"><a xlink:href="../client/src/components/pages/home/index.js" xlink:title="index.js">
<path fill="#ffffcc" stroke="black" d="M157.8,-259.3C157.8,-259.3 116.2,-259.3 116.2,-259.3 113.1,-259.3 110,-256.2 110,-253.1 110,-253.1 110,-246.9 110,-246.9 110,-243.8 113.1,-240.7 116.2,-240.7 116.2,-240.7 157.8,-240.7 157.8,-240.7 160.9,-240.7 164,-243.8 164,-246.9 164,-246.9 164,-253.1 164,-253.1 164,-256.2 160.9,-259.3 157.8,-259.3"/>
<text text-anchor="middle" x="137" y="-247.3" font-family="Helvetica,sans-Serif" font-size="9.00">index.js</text>
</a>
</g>
</g>
<!-- client/src/components/shared/input&#45;greeting.js -->
<g id="node5" class="node">
<title>client/src/components/shared/input&#45;greeting.js</title>
<g id="a_node5"><a xlink:href="../client/src/components/shared/input-greeting.js" xlink:title="input&#45;greeting.js">
<path fill="#ffffcc" stroke="black" d="M274.82,-198.3C274.82,-198.3 207.2,-198.3 207.2,-198.3 204.1,-198.3 201,-195.2 201,-192.1 201,-192.1 201,-185.9 201,-185.9 201,-182.8 204.1,-179.7 207.2,-179.7 207.2,-179.7 274.82,-179.7 274.82,-179.7 277.92,-179.7 281.02,-182.8 281.02,-185.9 281.02,-185.9 281.02,-192.1 281.02,-192.1 281.02,-195.2 277.92,-198.3 274.82,-198.3"/>
<text text-anchor="middle" x="241.01" y="-186.3" font-family="Helvetica,sans-Serif" font-size="9.00">input&#45;greeting.js</text>
</a>
</g>
</g>
<!-- client/src/components/pages/home/index.js&#45;&gt;client/src/components/shared/input&#45;greeting.js -->
<g id="edge3" class="edge">
<title>client/src/components/pages/home/index.js&#45;&gt;client/src/components/shared/input&#45;greeting.js</title>
<path fill="none" stroke="#000000" stroke-width="2" stroke-opacity="0.200000" d="M157.02,-240.51C164.29,-236.76 172.61,-232.32 180,-228 194.14,-219.73 209.62,-209.64 221.32,-201.79"/>
<polygon fill="#000000" fill-opacity="0.200000" stroke="#000000" stroke-width="2" stroke-opacity="0.200000" points="222.61,-203.45 226.42,-198.36 220.27,-199.97 222.61,-203.45"/>
</g>
<!-- client/src/handlers/change&#45;greeting.js -->
<g id="node8" class="node">
<title>client/src/handlers/change&#45;greeting.js</title>
<g id="a_node8"><a xlink:href="../client/src/handlers/change-greeting.js" xlink:title="change&#45;greeting.js">
<path fill="#ffffcc" stroke="black" d="M279.83,-466.3C279.83,-466.3 202.19,-466.3 202.19,-466.3 199.09,-466.3 195.99,-463.2 195.99,-460.1 195.99,-460.1 195.99,-453.9 195.99,-453.9 195.99,-450.8 199.09,-447.7 202.19,-447.7 202.19,-447.7 279.83,-447.7 279.83,-447.7 282.93,-447.7 286.03,-450.8 286.03,-453.9 286.03,-453.9 286.03,-460.1 286.03,-460.1 286.03,-463.2 282.93,-466.3 279.83,-466.3"/>
<text text-anchor="middle" x="241.01" y="-454.3" font-family="Helvetica,sans-Serif" font-size="9.00">change&#45;greeting.js</text>
</a>
</g>
</g>
<!-- client/src/components/shared/input&#45;greeting.js&#45;&gt;client/src/handlers/change&#45;greeting.js -->
<g id="edge6" class="edge">
<title>client/src/components/shared/input&#45;greeting.js&#45;&gt;client/src/handlers/change&#45;greeting.js</title>
<path fill="none" stroke="#000000" stroke-width="2" stroke-opacity="0.200000" d="M235.47,-198.39C223.21,-219.78 194.1,-274.13 184,-324 180.56,-340.99 178.98,-385.41 184,-402 189.45,-420.01 205.36,-434.48 219,-444.05"/>
<polygon fill="#000000" fill-opacity="0.200000" stroke="#000000" stroke-width="2" stroke-opacity="0.200000" points="218.12,-445.99 224.27,-447.6 220.47,-442.51 218.12,-445.99"/>
</g>
<!-- client/src/init/state.js -->
<g id="node9" class="node">
<title>client/src/init/state.js</title>
<g id="a_node9"><a xlink:href="../client/src/init/state.js" xlink:title="state.js">
<path fill="#ffffcc" stroke="black" d="M360.81,-198.3C360.81,-198.3 319.22,-198.3 319.22,-198.3 316.12,-198.3 313.02,-195.2 313.02,-192.1 313.02,-192.1 313.02,-185.9 313.02,-185.9 313.02,-182.8 316.12,-179.7 319.22,-179.7 319.22,-179.7 360.81,-179.7 360.81,-179.7 363.92,-179.7 367.02,-182.8 367.02,-185.9 367.02,-185.9 367.02,-192.1 367.02,-192.1 367.02,-195.2 363.92,-198.3 360.81,-198.3"/>
<text text-anchor="middle" x="340.02" y="-186.3" font-family="Helvetica,sans-Serif" font-size="9.00">state.js</text>
</a>
</g>
</g>
<!-- client/src/components/shared/input&#45;greeting.js&#45;&gt;client/src/init/state.js -->
<g id="edge7" class="edge">
<title>client/src/components/shared/input&#45;greeting.js&#45;&gt;client/src/init/state.js</title>
<path fill="none" stroke="#000000" stroke-width="2" stroke-opacity="0.200000" d="M281.19,-189C289.65,-189 298.51,-189 306.68,-189"/>
<polygon fill="#000000" fill-opacity="0.200000" stroke="#000000" stroke-width="2" stroke-opacity="0.200000" points="306.77,-191.1 312.77,-189 306.77,-186.9 306.77,-191.1"/>
</g>
<!-- client/src/logic/reverse.js -->
<g id="node10" class="node">
<title>client/src/logic/reverse.js</title>
<g id="a_node10"><a xlink:href="../client/src/logic/reverse.js" xlink:title="reverse.js">
<path fill="#ffffcc" stroke="black" d="M361.31,-60.3C361.31,-60.3 318.72,-60.3 318.72,-60.3 315.62,-60.3 312.52,-57.2 312.52,-54.1 312.52,-54.1 312.52,-47.9 312.52,-47.9 312.52,-44.8 315.62,-41.7 318.72,-41.7 318.72,-41.7 361.31,-41.7 361.31,-41.7 364.41,-41.7 367.52,-44.8 367.52,-47.9 367.52,-47.9 367.52,-54.1 367.52,-54.1 367.52,-57.2 364.41,-60.3 361.31,-60.3"/>
<text text-anchor="middle" x="340.02" y="-48.3" font-family="Helvetica,sans-Serif" font-size="9.00">reverse.js</text>
</a>
</g>
</g>
<!-- client/src/components/shared/input&#45;greeting.js&#45;&gt;client/src/logic/reverse.js -->
<g id="edge8" class="edge">
<title>client/src/components/shared/input&#45;greeting.js&#45;&gt;client/src/logic/reverse.js</title>
<path fill="none" stroke="#000000" stroke-width="2" stroke-opacity="0.200000" d="M248.68,-179.51C265.29,-155.88 308.63,-94.23 328.63,-65.78"/>
<polygon fill="#000000" fill-opacity="0.200000" stroke="#000000" stroke-width="2" stroke-opacity="0.200000" points="330.57,-66.67 332.3,-60.55 327.13,-64.25 330.57,-66.67"/>
</g>
<!-- client/src/components/pages/questions/index.js -->
<g id="node6" class="node">
<title>client/src/components/pages/questions/index.js</title>
<g id="a_node6"><a xlink:href="../client/src/components/pages/questions/index.js" xlink:title="index.js">
<path fill="#ffffcc" stroke="black" d="M157.8,-198.3C157.8,-198.3 116.2,-198.3 116.2,-198.3 113.1,-198.3 110,-195.2 110,-192.1 110,-192.1 110,-185.9 110,-185.9 110,-182.8 113.1,-179.7 116.2,-179.7 116.2,-179.7 157.8,-179.7 157.8,-179.7 160.9,-179.7 164,-182.8 164,-185.9 164,-185.9 164,-192.1 164,-192.1 164,-195.2 160.9,-198.3 157.8,-198.3"/>
<text text-anchor="middle" x="137" y="-186.3" font-family="Helvetica,sans-Serif" font-size="9.00">index.js</text>
</a>
</g>
</g>
<!-- client/src/components/pages/questions/index.js&#45;&gt;client/src/components/shared/input&#45;greeting.js -->
<g id="edge4" class="edge">
<title>client/src/components/pages/questions/index.js&#45;&gt;client/src/components/shared/input&#45;greeting.js</title>
<path fill="none" stroke="#000000" stroke-width="2" stroke-opacity="0.200000" d="M164.01,-189C173.38,-189 184.25,-189 194.79,-189"/>
<polygon fill="#000000" fill-opacity="0.200000" stroke="#000000" stroke-width="2" stroke-opacity="0.200000" points="194.95,-191.1 200.95,-189 194.94,-186.9 194.95,-191.1"/>
</g>
<!-- client/src/components/pages/quiz/index.js -->
<g id="node7" class="node">
<title>client/src/components/pages/quiz/index.js</title>
<g id="a_node7"><a xlink:href="../client/src/components/pages/quiz/index.js" xlink:title="index.js">
<path fill="#ffffcc" stroke="black" d="M157.8,-137.3C157.8,-137.3 116.2,-137.3 116.2,-137.3 113.1,-137.3 110,-134.2 110,-131.1 110,-131.1 110,-124.9 110,-124.9 110,-121.8 113.1,-118.7 116.2,-118.7 116.2,-118.7 157.8,-118.7 157.8,-118.7 160.9,-118.7 164,-121.8 164,-124.9 164,-124.9 164,-131.1 164,-131.1 164,-134.2 160.9,-137.3 157.8,-137.3"/>
<text text-anchor="middle" x="137" y="-125.3" font-family="Helvetica,sans-Serif" font-size="9.00">index.js</text>
</a>
</g>
</g>
<!-- client/src/components/pages/quiz/index.js&#45;&gt;client/src/components/shared/input&#45;greeting.js -->
<g id="edge5" class="edge">
<title>client/src/components/pages/quiz/index.js&#45;&gt;client/src/components/shared/input&#45;greeting.js</title>
<path fill="none" stroke="#000000" stroke-width="2" stroke-opacity="0.200000" d="M153.94,-137.53C171.46,-148.01 199.67,-164.88 218.99,-176.43"/>
<polygon fill="#000000" fill-opacity="0.200000" stroke="#000000" stroke-width="2" stroke-opacity="0.200000" points="217.96,-178.26 224.18,-179.54 220.11,-174.65 217.96,-178.26"/>
</g>
<!-- client/src/handlers/change&#45;greeting.js&#45;&gt;client/src/init/state.js -->
<g id="edge9" class="edge">
<title>client/src/handlers/change&#45;greeting.js&#45;&gt;client/src/init/state.js</title>
<path fill="none" stroke="#000000" stroke-width="2" stroke-opacity="0.200000" d="M257.12,-447.68C269.83,-439.01 287.42,-424.91 297.02,-408 335.7,-339.86 339.47,-242.57 339.35,-204.82"/>
<polygon fill="#000000" fill-opacity="0.200000" stroke="#000000" stroke-width="2" stroke-opacity="0.200000" points="341.45,-204.46 339.29,-198.48 337.25,-204.5 341.45,-204.46"/>
</g>
<!-- client/src/handlers/change&#45;greeting.js&#45;&gt;client/src/logic/reverse.js -->
<g id="edge10" class="edge">
<title>client/src/handlers/change&#45;greeting.js&#45;&gt;client/src/logic/reverse.js</title>
<path fill="none" stroke="#000000" stroke-width="2" stroke-opacity="0.200000" d="M258.32,-447.7C271.42,-439.22 288.91,-425.39 297.02,-408 309.7,-380.8 299.02,-167.41 305.02,-138 310.38,-111.68 323.04,-82.99 331.31,-66.02"/>
<polygon fill="#000000" fill-opacity="0.200000" stroke="#000000" stroke-width="2" stroke-opacity="0.200000" points="333.35,-66.64 334.13,-60.33 329.58,-64.77 333.35,-66.64"/>
</g>
<!-- client/src/init/index.js -->
<g id="node11" class="node">
<title>client/src/init/index.js</title>
<g id="a_node11"><a xlink:href="../client/src/init/index.js" xlink:title="index.js">
<path fill="#ffffcc" stroke="black" d="M360.81,-167.3C360.81,-167.3 319.22,-167.3 319.22,-167.3 316.12,-167.3 313.02,-164.2 313.02,-161.1 313.02,-161.1 313.02,-154.9 313.02,-154.9 313.02,-151.8 316.12,-148.7 319.22,-148.7 319.22,-148.7 360.81,-148.7 360.81,-148.7 363.92,-148.7 367.02,-151.8 367.02,-154.9 367.02,-154.9 367.02,-161.1 367.02,-161.1 367.02,-164.2 363.92,-167.3 360.81,-167.3"/>
<text text-anchor="middle" x="340.02" y="-155.3" font-family="Helvetica,sans-Serif" font-size="9.00">index.js</text>
</a>
</g>
</g>
<!-- client/src/init/router.js -->
<g id="node12" class="node">
<title>client/src/init/router.js</title>
<g id="a_node12"><a xlink:href="../client/src/init/router.js" xlink:title="router.js">
<path fill="#ffffcc" stroke="black" d="M431.31,-167.3C431.31,-167.3 389.72,-167.3 389.72,-167.3 386.62,-167.3 383.52,-164.2 383.52,-161.1 383.52,-161.1 383.52,-154.9 383.52,-154.9 383.52,-151.8 386.62,-148.7 389.72,-148.7 389.72,-148.7 431.31,-148.7 431.31,-148.7 434.42,-148.7 437.52,-151.8 437.52,-154.9 437.52,-154.9 437.52,-161.1 437.52,-161.1 437.52,-164.2 434.42,-167.3 431.31,-167.3"/>
<text text-anchor="middle" x="410.52" y="-155.3" font-family="Helvetica,sans-Serif" font-size="9.00">router.js</text>
</a>
</g>
</g>
<!-- client/src/init/index.js&#45;&gt;client/src/init/router.js -->
<g id="edge11" class="edge">
<title>client/src/init/index.js&#45;&gt;client/src/init/router.js</title>
<path fill="none" stroke="#000000" stroke-width="2" stroke-opacity="0.200000" d="M367.3,-158C370.6,-158 374.01,-158 377.39,-158"/>
<polygon fill="#000000" fill-opacity="0.200000" stroke="#000000" stroke-width="2" stroke-opacity="0.200000" points="377.41,-160.1 383.41,-158 377.41,-155.9 377.41,-160.1"/>
</g>
<!-- client/src/routes.js -->
<g id="node13" class="node">
<title>client/src/routes.js</title>
<g id="a_node13"><a xlink:href="../client/src/routes.js" xlink:title="routes.js">
<path fill="#ffffcc" stroke="black" d="M71.8,-198.3C71.8,-198.3 30.2,-198.3 30.2,-198.3 27.1,-198.3 24,-195.2 24,-192.1 24,-192.1 24,-185.9 24,-185.9 24,-182.8 27.1,-179.7 30.2,-179.7 30.2,-179.7 71.8,-179.7 71.8,-179.7 74.9,-179.7 78,-182.8 78,-185.9 78,-185.9 78,-192.1 78,-192.1 78,-195.2 74.9,-198.3 71.8,-198.3"/>
<text text-anchor="middle" x="51" y="-186.3" font-family="Helvetica,sans-Serif" font-size="9.00">routes.js</text>
</a>
</g>
</g>
<!-- client/src/init/router.js&#45;&gt;client/src/routes.js -->
<g id="edge12" class="edge">
<title>client/src/init/router.js&#45;&gt;client/src/routes.js</title>
<path fill="none" stroke="#000000" stroke-width="2" stroke-opacity="0.200000" d="M408.46,-148.59C405.23,-121.7 394.53,-45.59 375.52,-31 309.4,19.74 267.02,-4.52 188,-31 134.14,-49.05 120.86,-63.16 86,-108 70.33,-128.16 60.61,-156.6 55.76,-173.86"/>
<polygon fill="#000000" fill-opacity="0.200000" stroke="#000000" stroke-width="2" stroke-opacity="0.200000" points="53.73,-173.34 54.2,-179.68 57.79,-174.44 53.73,-173.34"/>
</g>
<!-- client/src/routes.js&#45;&gt;client/src/components/layout/page.js -->
<g id="edge14" class="edge">
<title>client/src/routes.js&#45;&gt;client/src/components/layout/page.js</title>
<path fill="none" stroke="#000000" stroke-width="2" stroke-opacity="0.200000" d="M53.68,-198.46C57.3,-216.99 67.05,-258.89 86,-289 94.64,-302.74 107.88,-315.48 118.56,-324.52"/>
<polygon fill="#000000" fill-opacity="0.200000" stroke="#000000" stroke-width="2" stroke-opacity="0.200000" points="117.3,-326.2 123.26,-328.41 119.97,-322.97 117.3,-326.2"/>
</g>
<!-- client/src/routes.js&#45;&gt;client/src/components/pages/home/index.js -->
<g id="edge15" class="edge">
<title>client/src/routes.js&#45;&gt;client/src/components/pages/home/index.js</title>
<path fill="none" stroke="#000000" stroke-width="2" stroke-opacity="0.200000" d="M58.34,-198.4C64.56,-207.03 74.71,-219.7 86,-228 91.5,-232.04 97.86,-235.55 104.16,-238.51"/>
<polygon fill="#000000" fill-opacity="0.200000" stroke="#000000" stroke-width="2" stroke-opacity="0.200000" points="103.57,-240.54 109.9,-241.07 105.27,-236.71 103.57,-240.54"/>
</g>
<!-- client/src/routes.js&#45;&gt;client/src/components/pages/questions/index.js -->
<g id="edge16" class="edge">
<title>client/src/routes.js&#45;&gt;client/src/components/pages/questions/index.js</title>
<path fill="none" stroke="#000000" stroke-width="2" stroke-opacity="0.200000" d="M78.12,-189C86.18,-189 95.15,-189 103.58,-189"/>
<polygon fill="#000000" fill-opacity="0.200000" stroke="#000000" stroke-width="2" stroke-opacity="0.200000" points="103.9,-191.1 109.9,-189 103.9,-186.9 103.9,-191.1"/>
</g>
<!-- client/src/routes.js&#45;&gt;client/src/components/pages/quiz/index.js -->
<g id="edge17" class="edge">
<title>client/src/routes.js&#45;&gt;client/src/components/pages/quiz/index.js</title>
<path fill="none" stroke="#000000" stroke-width="2" stroke-opacity="0.200000" d="M65.12,-179.47C79.3,-169.17 101.99,-152.7 117.87,-141.17"/>
<polygon fill="#000000" fill-opacity="0.200000" stroke="#000000" stroke-width="2" stroke-opacity="0.200000" points="119.35,-142.69 122.97,-137.46 116.88,-139.29 119.35,-142.69"/>
</g>
<!-- client/src/logic/reverse.spec.js -->
<g id="node14" class="node">
<title>client/src/logic/reverse.spec.js</title>
<g id="a_node14"><a xlink:href="../client/src/logic/reverse.spec.js" xlink:title="reverse.spec.js">
<path fill="#ffffcc" stroke="black" d="M272.82,-60.3C272.82,-60.3 209.2,-60.3 209.2,-60.3 206.1,-60.3 203,-57.2 203,-54.1 203,-54.1 203,-47.9 203,-47.9 203,-44.8 206.1,-41.7 209.2,-41.7 209.2,-41.7 272.82,-41.7 272.82,-41.7 275.92,-41.7 279.02,-44.8 279.02,-47.9 279.02,-47.9 279.02,-54.1 279.02,-54.1 279.02,-57.2 275.92,-60.3 272.82,-60.3"/>
<text text-anchor="middle" x="241.01" y="-48.3" font-family="Helvetica,sans-Serif" font-size="9.00">reverse.spec.js</text>
</a>
</g>
</g>
<!-- client/src/logic/reverse.spec.js&#45;&gt;client/src/logic/reverse.js -->
<g id="edge13" class="edge">
<title>client/src/logic/reverse.spec.js&#45;&gt;client/src/logic/reverse.js</title>
<path fill="none" stroke="#000000" stroke-width="2" stroke-opacity="0.200000" d="M279.24,-51C288.09,-51 297.48,-51 306.13,-51"/>
<polygon fill="#000000" fill-opacity="0.200000" stroke="#000000" stroke-width="2" stroke-opacity="0.200000" points="306.28,-53.1 312.28,-51 306.28,-48.9 306.28,-53.1"/>
</g>
</g>
</svg>
