<?xml version="1.0" encoding="UTF-8" standalone="no"?>
<!DOCTYPE svg PUBLIC "-//W3C//DTD SVG 1.1//EN"
 "http://www.w3.org/Graphics/SVG/1.1/DTD/svg11.dtd">
<!-- Generated by graphviz version 2.44.0 (20200408.0750)
 -->
<!-- Title: dependency&#45;cruiser output Pages: 1 -->
<svg width="582pt" height="716pt"
 viewBox="0.00 0.00 581.53 716.17" xmlns="http://www.w3.org/2000/svg" xmlns:xlink="http://www.w3.org/1999/xlink">
<g id="graph0" class="graph" transform="scale(1 1) rotate(0) translate(4 712.17)">
<title>dependency&#45;cruiser output</title>
<polygon fill="white" stroke="transparent" points="-4,4 -4,-712.17 577.53,-712.17 577.53,4 -4,4"/>
<g id="clust1" class="cluster">
<title>cluster_client</title>
<path fill="#ffffff" stroke="black" stroke-width="2" d="M20,-27.17C20,-27.17 553.53,-27.17 553.53,-27.17 559.53,-27.17 565.53,-33.17 565.53,-39.17 565.53,-39.17 565.53,-688.17 565.53,-688.17 565.53,-694.17 559.53,-700.17 553.53,-700.17 553.53,-700.17 20,-700.17 20,-700.17 14,-700.17 8,-694.17 8,-688.17 8,-688.17 8,-39.17 8,-39.17 8,-33.17 14,-27.17 20,-27.17"/>
<text text-anchor="middle" x="286.77" y="-688.07" font-family="Helvetica,sans-Serif" font-weight="bold" font-size="9.00">client</text>
</g>
<g id="clust2" class="cluster">
<title>cluster_client/src</title>
<path fill="#ffffff" stroke="black" stroke-width="2" d="M28,-35.17C28,-35.17 545.53,-35.17 545.53,-35.17 551.53,-35.17 557.53,-41.17 557.53,-47.17 557.53,-47.17 557.53,-661.17 557.53,-661.17 557.53,-667.17 551.53,-673.17 545.53,-673.17 545.53,-673.17 28,-673.17 28,-673.17 22,-673.17 16,-667.17 16,-661.17 16,-661.17 16,-47.17 16,-47.17 16,-41.17 22,-35.17 28,-35.17"/>
<text text-anchor="middle" x="286.77" y="-661.07" font-family="Helvetica,sans-Serif" font-weight="bold" font-size="9.00">src</text>
</g>
<g id="clust3" class="cluster">
<title>cluster_client/src/components</title>
<path fill="#ffffff" stroke="black" stroke-width="2" d="M100.01,-186.17C100.01,-186.17 459.03,-186.17 459.03,-186.17 465.03,-186.17 471.03,-192.17 471.03,-198.17 471.03,-198.17 471.03,-511.17 471.03,-511.17 471.03,-517.17 465.03,-523.17 459.03,-523.17 459.03,-523.17 100.01,-523.17 100.01,-523.17 94.01,-523.17 88.01,-517.17 88.01,-511.17 88.01,-511.17 88.01,-198.17 88.01,-198.17 88.01,-192.17 94.01,-186.17 100.01,-186.17"/>
<text text-anchor="middle" x="279.52" y="-511.07" font-family="Helvetica,sans-Serif" font-weight="bold" font-size="9.00">components</text>
</g>
<g id="clust4" class="cluster">
<title>cluster_client/src/components/layout</title>
<path fill="#ffffff" stroke="black" stroke-width="2" d="M116.01,-194.17C116.01,-194.17 293.02,-194.17 293.02,-194.17 299.02,-194.17 305.02,-200.17 305.02,-206.17 305.02,-206.17 305.02,-266.17 305.02,-266.17 305.02,-272.17 299.02,-278.17 293.02,-278.17 293.02,-278.17 116.01,-278.17 116.01,-278.17 110.01,-278.17 104.01,-272.17 104.01,-266.17 104.01,-266.17 104.01,-206.17 104.01,-206.17 104.01,-200.17 110.01,-194.17 116.01,-194.17"/>
<text text-anchor="middle" x="204.52" y="-266.07" font-family="Helvetica,sans-Serif" font-weight="bold" font-size="9.00">layout</text>
</g>
<g id="clust5" class="cluster">
<title>cluster_client/src/components/pages</title>
<path fill="#ffffff" stroke="black" stroke-width="2" d="M108.01,-286.17C108.01,-286.17 170.01,-286.17 170.01,-286.17 176.01,-286.17 182.01,-292.17 182.01,-298.17 182.01,-298.17 182.01,-484.17 182.01,-484.17 182.01,-490.17 176.01,-496.17 170.01,-496.17 170.01,-496.17 108.01,-496.17 108.01,-496.17 102.01,-496.17 96.01,-490.17 96.01,-484.17 96.01,-484.17 96.01,-298.17 96.01,-298.17 96.01,-292.17 102.01,-286.17 108.01,-286.17"/>
<text text-anchor="middle" x="139.01" y="-484.07" font-family="Helvetica,sans-Serif" font-weight="bold" font-size="9.00">pages</text>
</g>
<g id="clust6" class="cluster">
<title>cluster_client/src/components/pages/home</title>
<path fill="#ffffff" stroke="black" stroke-width="2" d="M116.01,-294.17C116.01,-294.17 162.01,-294.17 162.01,-294.17 168.01,-294.17 174.01,-300.17 174.01,-306.17 174.01,-306.17 174.01,-335.17 174.01,-335.17 174.01,-341.17 168.01,-347.17 162.01,-347.17 162.01,-347.17 116.01,-347.17 116.01,-347.17 110.01,-347.17 104.01,-341.17 104.01,-335.17 104.01,-335.17 104.01,-306.17 104.01,-306.17 104.01,-300.17 110.01,-294.17 116.01,-294.17"/>
<text text-anchor="middle" x="139.01" y="-335.07" font-family="Helvetica,sans-Serif" font-weight="bold" font-size="9.00">home</text>
</g>
<g id="clust7" class="cluster">
<title>cluster_client/src/components/pages/questions</title>
<path fill="#ffffff" stroke="black" stroke-width="2" d="M116.01,-355.17C116.01,-355.17 162.01,-355.17 162.01,-355.17 168.01,-355.17 174.01,-361.17 174.01,-367.17 174.01,-367.17 174.01,-396.17 174.01,-396.17 174.01,-402.17 168.01,-408.17 162.01,-408.17 162.01,-408.17 116.01,-408.17 116.01,-408.17 110.01,-408.17 104.01,-402.17 104.01,-396.17 104.01,-396.17 104.01,-367.17 104.01,-367.17 104.01,-361.17 110.01,-355.17 116.01,-355.17"/>
<text text-anchor="middle" x="139.01" y="-396.07" font-family="Helvetica,sans-Serif" font-weight="bold" font-size="9.00">questions</text>
</g>
<g id="clust8" class="cluster">
<title>cluster_client/src/components/pages/quiz</title>
<path fill="#ffffff" stroke="black" stroke-width="2" d="M116.01,-416.17C116.01,-416.17 162.01,-416.17 162.01,-416.17 168.01,-416.17 174.01,-422.17 174.01,-428.17 174.01,-428.17 174.01,-457.17 174.01,-457.17 174.01,-463.17 168.01,-469.17 162.01,-469.17 162.01,-469.17 116.01,-469.17 116.01,-469.17 110.01,-469.17 104.01,-463.17 104.01,-457.17 104.01,-457.17 104.01,-428.17 104.01,-428.17 104.01,-422.17 110.01,-416.17 116.01,-416.17"/>
<text text-anchor="middle" x="139.01" y="-457.07" font-family="Helvetica,sans-Serif" font-weight="bold" font-size="9.00">quiz</text>
</g>
<g id="clust9" class="cluster">
<title>cluster_client/src/components/shared</title>
<path fill="#ffffff" stroke="black" stroke-width="2" d="M220.02,-350.17C220.02,-350.17 451.03,-350.17 451.03,-350.17 457.03,-350.17 463.03,-356.17 463.03,-362.17 463.03,-362.17 463.03,-484.17 463.03,-484.17 463.03,-490.17 457.03,-496.17 451.03,-496.17 451.03,-496.17 220.02,-496.17 220.02,-496.17 214.02,-496.17 208.02,-490.17 208.02,-484.17 208.02,-484.17 208.02,-362.17 208.02,-362.17 208.02,-356.17 214.02,-350.17 220.02,-350.17"/>
<text text-anchor="middle" x="335.52" y="-484.07" font-family="Helvetica,sans-Serif" font-weight="bold" font-size="9.00">shared</text>
</g>
<g id="clust10" class="cluster">
<title>cluster_client/src/handlers</title>
<path fill="#ffffff" stroke="black" stroke-width="2" d="M98,-531.17C98,-531.17 300.78,-531.17 300.78,-531.17 306.78,-531.17 312.78,-537.17 312.78,-543.17 312.78,-543.17 312.78,-634.17 312.78,-634.17 312.78,-640.17 306.78,-646.17 300.78,-646.17 300.78,-646.17 98,-646.17 98,-646.17 92,-646.17 86,-640.17 86,-634.17 86,-634.17 86,-543.17 86,-543.17 86,-537.17 92,-531.17 98,-531.17"/>
<text text-anchor="middle" x="199.39" y="-634.07" font-family="Helvetica,sans-Serif" font-weight="bold" font-size="9.00">handlers</text>
</g>
<g id="clust11" class="cluster">
<title>cluster_client/src/init</title>
<path fill="#ffffff" stroke="black" stroke-width="2" d="M389.28,-531.17C389.28,-531.17 537.53,-531.17 537.53,-531.17 543.53,-531.17 549.53,-537.17 549.53,-543.17 549.53,-543.17 549.53,-603.17 549.53,-603.17 549.53,-609.17 543.53,-615.17 537.53,-615.17 537.53,-615.17 389.28,-615.17 389.28,-615.17 383.28,-615.17 377.28,-609.17 377.28,-603.17 377.28,-603.17 377.28,-543.17 377.28,-543.17 377.28,-537.17 383.28,-531.17 389.28,-531.17"/>
<text text-anchor="middle" x="463.41" y="-603.07" font-family="Helvetica,sans-Serif" font-weight="bold" font-size="9.00">init</text>
</g>
<g id="clust12" class="cluster">
<title>cluster_client/src/logic</title>
<path fill="#ffffff" stroke="black" stroke-width="2" d="M204.02,-63.17C204.02,-63.17 467.53,-63.17 467.53,-63.17 473.53,-63.17 479.53,-69.17 479.53,-75.17 479.53,-75.17 479.53,-166.17 479.53,-166.17 479.53,-172.17 473.53,-178.17 467.53,-178.17 467.53,-178.17 204.02,-178.17 204.02,-178.17 198.02,-178.17 192.02,-172.17 192.02,-166.17 192.02,-166.17 192.02,-75.17 192.02,-75.17 192.02,-69.17 198.02,-63.17 204.02,-63.17"/>
<text text-anchor="middle" x="335.78" y="-166.07" font-family="Helvetica,sans-Serif" font-weight="bold" font-size="9.00">logic</text>
</g>
<!-- client/src/components/layout/footer.js -->
<g id="node1" class="node">
<title>client/src/components/layout/footer.js</title>
<g id="a_node1"><a xlink:href="../client/src/components/layout/footer.js" xlink:title="footer.js">
<path fill="#ffffcc" stroke="black" d="M290.82,-220.47C290.82,-220.47 249.22,-220.47 249.22,-220.47 246.12,-220.47 243.02,-217.37 243.02,-214.27 243.02,-214.27 243.02,-208.07 243.02,-208.07 243.02,-204.97 246.12,-201.87 249.22,-201.87 249.22,-201.87 290.82,-201.87 290.82,-201.87 293.92,-201.87 297.02,-204.97 297.02,-208.07 297.02,-208.07 297.02,-214.27 297.02,-214.27 297.02,-217.37 293.92,-220.47 290.82,-220.47"/>
<text text-anchor="middle" x="270.02" y="-208.47" font-family="Helvetica,sans-Serif" font-size="9.00">footer.js</text>
</a>
</g>
</g>
<!-- client/src/components/layout/navbar.js -->
<g id="node2" class="node">
<title>client/src/components/layout/navbar.js</title>
<g id="a_node2"><a xlink:href="../client/src/components/layout/navbar.js" xlink:title="navbar.js">
<path fill="#ffffcc" stroke="black" d="M290.82,-251.47C290.82,-251.47 249.22,-251.47 249.22,-251.47 246.12,-251.47 243.02,-248.37 243.02,-245.27 243.02,-245.27 243.02,-239.07 243.02,-239.07 243.02,-235.97 246.12,-232.87 249.22,-232.87 249.22,-232.87 290.82,-232.87 290.82,-232.87 293.92,-232.87 297.02,-235.97 297.02,-239.07 297.02,-239.07 297.02,-245.27 297.02,-245.27 297.02,-248.37 293.92,-251.47 290.82,-251.47"/>
<text text-anchor="middle" x="270.02" y="-239.47" font-family="Helvetica,sans-Serif" font-size="9.00">navbar.js</text>
</a>
</g>
</g>
<!-- client/src/components/layout/page.js -->
<g id="node3" class="node">
<title>client/src/components/layout/page.js</title>
<g id="a_node3"><a xlink:href="../client/src/components/layout/page.js" xlink:title="page.js">
<path fill="#ffffcc" stroke="black" d="M159.81,-251.47C159.81,-251.47 118.21,-251.47 118.21,-251.47 115.11,-251.47 112.01,-248.37 112.01,-245.27 112.01,-245.27 112.01,-239.07 112.01,-239.07 112.01,-235.97 115.11,-232.87 118.21,-232.87 118.21,-232.87 159.81,-232.87 159.81,-232.87 162.91,-232.87 166.01,-235.97 166.01,-239.07 166.01,-239.07 166.01,-245.27 166.01,-245.27 166.01,-248.37 162.91,-251.47 159.81,-251.47"/>
<text text-anchor="middle" x="139.01" y="-239.47" font-family="Helvetica,sans-Serif" font-size="9.00">page.js</text>
</a>
</g>
</g>
<!-- client/src/components/layout/page.js&#45;&gt;client/src/components/layout/footer.js -->
<g id="edge1" class="edge">
<title>client/src/components/layout/page.js&#45;&gt;client/src/components/layout/footer.js</title>
<path fill="none" stroke="#000000" stroke-width="2" stroke-opacity="0.200000" d="M166.1,-234.22C174.35,-231.82 183.54,-229.27 192.02,-227.17 206.62,-223.55 222.91,-220.09 236.73,-217.31"/>
<polygon fill="#000000" fill-opacity="0.200000" stroke="#000000" stroke-width="2" stroke-opacity="0.200000" points="237.42,-219.32 242.89,-216.09 236.6,-215.2 237.42,-219.32"/>
</g>
<!-- client/src/components/layout/page.js&#45;&gt;client/src/components/layout/navbar.js -->
<g id="edge2" class="edge">
<title>client/src/components/layout/page.js&#45;&gt;client/src/components/layout/navbar.js</title>
<path fill="none" stroke="#000000" stroke-width="2" stroke-opacity="0.200000" d="M166.12,-242.17C186.49,-242.17 214.9,-242.17 236.7,-242.17"/>
<polygon fill="#000000" fill-opacity="0.200000" stroke="#000000" stroke-width="2" stroke-opacity="0.200000" points="236.96,-244.27 242.96,-242.17 236.96,-240.07 236.96,-244.27"/>
</g>
<!-- client/src/components/layout/table.js -->
<g id="node4" class="node">
<title>client/src/components/layout/table.js</title>
<g id="a_node4"><a xlink:href="../client/src/components/layout/table.js" xlink:title="table.js">
<path fill="#ffffcc" stroke="black" d="M159.81,-220.47C159.81,-220.47 118.21,-220.47 118.21,-220.47 115.11,-220.47 112.01,-217.37 112.01,-214.27 112.01,-214.27 112.01,-208.07 112.01,-208.07 112.01,-204.97 115.11,-201.87 118.21,-201.87 118.21,-201.87 159.81,-201.87 159.81,-201.87 162.91,-201.87 166.01,-204.97 166.01,-208.07 166.01,-208.07 166.01,-214.27 166.01,-214.27 166.01,-217.37 162.91,-220.47 159.81,-220.47"/>
<text text-anchor="middle" x="139.01" y="-208.47" font-family="Helvetica,sans-Serif" font-size="9.00">table.js</text>
</a>
</g>
</g>
<!-- client/src/logic/camelCaseToTitleCase.js -->
<g id="node5" class="node">
<title>client/src/logic/camelCaseToTitleCase.js</title>
<g id="a_node5"><a xlink:href="../client/src/logic/camelCaseToTitleCase.js" xlink:title="camelCaseToTitleCase.js">
<path fill="#ffffcc" stroke="black" d="M465.08,-89.47C465.08,-89.47 359.48,-89.47 359.48,-89.47 356.38,-89.47 353.28,-86.37 353.28,-83.27 353.28,-83.27 353.28,-77.07 353.28,-77.07 353.28,-73.97 356.38,-70.87 359.48,-70.87 359.48,-70.87 465.08,-70.87 465.08,-70.87 468.18,-70.87 471.28,-73.97 471.28,-77.07 471.28,-77.07 471.28,-83.27 471.28,-83.27 471.28,-86.37 468.18,-89.47 465.08,-89.47"/>
<text text-anchor="middle" x="412.28" y="-77.47" font-family="Helvetica,sans-Serif" font-size="9.00">camelCaseToTitleCase.js</text>
</a>
</g>
</g>
<!-- client/src/components/layout/table.js&#45;&gt;client/src/logic/camelCaseToTitleCase.js -->
<g id="edge3" class="edge">
<title>client/src/components/layout/table.js&#45;&gt;client/src/logic/camelCaseToTitleCase.js</title>
<path fill="none" stroke="#000000" stroke-width="2" stroke-opacity="0.200000" d="M166.36,-208.81C173.09,-206.91 179.66,-203.66 184.02,-198.17 202.45,-174.99 170.46,-85.47 192.02,-65.17 215.97,-42.62 307.31,-61.76 340.03,-65.17 345.18,-65.7 354.33,-67.43 364.39,-69.54"/>
<polygon fill="#000000" fill-opacity="0.200000" stroke="#000000" stroke-width="2" stroke-opacity="0.200000" points="364.09,-71.62 370.4,-70.81 364.97,-67.51 364.09,-71.62"/>
</g>
<!-- client/src/components/pages/home/index.js -->
<g id="node6" class="node">
<title>client/src/components/pages/home/index.js</title>
<g id="a_node6"><a xlink:href="../client/src/components/pages/home/index.js" xlink:title="index.js">
<path fill="#ffffcc" stroke="black" d="M159.81,-320.47C159.81,-320.47 118.21,-320.47 118.21,-320.47 115.11,-320.47 112.01,-317.37 112.01,-314.27 112.01,-314.27 112.01,-308.07 112.01,-308.07 112.01,-304.97 115.11,-301.87 118.21,-301.87 118.21,-301.87 159.81,-301.87 159.81,-301.87 162.91,-301.87 166.01,-304.97 166.01,-308.07 166.01,-308.07 166.01,-314.27 166.01,-314.27 166.01,-317.37 162.91,-320.47 159.81,-320.47"/>
<text text-anchor="middle" x="139.01" y="-308.47" font-family="Helvetica,sans-Serif" font-size="9.00">index.js</text>
</a>
</g>
</g>
<!-- client/src/handlers/start&#45;quiz.js -->
<g id="node7" class="node">
<title>client/src/handlers/start&#45;quiz.js</title>
<g id="a_node7"><a xlink:href="../client/src/handlers/start-quiz.js" xlink:title="start&#45;quiz.js">
<path fill="#ffffcc" stroke="black" d="M163.81,-619.47C163.81,-619.47 114.21,-619.47 114.21,-619.47 111.11,-619.47 108.01,-616.37 108.01,-613.27 108.01,-613.27 108.01,-607.07 108.01,-607.07 108.01,-603.97 111.11,-600.87 114.21,-600.87 114.21,-600.87 163.81,-600.87 163.81,-600.87 166.91,-600.87 170.01,-603.97 170.01,-607.07 170.01,-607.07 170.01,-613.27 170.01,-613.27 170.01,-616.37 166.91,-619.47 163.81,-619.47"/>
<text text-anchor="middle" x="139.01" y="-607.47" font-family="Helvetica,sans-Serif" font-size="9.00">start&#45;quiz.js</text>
</a>
</g>
</g>
<!-- client/src/components/pages/home/index.js&#45;&gt;client/src/handlers/start&#45;quiz.js -->
<g id="edge4" class="edge">
<title>client/src/components/pages/home/index.js&#45;&gt;client/src/handlers/start&#45;quiz.js</title>
<path fill="none" stroke="#000000" stroke-width="2" stroke-opacity="0.200000" d="M118.01,-320.62C104,-328.36 87.24,-340.86 82,-358.17 78.3,-370.4 78.3,-575.94 82,-588.17 84.01,-594.8 88.7,-599.48 94.58,-602.77"/>
<polygon fill="#000000" fill-opacity="0.200000" stroke="#000000" stroke-width="2" stroke-opacity="0.200000" points="101.48,-607.61 107.83,-607.76 102.96,-603.68 101.48,-607.61"/>
<polyline fill="none" stroke="#000000" stroke-width="2" stroke-opacity="0.200000" points="102.22,-605.65 99.41,-604.59 "/>
<ellipse fill="none" stroke="#000000" stroke-width="2" stroke-opacity="0.200000" cx="97.16" cy="-603.74" rx="2.4" ry="2.4"/>
</g>
<!-- client/src/components/shared/button.js -->
<g id="node8" class="node">
<title>client/src/components/shared/button.js</title>
<g id="a_node8"><a xlink:href="../client/src/components/shared/button.js" xlink:title="button.js">
<path fill="#ffffcc" stroke="black" d="M290.82,-376.47C290.82,-376.47 249.22,-376.47 249.22,-376.47 246.12,-376.47 243.02,-373.37 243.02,-370.27 243.02,-370.27 243.02,-364.07 243.02,-364.07 243.02,-360.97 246.12,-357.87 249.22,-357.87 249.22,-357.87 290.82,-357.87 290.82,-357.87 293.92,-357.87 297.02,-360.97 297.02,-364.07 297.02,-364.07 297.02,-370.27 297.02,-370.27 297.02,-373.37 293.92,-376.47 290.82,-376.47"/>
<text text-anchor="middle" x="270.02" y="-364.47" font-family="Helvetica,sans-Serif" font-size="9.00">button.js</text>
</a>
</g>
</g>
<!-- client/src/components/pages/home/index.js&#45;&gt;client/src/components/shared/button.js -->
<g id="edge5" class="edge">
<title>client/src/components/pages/home/index.js&#45;&gt;client/src/components/shared/button.js</title>
<path fill="none" stroke="#000000" stroke-width="2" stroke-opacity="0.200000" d="M161.6,-320.54C183.65,-330.11 217.94,-344.99 241.83,-355.36"/>
<polygon fill="#000000" fill-opacity="0.200000" stroke="#000000" stroke-width="2" stroke-opacity="0.200000" points="241.02,-357.3 247.36,-357.76 242.69,-353.45 241.02,-357.3"/>
</g>
<!-- client/src/components/shared/title&#45;description.js -->
<g id="node9" class="node">
<title>client/src/components/shared/title&#45;description.js</title>
<g id="a_node9"><a xlink:href="../client/src/components/shared/title-description.js" xlink:title="title&#45;description.js">
<path fill="#ffffcc" stroke="black" d="M448.58,-438.47C448.58,-438.47 375.98,-438.47 375.98,-438.47 372.88,-438.47 369.78,-435.37 369.78,-432.27 369.78,-432.27 369.78,-426.07 369.78,-426.07 369.78,-422.97 372.88,-419.87 375.98,-419.87 375.98,-419.87 448.58,-419.87 448.58,-419.87 451.68,-419.87 454.78,-422.97 454.78,-426.07 454.78,-426.07 454.78,-432.27 454.78,-432.27 454.78,-435.37 451.68,-438.47 448.58,-438.47"/>
<text text-anchor="middle" x="412.28" y="-426.47" font-family="Helvetica,sans-Serif" font-size="9.00">title&#45;description.js</text>
</a>
</g>
</g>
<!-- client/src/components/pages/home/index.js&#45;&gt;client/src/components/shared/title&#45;description.js -->
<g id="edge6" class="edge">
<title>client/src/components/pages/home/index.js&#45;&gt;client/src/components/shared/title&#45;description.js</title>
<path fill="none" stroke="#000000" stroke-width="2" stroke-opacity="0.200000" d="M166.07,-311.51C206.01,-313.09 283.67,-320.41 340.03,-352.17 367.35,-367.56 390.15,-397.08 402.15,-414.76"/>
<polygon fill="#000000" fill-opacity="0.200000" stroke="#000000" stroke-width="2" stroke-opacity="0.200000" points="400.46,-416 405.53,-419.84 403.96,-413.68 400.46,-416"/>
</g>
<!-- client/src/init/state.js -->
<g id="node14" class="node">
<title>client/src/init/state.js</title>
<g id="a_node14"><a xlink:href="../client/src/init/state.js" xlink:title="state.js">
<path fill="#ffffcc" stroke="black" d="M433.08,-588.47C433.08,-588.47 391.48,-588.47 391.48,-588.47 388.38,-588.47 385.28,-585.37 385.28,-582.27 385.28,-582.27 385.28,-576.07 385.28,-576.07 385.28,-572.97 388.38,-569.87 391.48,-569.87 391.48,-569.87 433.08,-569.87 433.08,-569.87 436.18,-569.87 439.28,-572.97 439.28,-576.07 439.28,-576.07 439.28,-582.27 439.28,-582.27 439.28,-585.37 436.18,-588.47 433.08,-588.47"/>
<text text-anchor="middle" x="412.28" y="-576.47" font-family="Helvetica,sans-Serif" font-size="9.00">state.js</text>
</a>
</g>
</g>
<!-- client/src/handlers/start&#45;quiz.js&#45;&gt;client/src/init/state.js -->
<g id="edge30" class="edge">
<title>client/src/handlers/start&#45;quiz.js&#45;&gt;client/src/init/state.js</title>
<path fill="none" stroke="#000000" stroke-width="2" stroke-opacity="0.200000" d="M170.2,-601.19C174.99,-599.21 179.77,-596.88 184.02,-594.17 188.26,-591.47 187.41,-588.17 192.02,-586.17 224.6,-572.06 326,-574.79 378.71,-577.31"/>
<polygon fill="#000000" fill-opacity="0.200000" stroke="#000000" stroke-width="2" stroke-opacity="0.200000" points="378.8,-579.42 384.89,-577.62 379,-575.22 378.8,-579.42"/>
</g>
<!-- client/src/init/router.js -->
<g id="node22" class="node">
<title>client/src/init/router.js</title>
<g id="a_node22"><a xlink:href="../client/src/init/router.js" xlink:title="router.js">
<path fill="#ffffcc" stroke="black" d="M535.33,-572.47C535.33,-572.47 493.73,-572.47 493.73,-572.47 490.63,-572.47 487.53,-569.37 487.53,-566.27 487.53,-566.27 487.53,-560.07 487.53,-560.07 487.53,-556.97 490.63,-553.87 493.73,-553.87 493.73,-553.87 535.33,-553.87 535.33,-553.87 538.43,-553.87 541.53,-556.97 541.53,-560.07 541.53,-560.07 541.53,-566.27 541.53,-566.27 541.53,-569.37 538.43,-572.47 535.33,-572.47"/>
<text text-anchor="middle" x="514.53" y="-560.47" font-family="Helvetica,sans-Serif" font-size="9.00">router.js</text>
</a>
</g>
</g>
<!-- client/src/handlers/start&#45;quiz.js&#45;&gt;client/src/init/router.js -->
<g id="edge29" class="edge">
<title>client/src/handlers/start&#45;quiz.js&#45;&gt;client/src/init/router.js</title>
<path fill="none" stroke="#000000" stroke-width="2" stroke-opacity="0.200000" d="M170.39,-618.52C232.64,-633.84 377.41,-660.2 479.53,-606.17 488.69,-601.32 496.22,-592.81 501.83,-584.64"/>
<polygon fill="#000000" fill-opacity="0.200000" stroke="#000000" stroke-width="2" stroke-opacity="0.200000" points="507.76,-578.86 509.06,-572.64 504.16,-576.69 507.76,-578.86"/>
<polyline fill="none" stroke="#000000" stroke-width="2" stroke-opacity="0.200000" points="505.96,-577.78 504.41,-580.35 "/>
<ellipse fill="none" stroke="#000000" stroke-width="2" stroke-opacity="0.200000" cx="503.18" cy="-582.4" rx="2.4" ry="2.4"/>
</g>
<!-- client/src/components/pages/questions/index.js -->
<g id="node10" class="node">
<title>client/src/components/pages/questions/index.js</title>
<g id="a_node10"><a xlink:href="../client/src/components/pages/questions/index.js" xlink:title="index.js">
<path fill="#ffffcc" stroke="black" d="M159.81,-381.47C159.81,-381.47 118.21,-381.47 118.21,-381.47 115.11,-381.47 112.01,-378.37 112.01,-375.27 112.01,-375.27 112.01,-369.07 112.01,-369.07 112.01,-365.97 115.11,-362.87 118.21,-362.87 118.21,-362.87 159.81,-362.87 159.81,-362.87 162.91,-362.87 166.01,-365.97 166.01,-369.07 166.01,-369.07 166.01,-375.27 166.01,-375.27 166.01,-378.37 162.91,-381.47 159.81,-381.47"/>
<text text-anchor="middle" x="139.01" y="-369.47" font-family="Helvetica,sans-Serif" font-size="9.00">index.js</text>
</a>
</g>
</g>
<!-- client/src/components/shared/input&#45;greeting.js -->
<g id="node11" class="node">
<title>client/src/components/shared/input&#45;greeting.js</title>
<g id="a_node11"><a xlink:href="../client/src/components/shared/input-greeting.js" xlink:title="input&#45;greeting.js">
<path fill="#ffffcc" stroke="black" d="M303.84,-407.47C303.84,-407.47 236.21,-407.47 236.21,-407.47 233.11,-407.47 230.01,-404.37 230.01,-401.27 230.01,-401.27 230.01,-395.07 230.01,-395.07 230.01,-391.97 233.11,-388.87 236.21,-388.87 236.21,-388.87 303.84,-388.87 303.84,-388.87 306.94,-388.87 310.04,-391.97 310.04,-395.07 310.04,-395.07 310.04,-401.27 310.04,-401.27 310.04,-404.37 306.94,-407.47 303.84,-407.47"/>
<text text-anchor="middle" x="270.02" y="-395.47" font-family="Helvetica,sans-Serif" font-size="9.00">input&#45;greeting.js</text>
</a>
</g>
</g>
<!-- client/src/components/pages/questions/index.js&#45;&gt;client/src/components/shared/input&#45;greeting.js -->
<g id="edge7" class="edge">
<title>client/src/components/pages/questions/index.js&#45;&gt;client/src/components/shared/input&#45;greeting.js</title>
<path fill="none" stroke="#000000" stroke-width="2" stroke-opacity="0.200000" d="M166.12,-377.43C182.67,-380.76 204.52,-385.17 223.82,-389.06"/>
<polygon fill="#000000" fill-opacity="0.200000" stroke="#000000" stroke-width="2" stroke-opacity="0.200000" points="223.43,-391.12 229.72,-390.25 224.26,-387 223.43,-391.12"/>
</g>
<!-- client/src/components/shared/input&#45;greeting.js&#45;&gt;client/src/init/state.js -->
<g id="edge15" class="edge">
<title>client/src/components/shared/input&#45;greeting.js&#45;&gt;client/src/init/state.js</title>
<path fill="none" stroke="#000000" stroke-width="2" stroke-opacity="0.200000" d="M310.21,-398.86C321.37,-401.06 332.53,-405.53 340.03,-414.17 361.82,-439.27 331.75,-537.64 353.03,-563.17 359.48,-570.91 369.29,-575.09 379.03,-577.3"/>
<polygon fill="#000000" fill-opacity="0.200000" stroke="#000000" stroke-width="2" stroke-opacity="0.200000" points="378.77,-579.39 385.06,-578.43 379.55,-575.26 378.77,-579.39"/>
</g>
<!-- client/src/handlers/change&#45;greeting.js -->
<g id="node18" class="node">
<title>client/src/handlers/change&#45;greeting.js</title>
<g id="a_node18"><a xlink:href="../client/src/handlers/change-greeting.js" xlink:title="change&#45;greeting.js">
<path fill="#ffffcc" stroke="black" d="M177.83,-557.47C177.83,-557.47 100.19,-557.47 100.19,-557.47 97.09,-557.47 93.99,-554.37 93.99,-551.27 93.99,-551.27 93.99,-545.07 93.99,-545.07 93.99,-541.97 97.09,-538.87 100.19,-538.87 100.19,-538.87 177.83,-538.87 177.83,-538.87 180.93,-538.87 184.03,-541.97 184.03,-545.07 184.03,-545.07 184.03,-551.27 184.03,-551.27 184.03,-554.37 180.93,-557.47 177.83,-557.47"/>
<text text-anchor="middle" x="139.01" y="-545.47" font-family="Helvetica,sans-Serif" font-size="9.00">change&#45;greeting.js</text>
</a>
</g>
</g>
<!-- client/src/components/shared/input&#45;greeting.js&#45;&gt;client/src/handlers/change&#45;greeting.js -->
<g id="edge14" class="edge">
<title>client/src/components/shared/input&#45;greeting.js&#45;&gt;client/src/handlers/change&#45;greeting.js</title>
<path fill="none" stroke="#000000" stroke-width="2" stroke-opacity="0.200000" d="M229.67,-397.47C215.96,-399.3 201.62,-403.89 192.02,-414.17 183.14,-423.68 188.25,-459.86 184.02,-472.17 176.16,-495.03 161.16,-518.72 150.87,-533.45"/>
<polygon fill="#000000" fill-opacity="0.200000" stroke="#000000" stroke-width="2" stroke-opacity="0.200000" points="149.08,-532.34 147.32,-538.45 152.51,-534.78 149.08,-532.34"/>
</g>
<!-- client/src/logic/reverse.js -->
<g id="node19" class="node">
<title>client/src/logic/reverse.js</title>
<g id="a_node19"><a xlink:href="../client/src/logic/reverse.js" xlink:title="reverse.js">
<path fill="#ffffcc" stroke="black" d="M433.58,-151.47C433.58,-151.47 390.98,-151.47 390.98,-151.47 387.88,-151.47 384.78,-148.37 384.78,-145.27 384.78,-145.27 384.78,-139.07 384.78,-139.07 384.78,-135.97 387.88,-132.87 390.98,-132.87 390.98,-132.87 433.58,-132.87 433.58,-132.87 436.68,-132.87 439.78,-135.97 439.78,-139.07 439.78,-139.07 439.78,-145.27 439.78,-145.27 439.78,-148.37 436.68,-151.47 433.58,-151.47"/>
<text text-anchor="middle" x="412.28" y="-139.47" font-family="Helvetica,sans-Serif" font-size="9.00">reverse.js</text>
</a>
</g>
</g>
<!-- client/src/components/shared/input&#45;greeting.js&#45;&gt;client/src/logic/reverse.js -->
<g id="edge16" class="edge">
<title>client/src/components/shared/input&#45;greeting.js&#45;&gt;client/src/logic/reverse.js</title>
<path fill="none" stroke="#000000" stroke-width="2" stroke-opacity="0.200000" d="M310.27,-396.28C321.05,-393.98 331.97,-389.75 340.03,-382.17 344.31,-378.14 392.18,-209.72 406.96,-157.47"/>
<polygon fill="#000000" fill-opacity="0.200000" stroke="#000000" stroke-width="2" stroke-opacity="0.200000" points="408.98,-158.03 408.59,-151.69 404.94,-156.89 408.98,-158.03"/>
</g>
<!-- client/src/components/pages/quiz/index.js -->
<g id="node12" class="node">
<title>client/src/components/pages/quiz/index.js</title>
<g id="a_node12"><a xlink:href="../client/src/components/pages/quiz/index.js" xlink:title="index.js">
<path fill="#ffffcc" stroke="black" d="M159.81,-442.47C159.81,-442.47 118.21,-442.47 118.21,-442.47 115.11,-442.47 112.01,-439.37 112.01,-436.27 112.01,-436.27 112.01,-430.07 112.01,-430.07 112.01,-426.97 115.11,-423.87 118.21,-423.87 118.21,-423.87 159.81,-423.87 159.81,-423.87 162.91,-423.87 166.01,-426.97 166.01,-430.07 166.01,-430.07 166.01,-436.27 166.01,-436.27 166.01,-439.37 162.91,-442.47 159.81,-442.47"/>
<text text-anchor="middle" x="139.01" y="-430.47" font-family="Helvetica,sans-Serif" font-size="9.00">index.js</text>
</a>
</g>
</g>
<!-- client/src/components/pages/quiz/index.js&#45;&gt;client/src/components/shared/button.js -->
<g id="edge11" class="edge">
<title>client/src/components/pages/quiz/index.js&#45;&gt;client/src/components/shared/button.js</title>
<path fill="none" stroke="#000000" stroke-width="2" stroke-opacity="0.200000" d="M166.25,-424.43C172.82,-421.16 179.33,-416.82 184.02,-411.17 192.29,-401.21 182.54,-391.98 192.02,-383.17 203.84,-372.19 221.14,-367.94 236.36,-366.54"/>
<polygon fill="#000000" fill-opacity="0.200000" stroke="#000000" stroke-width="2" stroke-opacity="0.200000" points="236.88,-368.61 242.73,-366.1 236.6,-364.42 236.88,-368.61"/>
</g>
<!-- client/src/handlers/nextQuestion.js -->
<g id="node13" class="node">
<title>client/src/handlers/nextQuestion.js</title>
<g id="a_node13"><a xlink:href="../client/src/handlers/nextQuestion.js" xlink:title="nextQuestion.js">
<path fill="#ffffcc" stroke="black" d="M171.83,-588.47C171.83,-588.47 106.19,-588.47 106.19,-588.47 103.09,-588.47 99.99,-585.37 99.99,-582.27 99.99,-582.27 99.99,-576.07 99.99,-576.07 99.99,-572.97 103.09,-569.87 106.19,-569.87 106.19,-569.87 171.83,-569.87 171.83,-569.87 174.93,-569.87 178.03,-572.97 178.03,-576.07 178.03,-576.07 178.03,-582.27 178.03,-582.27 178.03,-585.37 174.93,-588.47 171.83,-588.47"/>
<text text-anchor="middle" x="139.01" y="-576.47" font-family="Helvetica,sans-Serif" font-size="9.00">nextQuestion.js</text>
</a>
</g>
</g>
<!-- client/src/components/pages/quiz/index.js&#45;&gt;client/src/handlers/nextQuestion.js -->
<g id="edge8" class="edge">
<title>client/src/components/pages/quiz/index.js&#45;&gt;client/src/handlers/nextQuestion.js</title>
<path fill="none" stroke="#000000" stroke-width="2" stroke-opacity="0.200000" d="M131.33,-442.74C118.14,-459.85 91.67,-497.36 82,-534.17 78.69,-546.75 75.55,-555.42 86,-563.17 86.52,-563.56 87.05,-563.93 87.59,-564.3"/>
<polygon fill="#000000" fill-opacity="0.200000" stroke="#000000" stroke-width="2" stroke-opacity="0.200000" points="93.58,-569.84 99.87,-570.78 95.54,-566.12 93.58,-569.84"/>
<polyline fill="none" stroke="#000000" stroke-width="2" stroke-opacity="0.200000" points="94.56,-567.98 91.91,-566.58 "/>
<ellipse fill="none" stroke="#000000" stroke-width="2" stroke-opacity="0.200000" cx="89.79" cy="-565.46" rx="2.4" ry="2.4"/>
</g>
<!-- client/src/components/pages/quiz/index.js&#45;&gt;client/src/init/state.js -->
<g id="edge9" class="edge">
<title>client/src/components/pages/quiz/index.js&#45;&gt;client/src/init/state.js</title>
<path fill="none" stroke="#000000" stroke-width="2" stroke-opacity="0.200000" d="M144.6,-442.57C152.27,-457.2 169.11,-485.17 192.02,-499.17 249.22,-534.12 288.95,-484.76 340.03,-528.17 352.67,-538.91 340.79,-551.96 353.03,-563.17 360.2,-569.74 369.81,-573.64 379.16,-575.96"/>
<polygon fill="#000000" fill-opacity="0.200000" stroke="#000000" stroke-width="2" stroke-opacity="0.200000" points="378.93,-578.06 385.24,-577.26 379.81,-573.95 378.93,-578.06"/>
</g>
<!-- client/src/logic/progress&#45;bar.js -->
<g id="node15" class="node">
<title>client/src/logic/progress&#45;bar.js</title>
<g id="a_node15"><a xlink:href="../client/src/logic/progress-bar.js" xlink:title="progress&#45;bar.js">
<path fill="#ffffcc" stroke="black" d="M301.82,-151.47C301.82,-151.47 238.22,-151.47 238.22,-151.47 235.12,-151.47 232.02,-148.37 232.02,-145.27 232.02,-145.27 232.02,-139.07 232.02,-139.07 232.02,-135.97 235.12,-132.87 238.22,-132.87 238.22,-132.87 301.82,-132.87 301.82,-132.87 304.93,-132.87 308.03,-135.97 308.03,-139.07 308.03,-139.07 308.03,-145.27 308.03,-145.27 308.03,-148.37 304.93,-151.47 301.82,-151.47"/>
<text text-anchor="middle" x="270.02" y="-139.47" font-family="Helvetica,sans-Serif" font-size="9.00">progress&#45;bar.js</text>
</a>
</g>
</g>
<!-- client/src/components/pages/quiz/index.js&#45;&gt;client/src/logic/progress&#45;bar.js -->
<g id="edge10" class="edge">
<title>client/src/components/pages/quiz/index.js&#45;&gt;client/src/logic/progress&#45;bar.js</title>
<path fill="none" stroke="#000000" stroke-width="2" stroke-opacity="0.200000" d="M166.29,-425.58C173.2,-422.28 179.87,-417.64 184.02,-411.17 198.72,-388.24 175.52,-187.84 192.02,-166.17 200.18,-155.44 213.1,-149.39 226.03,-146.01"/>
<polygon fill="#000000" fill-opacity="0.200000" stroke="#000000" stroke-width="2" stroke-opacity="0.200000" points="226.59,-148.04 231.96,-144.64 225.64,-143.95 226.59,-148.04"/>
</g>
<!-- client/src/components/shared/progress&#45;bar.js -->
<g id="node16" class="node">
<title>client/src/components/shared/progress&#45;bar.js</title>
<g id="a_node16"><a xlink:href="../client/src/components/shared/progress-bar.js" xlink:title="progress&#45;bar.js">
<path fill="#ffffcc" stroke="black" d="M301.82,-438.47C301.82,-438.47 238.22,-438.47 238.22,-438.47 235.12,-438.47 232.02,-435.37 232.02,-432.27 232.02,-432.27 232.02,-426.07 232.02,-426.07 232.02,-422.97 235.12,-419.87 238.22,-419.87 238.22,-419.87 301.82,-419.87 301.82,-419.87 304.93,-419.87 308.03,-422.97 308.03,-426.07 308.03,-426.07 308.03,-432.27 308.03,-432.27 308.03,-435.37 304.93,-438.47 301.82,-438.47"/>
<text text-anchor="middle" x="270.02" y="-426.47" font-family="Helvetica,sans-Serif" font-size="9.00">progress&#45;bar.js</text>
</a>
</g>
</g>
<!-- client/src/components/pages/quiz/index.js&#45;&gt;client/src/components/shared/progress&#45;bar.js -->
<g id="edge12" class="edge">
<title>client/src/components/pages/quiz/index.js&#45;&gt;client/src/components/shared/progress&#45;bar.js</title>
<path fill="none" stroke="#000000" stroke-width="2" stroke-opacity="0.200000" d="M166.12,-432.36C183.2,-431.83 205.93,-431.12 225.68,-430.51"/>
<polygon fill="#000000" fill-opacity="0.200000" stroke="#000000" stroke-width="2" stroke-opacity="0.200000" points="225.78,-432.61 231.71,-430.33 225.65,-428.41 225.78,-432.61"/>
</g>
<!-- client/src/components/shared/questionWithOptions.js -->
<g id="node17" class="node">
<title>client/src/components/shared/questionWithOptions.js</title>
<g id="a_node17"><a xlink:href="../client/src/components/shared/questionWithOptions.js" xlink:title="questionWithOptions.js">
<path fill="#ffffcc" stroke="black" d="M317.84,-469.47C317.84,-469.47 222.21,-469.47 222.21,-469.47 219.11,-469.47 216.01,-466.37 216.01,-463.27 216.01,-463.27 216.01,-457.07 216.01,-457.07 216.01,-453.97 219.11,-450.87 222.21,-450.87 222.21,-450.87 317.84,-450.87 317.84,-450.87 320.94,-450.87 324.04,-453.97 324.04,-457.07 324.04,-457.07 324.04,-463.27 324.04,-463.27 324.04,-466.37 320.94,-469.47 317.84,-469.47"/>
<text text-anchor="middle" x="270.02" y="-457.47" font-family="Helvetica,sans-Serif" font-size="9.00">questionWithOptions.js</text>
</a>
</g>
</g>
<!-- client/src/components/pages/quiz/index.js&#45;&gt;client/src/components/shared/questionWithOptions.js -->
<g id="edge13" class="edge">
<title>client/src/components/pages/quiz/index.js&#45;&gt;client/src/components/shared/questionWithOptions.js</title>
<path fill="none" stroke="#000000" stroke-width="2" stroke-opacity="0.200000" d="M166.2,-438.73C174.46,-440.47 183.62,-442.41 192.02,-444.17 200.38,-445.92 209.25,-447.77 217.89,-449.57"/>
<polygon fill="#000000" fill-opacity="0.200000" stroke="#000000" stroke-width="2" stroke-opacity="0.200000" points="217.52,-451.64 223.82,-450.8 218.37,-447.53 217.52,-451.64"/>
</g>
<!-- client/src/handlers/nextQuestion.js&#45;&gt;client/src/components/layout/table.js -->
<g id="edge23" class="edge">
<title>client/src/handlers/nextQuestion.js&#45;&gt;client/src/components/layout/table.js</title>
<path fill="none" stroke="#000000" stroke-width="2" stroke-opacity="0.200000" d="M99.88,-574.27C91.61,-571 84.58,-565.7 82,-557.17 76.78,-539.94 76.78,-250.4 82,-233.17 85.19,-222.63 95.16,-217.02 105.9,-214.08"/>
<polygon fill="#000000" fill-opacity="0.200000" stroke="#000000" stroke-width="2" stroke-opacity="0.200000" points="106.52,-216.09 111.9,-212.7 105.58,-211.99 106.52,-216.09"/>
</g>
<!-- client/src/handlers/nextQuestion.js&#45;&gt;client/src/components/shared/button.js -->
<g id="edge24" class="edge">
<title>client/src/handlers/nextQuestion.js&#45;&gt;client/src/components/shared/button.js</title>
<path fill="none" stroke="#000000" stroke-width="2" stroke-opacity="0.200000" d="M177.02,-569.82C179.7,-567.98 182.1,-565.79 184.02,-563.17 195.87,-547.03 179.04,-398.41 192.02,-383.17 202.8,-370.5 220.76,-366.27 236.62,-365.31"/>
<polygon fill="#000000" fill-opacity="0.200000" stroke="#000000" stroke-width="2" stroke-opacity="0.200000" points="236.89,-367.4 242.81,-365.09 236.74,-363.2 236.89,-367.4"/>
</g>
<!-- client/src/handlers/nextQuestion.js&#45;&gt;client/src/components/shared/title&#45;description.js -->
<g id="edge26" class="edge">
<title>client/src/handlers/nextQuestion.js&#45;&gt;client/src/components/shared/title&#45;description.js</title>
<path fill="none" stroke="#000000" stroke-width="2" stroke-opacity="0.200000" d="M168.23,-569.69C173.54,-567.69 179,-565.48 184.02,-563.17 256.34,-529.9 286.76,-534.33 340.03,-475.17 349.75,-464.37 342.06,-454.7 353.03,-445.17 356.3,-442.33 360.02,-439.99 363.97,-438.07"/>
<polygon fill="#000000" fill-opacity="0.200000" stroke="#000000" stroke-width="2" stroke-opacity="0.200000" points="364.81,-440 369.48,-435.69 363.14,-436.14 364.81,-440"/>
</g>
<!-- client/src/handlers/nextQuestion.js&#45;&gt;client/src/init/state.js -->
<g id="edge27" class="edge">
<title>client/src/handlers/nextQuestion.js&#45;&gt;client/src/init/state.js</title>
<path fill="none" stroke="#000000" stroke-width="2" stroke-opacity="0.200000" d="M178.05,-575.9C182.75,-575.6 187.49,-575.34 192.02,-575.17 257.75,-572.64 274.27,-573.32 340.03,-575.17 352.79,-575.53 366.82,-576.24 379.03,-576.97"/>
<polygon fill="#000000" fill-opacity="0.200000" stroke="#000000" stroke-width="2" stroke-opacity="0.200000" points="379.12,-579.08 385.24,-577.36 379.38,-574.89 379.12,-579.08"/>
</g>
<!-- client/src/handlers/nextQuestion.js&#45;&gt;client/src/components/shared/questionWithOptions.js -->
<g id="edge25" class="edge">
<title>client/src/handlers/nextQuestion.js&#45;&gt;client/src/components/shared/questionWithOptions.js</title>
<path fill="none" stroke="#000000" stroke-width="2" stroke-opacity="0.200000" d="M176.12,-569.68C179.06,-567.88 181.76,-565.73 184.02,-563.17 194.58,-551.21 183.87,-541.89 192.02,-528.17 205.89,-504.82 230.5,-485.19 248.17,-473.12"/>
<polygon fill="#000000" fill-opacity="0.200000" stroke="#000000" stroke-width="2" stroke-opacity="0.200000" points="249.58,-474.7 253.41,-469.62 247.25,-471.2 249.58,-474.7"/>
</g>
<!-- client/src/handlers/goToHome.js -->
<g id="node21" class="node">
<title>client/src/handlers/goToHome.js</title>
<g id="a_node21"><a xlink:href="../client/src/handlers/goToHome.js" xlink:title="goToHome.js">
<path fill="#ffffcc" stroke="black" d="M298.33,-610.47C298.33,-610.47 241.72,-610.47 241.72,-610.47 238.62,-610.47 235.52,-607.37 235.52,-604.27 235.52,-604.27 235.52,-598.07 235.52,-598.07 235.52,-594.97 238.62,-591.87 241.72,-591.87 241.72,-591.87 298.33,-591.87 298.33,-591.87 301.43,-591.87 304.53,-594.97 304.53,-598.07 304.53,-598.07 304.53,-604.27 304.53,-604.27 304.53,-607.37 301.43,-610.47 298.33,-610.47"/>
<text text-anchor="middle" x="270.02" y="-598.47" font-family="Helvetica,sans-Serif" font-size="9.00">goToHome.js</text>
</a>
</g>
</g>
<!-- client/src/handlers/nextQuestion.js&#45;&gt;client/src/handlers/goToHome.js -->
<g id="edge28" class="edge">
<title>client/src/handlers/nextQuestion.js&#45;&gt;client/src/handlers/goToHome.js</title>
<path fill="none" stroke="#000000" stroke-width="2" stroke-opacity="0.200000" d="M178.02,-585.65C191.62,-587.97 207.13,-590.61 221.44,-593.05"/>
<polygon fill="#000000" fill-opacity="0.200000" stroke="#000000" stroke-width="2" stroke-opacity="0.200000" points="228.96,-596.47 235.23,-595.41 229.67,-592.33 228.96,-596.47"/>
<polyline fill="none" stroke="#000000" stroke-width="2" stroke-opacity="0.200000" points="229.32,-594.4 226.36,-593.89 "/>
<ellipse fill="none" stroke="#000000" stroke-width="2" stroke-opacity="0.200000" cx="223.99" cy="-593.49" rx="2.4" ry="2.4"/>
</g>
<!-- client/src/components/shared/questionWithOptions.js&#45;&gt;client/src/components/shared/title&#45;description.js -->
<g id="edge18" class="edge">
<title>client/src/components/shared/questionWithOptions.js&#45;&gt;client/src/components/shared/title&#45;description.js</title>
<path fill="none" stroke="#000000" stroke-width="2" stroke-opacity="0.200000" d="M313.49,-450.78C329.28,-447.29 347.31,-443.31 363.55,-439.72"/>
<polygon fill="#000000" fill-opacity="0.200000" stroke="#000000" stroke-width="2" stroke-opacity="0.200000" points="364.04,-441.76 369.44,-438.42 363.13,-437.66 364.04,-441.76"/>
</g>
<!-- client/src/components/shared/options.js -->
<g id="node20" class="node">
<title>client/src/components/shared/options.js</title>
<g id="a_node20"><a xlink:href="../client/src/components/shared/options.js" xlink:title="options.js">
<path fill="#ffffcc" stroke="black" d="M433.09,-469.47C433.09,-469.47 391.47,-469.47 391.47,-469.47 388.37,-469.47 385.27,-466.37 385.27,-463.27 385.27,-463.27 385.27,-457.07 385.27,-457.07 385.27,-453.97 388.37,-450.87 391.47,-450.87 391.47,-450.87 433.09,-450.87 433.09,-450.87 436.19,-450.87 439.29,-453.97 439.29,-457.07 439.29,-457.07 439.29,-463.27 439.29,-463.27 439.29,-466.37 436.19,-469.47 433.09,-469.47"/>
<text text-anchor="middle" x="412.28" y="-457.47" font-family="Helvetica,sans-Serif" font-size="9.00">options.js</text>
</a>
</g>
</g>
<!-- client/src/components/shared/questionWithOptions.js&#45;&gt;client/src/components/shared/options.js -->
<g id="edge17" class="edge">
<title>client/src/components/shared/questionWithOptions.js&#45;&gt;client/src/components/shared/options.js</title>
<path fill="none" stroke="#000000" stroke-width="2" stroke-opacity="0.200000" d="M324.05,-460.17C342.4,-460.17 362.42,-460.17 378.65,-460.17"/>
<polygon fill="#000000" fill-opacity="0.200000" stroke="#000000" stroke-width="2" stroke-opacity="0.200000" points="378.89,-462.27 384.89,-460.17 378.89,-458.07 378.89,-462.27"/>
</g>
<!-- client/src/handlers/change&#45;greeting.js&#45;&gt;client/src/init/state.js -->
<g id="edge19" class="edge">
<title>client/src/handlers/change&#45;greeting.js&#45;&gt;client/src/init/state.js</title>
<path fill="none" stroke="#000000" stroke-width="2" stroke-opacity="0.200000" d="M184.13,-552.81C224.67,-557.13 286.43,-563.84 340.03,-570.17 352.79,-571.68 366.82,-573.43 379.03,-574.98"/>
<polygon fill="#000000" fill-opacity="0.200000" stroke="#000000" stroke-width="2" stroke-opacity="0.200000" points="379.02,-577.1 385.23,-575.78 379.55,-572.93 379.02,-577.1"/>
</g>
<!-- client/src/handlers/change&#45;greeting.js&#45;&gt;client/src/logic/reverse.js -->
<g id="edge20" class="edge">
<title>client/src/handlers/change&#45;greeting.js&#45;&gt;client/src/logic/reverse.js</title>
<path fill="none" stroke="#000000" stroke-width="2" stroke-opacity="0.200000" d="M147.71,-538.57C158.23,-524.82 176.61,-498.28 184.02,-472.17 188.29,-457.15 182.08,-203.22 192.02,-191.17 193.52,-189.35 317.84,-162.32 378.59,-149.21"/>
<polygon fill="#000000" fill-opacity="0.200000" stroke="#000000" stroke-width="2" stroke-opacity="0.200000" points="379.19,-151.23 384.62,-147.91 378.31,-147.12 379.19,-151.23"/>
</g>
<!-- client/src/handlers/goToHome.js&#45;&gt;client/src/init/state.js -->
<g id="edge22" class="edge">
<title>client/src/handlers/goToHome.js&#45;&gt;client/src/init/state.js</title>
<path fill="none" stroke="#000000" stroke-width="2" stroke-opacity="0.200000" d="M304.62,-595.9C327.14,-592.37 356.63,-587.74 378.89,-584.25"/>
<polygon fill="#000000" fill-opacity="0.200000" stroke="#000000" stroke-width="2" stroke-opacity="0.200000" points="379.37,-586.3 384.97,-583.3 378.72,-582.15 379.37,-586.3"/>
</g>
<!-- client/src/handlers/goToHome.js&#45;&gt;client/src/init/router.js -->
<g id="edge21" class="edge">
<title>client/src/handlers/goToHome.js&#45;&gt;client/src/init/router.js</title>
<path fill="none" stroke="#000000" stroke-width="2" stroke-opacity="0.200000" d="M304.63,-606.94C347.11,-612.71 421.66,-617.72 479.53,-594.17 485.69,-591.66 491.44,-587.51 496.39,-583.04"/>
<polygon fill="#000000" fill-opacity="0.200000" stroke="#000000" stroke-width="2" stroke-opacity="0.200000" points="503.69,-578.47 506.33,-572.69 500.66,-575.56 503.69,-578.47"/>
<polyline fill="none" stroke="#000000" stroke-width="2" stroke-opacity="0.200000" points="502.18,-577.02 500.1,-579.18 "/>
<ellipse fill="none" stroke="#000000" stroke-width="2" stroke-opacity="0.200000" cx="498.44" cy="-580.91" rx="2.4" ry="2.4"/>
</g>
<!-- client/src/routes.js -->
<g id="node24" class="node">
<title>client/src/routes.js</title>
<g id="a_node24"><a xlink:href="../client/src/routes.js" xlink:title="routes.js">
<path fill="#ffffcc" stroke="black" d="M71.8,-320.47C71.8,-320.47 30.2,-320.47 30.2,-320.47 27.1,-320.47 24,-317.37 24,-314.27 24,-314.27 24,-308.07 24,-308.07 24,-304.97 27.1,-301.87 30.2,-301.87 30.2,-301.87 71.8,-301.87 71.8,-301.87 74.9,-301.87 78,-304.97 78,-308.07 78,-308.07 78,-314.27 78,-314.27 78,-317.37 74.9,-320.47 71.8,-320.47"/>
<text text-anchor="middle" x="51" y="-308.47" font-family="Helvetica,sans-Serif" font-size="9.00">routes.js</text>
</a>
</g>
</g>
<!-- client/src/init/router.js&#45;&gt;client/src/routes.js -->
<g id="edge32" class="edge">
<title>client/src/init/router.js&#45;&gt;client/src/routes.js</title>
<path fill="none" stroke="#000000" stroke-width="2" stroke-opacity="0.200000" d="M513.62,-553.46C514.17,-486.64 515.79,-96.32 479.53,-60.17 388.99,30.09 306.5,5.74 192.02,-51.17 99.04,-97.39 65.54,-233.21 55.6,-287.93"/>
<polygon fill="#000000" fill-opacity="0.200000" stroke="#000000" stroke-width="2" stroke-opacity="0.200000" points="52.19,-295.59 53.28,-301.86 56.34,-296.29 52.19,-295.59"/>
<polyline fill="none" stroke="#000000" stroke-width="2" stroke-opacity="0.200000" points="54.27,-295.94 54.76,-292.98 "/>
<ellipse fill="none" stroke="#000000" stroke-width="2" stroke-opacity="0.200000" cx="55.16" cy="-290.61" rx="2.4" ry="2.4"/>
</g>
<!-- client/src/init/index.js -->
<g id="node23" class="node">
<title>client/src/init/index.js</title>
<g id="a_node23"><a xlink:href="../client/src/init/index.js" xlink:title="index.js">
<path fill="#ffffcc" stroke="black" d="M433.08,-557.47C433.08,-557.47 391.48,-557.47 391.48,-557.47 388.38,-557.47 385.28,-554.37 385.28,-551.27 385.28,-551.27 385.28,-545.07 385.28,-545.07 385.28,-541.97 388.38,-538.87 391.48,-538.87 391.48,-538.87 433.08,-538.87 433.08,-538.87 436.18,-538.87 439.28,-541.97 439.28,-545.07 439.28,-545.07 439.28,-551.27 439.28,-551.27 439.28,-554.37 436.18,-557.47 433.08,-557.47"/>
<text text-anchor="middle" x="412.28" y="-545.47" font-family="Helvetica,sans-Serif" font-size="9.00">index.js</text>
</a>
</g>
</g>
<!-- client/src/init/index.js&#45;&gt;client/src/init/router.js -->
<g id="edge31" class="edge">
<title>client/src/init/index.js&#45;&gt;client/src/init/router.js</title>
<path fill="none" stroke="#000000" stroke-width="2" stroke-opacity="0.200000" d="M439.36,-552.07C452.14,-553.98 467.65,-556.3 481.18,-558.33"/>
<polygon fill="#000000" fill-opacity="0.200000" stroke="#000000" stroke-width="2" stroke-opacity="0.200000" points="480.99,-560.42 487.23,-559.23 481.61,-556.27 480.99,-560.42"/>
</g>
<!-- client/src/routes.js&#45;&gt;client/src/components/layout/page.js -->
<g id="edge35" class="edge">
<title>client/src/routes.js&#45;&gt;client/src/components/layout/page.js</title>
<path fill="none" stroke="#000000" stroke-width="2" stroke-opacity="0.200000" d="M63.6,-301.86C78.48,-289.93 104.38,-269.15 121.36,-255.53"/>
<polygon fill="#000000" fill-opacity="0.200000" stroke="#000000" stroke-width="2" stroke-opacity="0.200000" points="122.95,-256.94 126.32,-251.55 120.32,-253.66 122.95,-256.94"/>
</g>
<!-- client/src/routes.js&#45;&gt;client/src/components/pages/home/index.js -->
<g id="edge36" class="edge">
<title>client/src/routes.js&#45;&gt;client/src/components/pages/home/index.js</title>
<path fill="none" stroke="#000000" stroke-width="2" stroke-opacity="0.200000" d="M78.27,-311.17C84.53,-311.17 91.34,-311.17 98.05,-311.17"/>
<polygon fill="#000000" fill-opacity="0.200000" stroke="#000000" stroke-width="2" stroke-opacity="0.200000" points="105.9,-313.27 111.9,-311.17 105.9,-309.07 105.9,-313.27"/>
<polyline fill="none" stroke="#000000" stroke-width="2" stroke-opacity="0.200000" points="105.9,-311.17 102.9,-311.17 "/>
<ellipse fill="none" stroke="#000000" stroke-width="2" stroke-opacity="0.200000" cx="100.5" cy="-311.17" rx="2.4" ry="2.4"/>
</g>
<!-- client/src/routes.js&#45;&gt;client/src/components/pages/questions/index.js -->
<g id="edge37" class="edge">
<title>client/src/routes.js&#45;&gt;client/src/components/pages/questions/index.js</title>
<path fill="none" stroke="#000000" stroke-width="2" stroke-opacity="0.200000" d="M58.32,-320.61C64.51,-329.26 74.65,-341.95 86,-350.17 92.08,-354.57 99.17,-358.31 106.13,-361.39"/>
<polygon fill="#000000" fill-opacity="0.200000" stroke="#000000" stroke-width="2" stroke-opacity="0.200000" points="105.58,-363.43 111.92,-363.81 107.2,-359.56 105.58,-363.43"/>
</g>
<!-- client/src/routes.js&#45;&gt;client/src/components/pages/quiz/index.js -->
<g id="edge38" class="edge">
<title>client/src/routes.js&#45;&gt;client/src/components/pages/quiz/index.js</title>
<path fill="none" stroke="#000000" stroke-width="2" stroke-opacity="0.200000" d="M52.69,-320.74C54.6,-340.21 61.52,-384.85 86,-411.17 89.65,-415.1 94.12,-418.35 98.89,-421.04"/>
<polygon fill="#000000" fill-opacity="0.200000" stroke="#000000" stroke-width="2" stroke-opacity="0.200000" points="105.52,-426.35 111.85,-426.91 107.25,-422.52 105.52,-426.35"/>
<polyline fill="none" stroke="#000000" stroke-width="2" stroke-opacity="0.200000" points="106.39,-424.44 103.65,-423.2 "/>
<ellipse fill="none" stroke="#000000" stroke-width="2" stroke-opacity="0.200000" cx="101.47" cy="-422.21" rx="2.4" ry="2.4"/>
</g>
<!-- client/src/logic/camelCaseToTitleCase.spec.js -->
<g id="node25" class="node">
<title>client/src/logic/camelCaseToTitleCase.spec.js</title>
<g id="a_node25"><a xlink:href="../client/src/logic/camelCaseToTitleCase.spec.js" xlink:title="camelCaseToTitleCase.spec.js">
<path fill="#ffffcc" stroke="black" d="M333.83,-89.47C333.83,-89.47 206.22,-89.47 206.22,-89.47 203.12,-89.47 200.01,-86.37 200.01,-83.27 200.01,-83.27 200.01,-77.07 200.01,-77.07 200.01,-73.97 203.12,-70.87 206.22,-70.87 206.22,-70.87 333.83,-70.87 333.83,-70.87 336.93,-70.87 340.03,-73.97 340.03,-77.07 340.03,-77.07 340.03,-83.27 340.03,-83.27 340.03,-86.37 336.93,-89.47 333.83,-89.47"/>
<text text-anchor="middle" x="270.02" y="-77.47" font-family="Helvetica,sans-Serif" font-size="9.00">camelCaseToTitleCase.spec.js</text>
</a>
</g>
</g>
<!-- client/src/logic/camelCaseToTitleCase.spec.js&#45;&gt;client/src/logic/camelCaseToTitleCase.js -->
<g id="edge33" class="edge">
<title>client/src/logic/camelCaseToTitleCase.spec.js&#45;&gt;client/src/logic/camelCaseToTitleCase.js</title>
<path fill="none" stroke="#000000" stroke-width="2" stroke-opacity="0.200000" d="M340.33,-80.17C342.47,-80.17 344.61,-80.17 346.74,-80.17"/>
<polygon fill="#000000" fill-opacity="0.200000" stroke="#000000" stroke-width="2" stroke-opacity="0.200000" points="347.12,-82.27 353.12,-80.17 347.12,-78.07 347.12,-82.27"/>
</g>
<!-- client/src/logic/reverse.spec.js -->
<g id="node26" class="node">
<title>client/src/logic/reverse.spec.js</title>
<g id="a_node26"><a xlink:href="../client/src/logic/reverse.spec.js" xlink:title="reverse.spec.js">
<path fill="#ffffcc" stroke="black" d="M301.83,-120.47C301.83,-120.47 238.22,-120.47 238.22,-120.47 235.12,-120.47 232.02,-117.37 232.02,-114.27 232.02,-114.27 232.02,-108.07 232.02,-108.07 232.02,-104.97 235.12,-101.87 238.22,-101.87 238.22,-101.87 301.83,-101.87 301.83,-101.87 304.93,-101.87 308.03,-104.97 308.03,-108.07 308.03,-108.07 308.03,-114.27 308.03,-114.27 308.03,-117.37 304.93,-120.47 301.83,-120.47"/>
<text text-anchor="middle" x="270.02" y="-108.47" font-family="Helvetica,sans-Serif" font-size="9.00">reverse.spec.js</text>
</a>
</g>
</g>
<!-- client/src/logic/reverse.spec.js&#45;&gt;client/src/logic/reverse.js -->
<g id="edge34" class="edge">
<title>client/src/logic/reverse.spec.js&#45;&gt;client/src/logic/reverse.js</title>
<path fill="none" stroke="#000000" stroke-width="2" stroke-opacity="0.200000" d="M308.24,-119.39C330.11,-124.23 357.49,-130.28 378.53,-134.93"/>
<polygon fill="#000000" fill-opacity="0.200000" stroke="#000000" stroke-width="2" stroke-opacity="0.200000" points="378.25,-137.02 384.56,-136.26 379.16,-132.92 378.25,-137.02"/>
</g>
</g>
</svg>
