<?xml version="1.0" encoding="UTF-8" standalone="no"?>
<!DOCTYPE svg PUBLIC "-//W3C//DTD SVG 1.1//EN"
 "http://www.w3.org/Graphics/SVG/1.1/DTD/svg11.dtd">
<!-- Generated by graphviz version 2.44.0 (20200408.0750)
 -->
<!-- Title: dependency&#45;cruiser output Pages: 1 -->

<svg width="524pt" height="563pt"
 viewBox="0.00 0.00 523.53 563.00" xmlns="http://www.w3.org/2000/svg" xmlns:xlink="http://www.w3.org/1999/xlink">
<g id="graph0" class="graph" transform="scale(1 1) rotate(0) translate(4 559)">
<title>dependency&#45;cruiser output</title>
<polygon fill="white" stroke="transparent" points="-4,4 -4,-559 519.53,-559 519.53,4 -4,4"/>
<g id="clust1" class="cluster">
<title>cluster_client</title>
<path fill="#ffffff" stroke="black" stroke-width="2" d="M20,-8C20,-8 495.53,-8 495.53,-8 501.53,-8 507.53,-14 507.53,-20 507.53,-20 507.53,-535 507.53,-535 507.53,-541 501.53,-547 495.53,-547 495.53,-547 20,-547 20,-547 14,-547 8,-541 8,-535 8,-535 8,-20 8,-20 8,-14 14,-8 20,-8"/>
<text text-anchor="middle" x="257.76" y="-534.9" font-family="Helvetica,sans-Serif" font-weight="bold" font-size="9.00">client</text>
</g>
<g id="clust2" class="cluster">
<title>cluster_client/src</title>
<path fill="#ffffff" stroke="black" stroke-width="2" d="M28,-16C28,-16 487.53,-16 487.53,-16 493.53,-16 499.53,-22 499.53,-28 499.53,-28 499.53,-508 499.53,-508 499.53,-514 493.53,-520 487.53,-520 487.53,-520 28,-520 28,-520 22,-520 16,-514 16,-508 16,-508 16,-28 16,-28 16,-22 22,-16 28,-16"/>
<text text-anchor="middle" x="257.76" y="-507.9" font-family="Helvetica,sans-Serif" font-weight="bold" font-size="9.00">src</text>
</g>
<g id="clust3" class="cluster">
<title>cluster_client/src/components</title>
<path fill="#ffffff" stroke="black" stroke-width="2" d="M144.01,-95C144.01,-95 331.03,-95 331.03,-95 337.03,-95 343.03,-101 343.03,-107 343.03,-107 343.03,-420 343.03,-420 343.03,-426 337.03,-432 331.03,-432 331.03,-432 144.01,-432 144.01,-432 138.01,-432 132.01,-426 132.01,-420 132.01,-420 132.01,-107 132.01,-107 132.01,-101 138.01,-95 144.01,-95"/>
<text text-anchor="middle" x="237.52" y="-419.9" font-family="Helvetica,sans-Serif" font-weight="bold" font-size="9.00">components</text>
</g>
<g id="clust4" class="cluster">
<title>cluster_client/src/components/layout</title>
<path fill="#ffffff" stroke="black" stroke-width="2" d="M160.01,-321C160.01,-321 310.02,-321 310.02,-321 316.02,-321 322.02,-327 322.02,-333 322.02,-333 322.02,-393 322.02,-393 322.02,-399 316.02,-405 310.02,-405 310.02,-405 160.01,-405 160.01,-405 154.01,-405 148.01,-399 148.01,-393 148.01,-393 148.01,-333 148.01,-333 148.01,-327 154.01,-321 160.01,-321"/>
<text text-anchor="middle" x="235.02" y="-392.9" font-family="Helvetica,sans-Serif" font-weight="bold" font-size="9.00">layout</text>
</g>
<g id="clust5" class="cluster">
<title>cluster_client/src/components/pages</title>
<path fill="#ffffff" stroke="black" stroke-width="2" d="M152.01,-103C152.01,-103 214.01,-103 214.01,-103 220.01,-103 226.01,-109 226.01,-115 226.01,-115 226.01,-301 226.01,-301 226.01,-307 220.01,-313 214.01,-313 214.01,-313 152.01,-313 152.01,-313 146.01,-313 140.01,-307 140.01,-301 140.01,-301 140.01,-115 140.01,-115 140.01,-109 146.01,-103 152.01,-103"/>
<text text-anchor="middle" x="183.01" y="-300.9" font-family="Helvetica,sans-Serif" font-weight="bold" font-size="9.00">pages</text>
</g>
<g id="clust6" class="cluster">
<title>cluster_client/src/components/pages/home</title>
<path fill="#ffffff" stroke="black" stroke-width="2" d="M160.01,-233C160.01,-233 206.01,-233 206.01,-233 212.01,-233 218.01,-239 218.01,-245 218.01,-245 218.01,-274 218.01,-274 218.01,-280 212.01,-286 206.01,-286 206.01,-286 160.01,-286 160.01,-286 154.01,-286 148.01,-280 148.01,-274 148.01,-274 148.01,-245 148.01,-245 148.01,-239 154.01,-233 160.01,-233"/>
<text text-anchor="middle" x="183.01" y="-273.9" font-family="Helvetica,sans-Serif" font-weight="bold" font-size="9.00">home</text>
</g>
<g id="clust7" class="cluster">
<title>cluster_client/src/components/pages/questions</title>
<path fill="#ffffff" stroke="black" stroke-width="2" d="M160.01,-172C160.01,-172 206.01,-172 206.01,-172 212.01,-172 218.01,-178 218.01,-184 218.01,-184 218.01,-213 218.01,-213 218.01,-219 212.01,-225 206.01,-225 206.01,-225 160.01,-225 160.01,-225 154.01,-225 148.01,-219 148.01,-213 148.01,-213 148.01,-184 148.01,-184 148.01,-178 154.01,-172 160.01,-172"/>
<text text-anchor="middle" x="183.01" y="-212.9" font-family="Helvetica,sans-Serif" font-weight="bold" font-size="9.00">questions</text>
</g>
<g id="clust8" class="cluster">
<title>cluster_client/src/components/pages/quiz</title>
<path fill="#ffffff" stroke="black" stroke-width="2" d="M160.01,-111C160.01,-111 206.01,-111 206.01,-111 212.01,-111 218.01,-117 218.01,-123 218.01,-123 218.01,-152 218.01,-152 218.01,-158 212.01,-164 206.01,-164 206.01,-164 160.01,-164 160.01,-164 154.01,-164 148.01,-158 148.01,-152 148.01,-152 148.01,-123 148.01,-123 148.01,-117 154.01,-111 160.01,-111"/>
<text text-anchor="middle" x="183.01" y="-151.9" font-family="Helvetica,sans-Serif" font-weight="bold" font-size="9.00">quiz</text>
</g>
<g id="clust9" class="cluster">
<title>cluster_client/src/components/shared</title>
<path fill="#ffffff" stroke="black" stroke-width="2" d="M251.01,-172C251.01,-172 323.03,-172 323.03,-172 329.03,-172 335.03,-178 335.03,-184 335.03,-184 335.03,-213 335.03,-213 335.03,-219 329.03,-225 323.03,-225 323.03,-225 251.01,-225 251.01,-225 245.01,-225 239.01,-219 239.01,-213 239.01,-213 239.01,-184 239.01,-184 239.01,-178 245.01,-172 251.01,-172"/>
<text text-anchor="middle" x="287.02" y="-212.9" font-family="Helvetica,sans-Serif" font-weight="bold" font-size="9.00">shared</text>
</g>
<g id="clust10" class="cluster">
<title>cluster_client/src/handlers</title>
<path fill="#ffffff" stroke="black" stroke-width="2" d="M246.01,-440C246.01,-440 328.03,-440 328.03,-440 334.03,-440 340.03,-446 340.03,-452 340.03,-452 340.03,-481 340.03,-481 340.03,-487 334.03,-493 328.03,-493 328.03,-493 246.01,-493 246.01,-493 240.01,-493 234.01,-487 234.01,-481 234.01,-481 234.01,-452 234.01,-452 234.01,-446 240.01,-440 246.01,-440"/>
<text text-anchor="middle" x="287.02" y="-480.9" font-family="Helvetica,sans-Serif" font-weight="bold" font-size="9.00">handlers</text>
</g>
<g id="clust11" class="cluster">
<title>cluster_client/src/init</title>
<path fill="#ffffff" stroke="black" stroke-width="2" d="M363.03,-141C363.03,-141 479.53,-141 479.53,-141 485.53,-141 491.53,-147 491.53,-153 491.53,-153 491.53,-213 491.53,-213 491.53,-219 485.53,-225 479.53,-225 479.53,-225 363.03,-225 363.03,-225 357.03,-225 351.03,-219 351.03,-213 351.03,-213 351.03,-153 351.03,-153 351.03,-147 357.03,-141 363.03,-141"/>
<text text-anchor="middle" x="421.28" y="-212.9" font-family="Helvetica,sans-Serif" font-weight="bold" font-size="9.00">init</text>
</g>
<g id="clust12" class="cluster">
<title>cluster_client/src/logic</title>
<path fill="#ffffff" stroke="black" stroke-width="2" d="M252.77,-34C252.77,-34 409.53,-34 409.53,-34 415.53,-34 421.53,-40 421.53,-46 421.53,-46 421.53,-75 421.53,-75 421.53,-81 415.53,-87 409.53,-87 409.53,-87 252.77,-87 252.77,-87 246.77,-87 240.77,-81 240.77,-75 240.77,-75 240.77,-46 240.77,-46 240.77,-40 246.77,-34 252.77,-34"/>
<text text-anchor="middle" x="331.15" y="-74.9" font-family="Helvetica,sans-Serif" font-weight="bold" font-size="9.00">logic</text>

</g>
<!-- client/src/components/layout/footer.js -->
<g id="node1" class="node">
<title>client/src/components/layout/footer.js</title>
<g id="a_node1"><a xlink:href="../client/src/components/layout/footer.js" xlink:title="footer.js">
<path fill="#ffffcc" stroke="black" d="M307.82,-347.3C307.82,-347.3 266.22,-347.3 266.22,-347.3 263.12,-347.3 260.02,-344.2 260.02,-341.1 260.02,-341.1 260.02,-334.9 260.02,-334.9 260.02,-331.8 263.12,-328.7 266.22,-328.7 266.22,-328.7 307.82,-328.7 307.82,-328.7 310.92,-328.7 314.02,-331.8 314.02,-334.9 314.02,-334.9 314.02,-341.1 314.02,-341.1 314.02,-344.2 310.92,-347.3 307.82,-347.3"/>
<text text-anchor="middle" x="287.02" y="-335.3" font-family="Helvetica,sans-Serif" font-size="9.00">footer.js</text>

</a>
</g>
</g>
<!-- client/src/components/layout/navbar.js -->
<g id="node2" class="node">
<title>client/src/components/layout/navbar.js</title>
<g id="a_node2"><a xlink:href="../client/src/components/layout/navbar.js" xlink:title="navbar.js">
<path fill="#ffffcc" stroke="black" d="M307.82,-378.3C307.82,-378.3 266.22,-378.3 266.22,-378.3 263.12,-378.3 260.02,-375.2 260.02,-372.1 260.02,-372.1 260.02,-365.9 260.02,-365.9 260.02,-362.8 263.12,-359.7 266.22,-359.7 266.22,-359.7 307.82,-359.7 307.82,-359.7 310.92,-359.7 314.02,-362.8 314.02,-365.9 314.02,-365.9 314.02,-372.1 314.02,-372.1 314.02,-375.2 310.92,-378.3 307.82,-378.3"/>
<text text-anchor="middle" x="287.02" y="-366.3" font-family="Helvetica,sans-Serif" font-size="9.00">navbar.js</text>

</a>
</g>
</g>
<!-- client/src/components/layout/page.js -->
<g id="node3" class="node">
<title>client/src/components/layout/page.js</title>
<g id="a_node3"><a xlink:href="../client/src/components/layout/page.js" xlink:title="page.js">
<path fill="#ffffcc" stroke="black" d="M203.81,-347.3C203.81,-347.3 162.21,-347.3 162.21,-347.3 159.11,-347.3 156.01,-344.2 156.01,-341.1 156.01,-341.1 156.01,-334.9 156.01,-334.9 156.01,-331.8 159.11,-328.7 162.21,-328.7 162.21,-328.7 203.81,-328.7 203.81,-328.7 206.91,-328.7 210.01,-331.8 210.01,-334.9 210.01,-334.9 210.01,-341.1 210.01,-341.1 210.01,-344.2 206.91,-347.3 203.81,-347.3"/>
<text text-anchor="middle" x="183.01" y="-335.3" font-family="Helvetica,sans-Serif" font-size="9.00">page.js</text>

</a>
</g>
</g>
<!-- client/src/components/layout/page.js&#45;&gt;client/src/components/layout/footer.js -->
<g id="edge1" class="edge">
<title>client/src/components/layout/page.js&#45;&gt;client/src/components/layout/footer.js</title>
<path fill="none" stroke="#000000" stroke-width="2" stroke-opacity="0.200000" d="M210.02,-338C223.22,-338 239.4,-338 253.43,-338"/>
<polygon fill="#000000" fill-opacity="0.200000" stroke="#000000" stroke-width="2" stroke-opacity="0.200000" points="253.71,-340.1 259.71,-338 253.71,-335.9 253.71,-340.1"/>

</g>
<!-- client/src/components/layout/page.js&#45;&gt;client/src/components/layout/navbar.js -->
<g id="edge2" class="edge">
<title>client/src/components/layout/page.js&#45;&gt;client/src/components/layout/navbar.js</title>
<path fill="none" stroke="#000000" stroke-width="2" stroke-opacity="0.200000" d="M210.02,-345.9C223.34,-349.95 239.69,-354.92 253.81,-359.21"/>
<polygon fill="#000000" fill-opacity="0.200000" stroke="#000000" stroke-width="2" stroke-opacity="0.200000" points="253.36,-361.27 259.71,-361 254.58,-357.25 253.36,-361.27"/>

</g>
<!-- client/src/components/layout/table.js -->
<g id="node4" class="node">
<title>client/src/components/layout/table.js</title>
<g id="a_node4"><a xlink:href="../client/src/components/layout/table.js" xlink:title="table.js">
<path fill="#ffffcc" stroke="black" d="M157.8,-403.35C157.8,-403.35 116.2,-403.35 116.2,-403.35 113.1,-403.35 110,-400.25 110,-397.15 110,-397.15 110,-390.95 110,-390.95 110,-387.85 113.1,-384.75 116.2,-384.75 116.2,-384.75 157.8,-384.75 157.8,-384.75 160.9,-384.75 164,-387.85 164,-390.95 164,-390.95 164,-397.15 164,-397.15 164,-400.25 160.9,-403.35 157.8,-403.35"/>
<text text-anchor="middle" x="137" y="-391.35" font-family="Helvetica,sans-Serif" font-size="9.00">table.js</text>
</a>
</g>
</g>
<!-- client/src/logic/camelCaseToTitleCase.js -->
<g id="node5" class="node">
<title>client/src/logic/camelCaseToTitleCase.js</title>
<g id="a_node5"><a xlink:href="../client/src/logic/camelCaseToTitleCase.js" xlink:title="camelCaseToTitleCase.js">
<path fill="#ffffcc" stroke="black" d="M461.06,-85.35C461.06,-85.35 355.46,-85.35 355.46,-85.35 352.36,-85.35 349.26,-82.25 349.26,-79.15 349.26,-79.15 349.26,-72.95 349.26,-72.95 349.26,-69.85 352.36,-66.75 355.46,-66.75 355.46,-66.75 461.06,-66.75 461.06,-66.75 464.16,-66.75 467.26,-69.85 467.26,-72.95 467.26,-72.95 467.26,-79.15 467.26,-79.15 467.26,-82.25 464.16,-85.35 461.06,-85.35"/>
<text text-anchor="middle" x="408.26" y="-73.35" font-family="Helvetica,sans-Serif" font-size="9.00">camelCaseToTitleCase.js</text>
</a>
</g>
</g>
<!-- client/src/components/layout/table.js&#45;&gt;client/src/logic/camelCaseToTitleCase.js -->
<g id="edge3" class="edge">
<title>client/src/components/layout/table.js&#45;&gt;client/src/logic/camelCaseToTitleCase.js</title>
<path fill="none" stroke="#000000" stroke-width="2" stroke-opacity="0.200000" d="M149.73,-384.58C159.85,-375.61 173.79,-361.15 180,-345.05 185.68,-330.33 176.68,-72.05 188,-61.05 211.58,-38.12 303.3,-57.65 336.01,-61.05 341.16,-61.59 350.31,-63.32 360.37,-65.42"/>
<polygon fill="#000000" fill-opacity="0.200000" stroke="#000000" stroke-width="2" stroke-opacity="0.200000" points="360.07,-67.5 366.38,-66.7 360.95,-63.4 360.07,-67.5"/>
</g>
<!-- client/src/components/pages/home/index.js -->
<g id="node6" class="node">
<title>client/src/components/pages/home/index.js</title>
<g id="a_node4"><a xlink:href="../client/src/components/pages/home/index.js" xlink:title="index.js">
<path fill="#ffffcc" stroke="black" d="M203.81,-259.3C203.81,-259.3 162.21,-259.3 162.21,-259.3 159.11,-259.3 156.01,-256.2 156.01,-253.1 156.01,-253.1 156.01,-246.9 156.01,-246.9 156.01,-243.8 159.11,-240.7 162.21,-240.7 162.21,-240.7 203.81,-240.7 203.81,-240.7 206.91,-240.7 210.01,-243.8 210.01,-246.9 210.01,-246.9 210.01,-253.1 210.01,-253.1 210.01,-256.2 206.91,-259.3 203.81,-259.3"/>
<text text-anchor="middle" x="183.01" y="-247.3" font-family="Helvetica,sans-Serif" font-size="9.00">index.js</text>


</a>
</g>
</g>
<!-- client/src/components/shared/input&#45;greeting.js -->
<g id="node7" class="node">
<title>client/src/components/shared/input&#45;greeting.js</title>
<g id="a_node5"><a xlink:href="../client/src/components/shared/input-greeting.js" xlink:title="input&#45;greeting.js">
<path fill="#ffffcc" stroke="black" d="M320.83,-198.3C320.83,-198.3 253.21,-198.3 253.21,-198.3 250.11,-198.3 247.01,-195.2 247.01,-192.1 247.01,-192.1 247.01,-185.9 247.01,-185.9 247.01,-182.8 250.11,-179.7 253.21,-179.7 253.21,-179.7 320.83,-179.7 320.83,-179.7 323.93,-179.7 327.03,-182.8 327.03,-185.9 327.03,-185.9 327.03,-192.1 327.03,-192.1 327.03,-195.2 323.93,-198.3 320.83,-198.3"/>
<text text-anchor="middle" x="287.02" y="-186.3" font-family="Helvetica,sans-Serif" font-size="9.00">input&#45;greeting.js</text>

</a>
</g>
</g>
<!-- client/src/components/pages/home/index.js&#45;&gt;client/src/components/shared/input&#45;greeting.js -->
<g id="edge4" class="edge">
<title>client/src/components/pages/home/index.js&#45;&gt;client/src/components/shared/input&#45;greeting.js</title>
<path fill="none" stroke="#000000" stroke-width="2" stroke-opacity="0.200000" d="M203.03,-240.51C210.3,-236.76 218.62,-232.32 226.01,-228 240.15,-219.73 255.63,-209.64 267.34,-201.79"/>
<polygon fill="#000000" fill-opacity="0.200000" stroke="#000000" stroke-width="2" stroke-opacity="0.200000" points="268.63,-203.45 272.43,-198.36 266.28,-199.97 268.63,-203.45"/>

</g>
<!-- client/src/handlers/change&#45;greeting.js -->
<g id="node10" class="node">
<title>client/src/handlers/change&#45;greeting.js</title>
<g id="a_node8"><a xlink:href="../client/src/handlers/change-greeting.js" xlink:title="change&#45;greeting.js">
<path fill="#ffffcc" stroke="black" d="M325.84,-466.3C325.84,-466.3 248.2,-466.3 248.2,-466.3 245.1,-466.3 242,-463.2 242,-460.1 242,-460.1 242,-453.9 242,-453.9 242,-450.8 245.1,-447.7 248.2,-447.7 248.2,-447.7 325.84,-447.7 325.84,-447.7 328.94,-447.7 332.04,-450.8 332.04,-453.9 332.04,-453.9 332.04,-460.1 332.04,-460.1 332.04,-463.2 328.94,-466.3 325.84,-466.3"/>
<text text-anchor="middle" x="287.02" y="-454.3" font-family="Helvetica,sans-Serif" font-size="9.00">change&#45;greeting.js</text>

</a>
</g>
</g>
<!-- client/src/components/shared/input&#45;greeting.js&#45;&gt;client/src/handlers/change&#45;greeting.js -->
<g id="edge7" class="edge">
<title>client/src/components/shared/input&#45;greeting.js&#45;&gt;client/src/handlers/change&#45;greeting.js</title>
<path fill="none" stroke="#000000" stroke-width="2" stroke-opacity="0.200000" d="M281.48,-198.39C269.22,-219.78 240.11,-274.13 230.01,-324 226.57,-340.99 224.99,-385.41 230.01,-402 235.46,-420.01 251.38,-434.48 265.01,-444.05"/>
<polygon fill="#000000" fill-opacity="0.200000" stroke="#000000" stroke-width="2" stroke-opacity="0.200000" points="264.13,-445.99 270.29,-447.6 266.48,-442.51 264.13,-445.99"/>

</g>
<!-- client/src/init/state.js -->
<g id="node11" class="node">
<title>client/src/init/state.js</title>
<g id="a_node9"><a xlink:href="../client/src/init/state.js" xlink:title="state.js">
<path fill="#ffffcc" stroke="black" d="M406.83,-198.3C406.83,-198.3 365.23,-198.3 365.23,-198.3 362.13,-198.3 359.03,-195.2 359.03,-192.1 359.03,-192.1 359.03,-185.9 359.03,-185.9 359.03,-182.8 362.13,-179.7 365.23,-179.7 365.23,-179.7 406.83,-179.7 406.83,-179.7 409.93,-179.7 413.03,-182.8 413.03,-185.9 413.03,-185.9 413.03,-192.1 413.03,-192.1 413.03,-195.2 409.93,-198.3 406.83,-198.3"/>
<text text-anchor="middle" x="386.03" y="-186.3" font-family="Helvetica,sans-Serif" font-size="9.00">state.js</text>

</a>
</g>
</g>
<!-- client/src/components/shared/input&#45;greeting.js&#45;&gt;client/src/init/state.js -->
<g id="edge8" class="edge">
<title>client/src/components/shared/input&#45;greeting.js&#45;&gt;client/src/init/state.js</title>
<path fill="none" stroke="#000000" stroke-width="2" stroke-opacity="0.200000" d="M327.2,-189C335.66,-189 344.52,-189 352.69,-189"/>
<polygon fill="#000000" fill-opacity="0.200000" stroke="#000000" stroke-width="2" stroke-opacity="0.200000" points="352.78,-191.1 358.78,-189 352.78,-186.9 352.78,-191.1"/>

</g>
<!-- client/src/logic/reverse.js -->
<g id="node12" class="node">
<title>client/src/logic/reverse.js</title>
<g id="a_node10"><a xlink:href="../client/src/logic/reverse.js" xlink:title="reverse.js">
<path fill="#ffffcc" stroke="black" d="M407.33,-60.3C407.33,-60.3 364.73,-60.3 364.73,-60.3 361.63,-60.3 358.53,-57.2 358.53,-54.1 358.53,-54.1 358.53,-47.9 358.53,-47.9 358.53,-44.8 361.63,-41.7 364.73,-41.7 364.73,-41.7 407.33,-41.7 407.33,-41.7 410.43,-41.7 413.53,-44.8 413.53,-47.9 413.53,-47.9 413.53,-54.1 413.53,-54.1 413.53,-57.2 410.43,-60.3 407.33,-60.3"/>
<text text-anchor="middle" x="386.03" y="-48.3" font-family="Helvetica,sans-Serif" font-size="9.00">reverse.js</text>

</a>
</g>
</g>
<!-- client/src/components/shared/input&#45;greeting.js&#45;&gt;client/src/logic/reverse.js -->
<g id="edge9" class="edge">
<title>client/src/components/shared/input&#45;greeting.js&#45;&gt;client/src/logic/reverse.js</title>
<path fill="none" stroke="#000000" stroke-width="2" stroke-opacity="0.200000" d="M294.69,-179.51C311.3,-155.88 354.64,-94.23 374.64,-65.78"/>
<polygon fill="#000000" fill-opacity="0.200000" stroke="#000000" stroke-width="2" stroke-opacity="0.200000" points="376.58,-66.67 378.31,-60.55 373.14,-64.25 376.58,-66.67"/>

</g>
<!-- client/src/components/pages/questions/index.js -->
<g id="node8" class="node">
<title>client/src/components/pages/questions/index.js</title>
<g id="a_node6"><a xlink:href="../client/src/components/pages/questions/index.js" xlink:title="index.js">
<path fill="#ffffcc" stroke="black" d="M203.81,-198.3C203.81,-198.3 162.21,-198.3 162.21,-198.3 159.11,-198.3 156.01,-195.2 156.01,-192.1 156.01,-192.1 156.01,-185.9 156.01,-185.9 156.01,-182.8 159.11,-179.7 162.21,-179.7 162.21,-179.7 203.81,-179.7 203.81,-179.7 206.91,-179.7 210.01,-182.8 210.01,-185.9 210.01,-185.9 210.01,-192.1 210.01,-192.1 210.01,-195.2 206.91,-198.3 203.81,-198.3"/>
<text text-anchor="middle" x="183.01" y="-186.3" font-family="Helvetica,sans-Serif" font-size="9.00">index.js</text>

</a>
</g>
</g>
<!-- client/src/components/pages/questions/index.js&#45;&gt;client/src/components/shared/input&#45;greeting.js -->
<g id="edge5" class="edge">
<title>client/src/components/pages/questions/index.js&#45;&gt;client/src/components/shared/input&#45;greeting.js</title>
<path fill="none" stroke="#000000" stroke-width="2" stroke-opacity="0.200000" d="M210.02,-189C219.39,-189 230.26,-189 240.8,-189"/>
<polygon fill="#000000" fill-opacity="0.200000" stroke="#000000" stroke-width="2" stroke-opacity="0.200000" points="240.96,-191.1 246.96,-189 240.96,-186.9 240.96,-191.1"/>

</g>
<!-- client/src/components/pages/quiz/index.js -->
<g id="node9" class="node">
<title>client/src/components/pages/quiz/index.js</title>
<g id="a_node7"><a xlink:href="../client/src/components/pages/quiz/index.js" xlink:title="index.js">
<path fill="#ffffcc" stroke="black" d="M203.81,-137.3C203.81,-137.3 162.21,-137.3 162.21,-137.3 159.11,-137.3 156.01,-134.2 156.01,-131.1 156.01,-131.1 156.01,-124.9 156.01,-124.9 156.01,-121.8 159.11,-118.7 162.21,-118.7 162.21,-118.7 203.81,-118.7 203.81,-118.7 206.91,-118.7 210.01,-121.8 210.01,-124.9 210.01,-124.9 210.01,-131.1 210.01,-131.1 210.01,-134.2 206.91,-137.3 203.81,-137.3"/>
<text text-anchor="middle" x="183.01" y="-125.3" font-family="Helvetica,sans-Serif" font-size="9.00">index.js</text>

</a>
</g>
</g>
<!-- client/src/components/pages/quiz/index.js&#45;&gt;client/src/components/shared/input&#45;greeting.js -->
<g id="edge6" class="edge">
<title>client/src/components/pages/quiz/index.js&#45;&gt;client/src/components/shared/input&#45;greeting.js</title>
<path fill="none" stroke="#000000" stroke-width="2" stroke-opacity="0.200000" d="M199.95,-137.53C217.47,-148.01 245.68,-164.88 265,-176.43"/>
<polygon fill="#000000" fill-opacity="0.200000" stroke="#000000" stroke-width="2" stroke-opacity="0.200000" points="263.97,-178.26 270.19,-179.54 266.12,-174.65 263.97,-178.26"/>

</g>
<!-- client/src/handlers/change&#45;greeting.js&#45;&gt;client/src/init/state.js -->
<g id="edge10" class="edge">
<title>client/src/handlers/change&#45;greeting.js&#45;&gt;client/src/init/state.js</title>
<path fill="none" stroke="#000000" stroke-width="2" stroke-opacity="0.200000" d="M303.13,-447.68C315.84,-439.01 333.43,-424.91 343.03,-408 381.71,-339.86 385.48,-242.57 385.36,-204.82"/>
<polygon fill="#000000" fill-opacity="0.200000" stroke="#000000" stroke-width="2" stroke-opacity="0.200000" points="387.46,-204.46 385.3,-198.48 383.26,-204.5 387.46,-204.46"/>

</g>
<!-- client/src/handlers/change&#45;greeting.js&#45;&gt;client/src/logic/reverse.js -->
<g id="edge11" class="edge">
<title>client/src/handlers/change&#45;greeting.js&#45;&gt;client/src/logic/reverse.js</title>
<path fill="none" stroke="#000000" stroke-width="2" stroke-opacity="0.200000" d="M304.33,-447.7C317.43,-439.22 334.92,-425.39 343.03,-408 355.71,-380.8 345.03,-167.41 351.03,-138 356.39,-111.68 369.05,-82.99 377.32,-66.02"/>
<polygon fill="#000000" fill-opacity="0.200000" stroke="#000000" stroke-width="2" stroke-opacity="0.200000" points="379.36,-66.64 380.14,-60.33 375.59,-64.77 379.36,-66.64"/>


</g>
<!-- client/src/init/index.js -->
<g id="node13" class="node">
<title>client/src/init/index.js</title>
<g id="a_node11"><a xlink:href="../client/src/init/index.js" xlink:title="index.js">
<path fill="#ffffcc" stroke="black" d="M406.83,-167.3C406.83,-167.3 365.23,-167.3 365.23,-167.3 362.13,-167.3 359.03,-164.2 359.03,-161.1 359.03,-161.1 359.03,-154.9 359.03,-154.9 359.03,-151.8 362.13,-148.7 365.23,-148.7 365.23,-148.7 406.83,-148.7 406.83,-148.7 409.93,-148.7 413.03,-151.8 413.03,-154.9 413.03,-154.9 413.03,-161.1 413.03,-161.1 413.03,-164.2 409.93,-167.3 406.83,-167.3"/>
<text text-anchor="middle" x="386.03" y="-155.3" font-family="Helvetica,sans-Serif" font-size="9.00">index.js</text>

</a>
</g>
</g>
<!-- client/src/init/router.js -->
<g id="node14" class="node">
<title>client/src/init/router.js</title>
<g id="a_node12"><a xlink:href="../client/src/init/router.js" xlink:title="router.js">
<path fill="#ffffcc" stroke="black" d="M477.33,-167.3C477.33,-167.3 435.73,-167.3 435.73,-167.3 432.63,-167.3 429.53,-164.2 429.53,-161.1 429.53,-161.1 429.53,-154.9 429.53,-154.9 429.53,-151.8 432.63,-148.7 435.73,-148.7 435.73,-148.7 477.33,-148.7 477.33,-148.7 480.43,-148.7 483.53,-151.8 483.53,-154.9 483.53,-154.9 483.53,-161.1 483.53,-161.1 483.53,-164.2 480.43,-167.3 477.33,-167.3"/>
<text text-anchor="middle" x="456.53" y="-155.3" font-family="Helvetica,sans-Serif" font-size="9.00">router.js</text>

</a>
</g>
</g>
<!-- client/src/init/index.js&#45;&gt;client/src/init/router.js -->
<g id="edge12" class="edge">
<title>client/src/init/index.js&#45;&gt;client/src/init/router.js</title>
<path fill="none" stroke="#000000" stroke-width="2" stroke-opacity="0.200000" d="M413.31,-158C416.62,-158 420.02,-158 423.4,-158"/>
<polygon fill="#000000" fill-opacity="0.200000" stroke="#000000" stroke-width="2" stroke-opacity="0.200000" points="423.42,-160.1 429.42,-158 423.42,-155.9 423.42,-160.1"/>

</g>
<!-- client/src/routes.js -->
<g id="node15" class="node">
<title>client/src/routes.js</title>
<g id="a_node13"><a xlink:href="../client/src/routes.js" xlink:title="routes.js">
<path fill="#ffffcc" stroke="black" d="M94.8,-198.3C94.8,-198.3 53.21,-198.3 53.21,-198.3 50.11,-198.3 47.01,-195.2 47.01,-192.1 47.01,-192.1 47.01,-185.9 47.01,-185.9 47.01,-182.8 50.11,-179.7 53.21,-179.7 53.21,-179.7 94.8,-179.7 94.8,-179.7 97.9,-179.7 101.01,-182.8 101.01,-185.9 101.01,-185.9 101.01,-192.1 101.01,-192.1 101.01,-195.2 97.9,-198.3 94.8,-198.3"/>
<text text-anchor="middle" x="74.01" y="-186.3" font-family="Helvetica,sans-Serif" font-size="9.00">routes.js</text>

</a>
</g>
</g>
<!-- client/src/init/router.js&#45;&gt;client/src/routes.js -->
<g id="edge13" class="edge">
<title>client/src/init/router.js&#45;&gt;client/src/routes.js</title>
<path fill="none" stroke="#000000" stroke-width="2" stroke-opacity="0.200000" d="M454.47,-148.59C451.24,-121.7 440.54,-45.59 421.53,-31 355.41,19.74 313.03,-4.52 234.01,-31 159.71,-55.9 103.92,-139.37 83.49,-173.88"/>
<polygon fill="#000000" fill-opacity="0.200000" stroke="#000000" stroke-width="2" stroke-opacity="0.200000" points="81.51,-173.11 80.3,-179.35 85.14,-175.22 81.51,-173.11"/>

</g>
<!-- client/src/routes.js&#45;&gt;client/src/components/layout/page.js -->
<g id="edge16" class="edge">
<title>client/src/routes.js&#45;&gt;client/src/components/layout/page.js</title>
<path fill="none" stroke="#000000" stroke-width="2" stroke-opacity="0.200000" d="M79.25,-198.35C87.81,-216.7 108.34,-258.3 132.01,-289 142.18,-302.19 155.79,-315.3 166.24,-324.63"/>
<polygon fill="#000000" fill-opacity="0.200000" stroke="#000000" stroke-width="2" stroke-opacity="0.200000" points="164.9,-326.25 170.79,-328.64 167.68,-323.1 164.9,-326.25"/>

</g>
<!-- client/src/routes.js&#45;&gt;client/src/components/pages/home/index.js -->
<g id="edge17" class="edge">
<title>client/src/routes.js&#45;&gt;client/src/components/pages/home/index.js</title>
<path fill="none" stroke="#000000" stroke-width="2" stroke-opacity="0.200000" d="M87.26,-198.37C98.52,-206.74 115.87,-219.03 132.01,-228 138.55,-231.64 145.81,-235.12 152.72,-238.2"/>
<polygon fill="#000000" fill-opacity="0.200000" stroke="#000000" stroke-width="2" stroke-opacity="0.200000" points="152.09,-240.21 158.43,-240.69 153.77,-236.36 152.09,-240.21"/>

</g>
<!-- client/src/routes.js&#45;&gt;client/src/components/pages/questions/index.js -->
<g id="edge18" class="edge">
<title>client/src/routes.js&#45;&gt;client/src/components/pages/questions/index.js</title>
<path fill="none" stroke="#000000" stroke-width="2" stroke-opacity="0.200000" d="M101.18,-189C115.82,-189 134.19,-189 149.72,-189"/>
<polygon fill="#000000" fill-opacity="0.200000" stroke="#000000" stroke-width="2" stroke-opacity="0.200000" points="149.73,-191.1 155.73,-189 149.73,-186.9 149.73,-191.1"/>

</g>
<!-- client/src/routes.js&#45;&gt;client/src/components/pages/quiz/index.js -->
<g id="edge19" class="edge">
<title>client/src/routes.js&#45;&gt;client/src/components/pages/quiz/index.js</title>
<path fill="none" stroke="#000000" stroke-width="2" stroke-opacity="0.200000" d="M91.72,-179.47C110.1,-168.99 139.69,-152.12 159.96,-140.57"/>
<polygon fill="#000000" fill-opacity="0.200000" stroke="#000000" stroke-width="2" stroke-opacity="0.200000" points="161.24,-142.26 165.41,-137.46 159.16,-138.61 161.24,-142.26"/>

</g>
<!-- client/src/logic/reverse.spec.js -->
<g id="node17" class="node">
<title>client/src/logic/reverse.spec.js</title>
<g id="a_node14"><a xlink:href="../client/src/logic/reverse.spec.js" xlink:title="reverse.spec.js">
<path fill="#ffffcc" stroke="black" d="M318.83,-60.3C318.83,-60.3 255.21,-60.3 255.21,-60.3 252.11,-60.3 249.01,-57.2 249.01,-54.1 249.01,-54.1 249.01,-47.9 249.01,-47.9 249.01,-44.8 252.11,-41.7 255.21,-41.7 255.21,-41.7 318.83,-41.7 318.83,-41.7 321.93,-41.7 325.03,-44.8 325.03,-47.9 325.03,-47.9 325.03,-54.1 325.03,-54.1 325.03,-57.2 321.93,-60.3 318.83,-60.3"/>
<text text-anchor="middle" x="287.02" y="-48.3" font-family="Helvetica,sans-Serif" font-size="9.00">reverse.spec.js</text>

</a>
</g>
</g>
<!-- client/src/logic/reverse.spec.js&#45;&gt;client/src/logic/reverse.js -->
<g id="edge15" class="edge">
<title>client/src/logic/reverse.spec.js&#45;&gt;client/src/logic/reverse.js</title>
<path fill="none" stroke="#000000" stroke-width="2" stroke-opacity="0.200000" d="M325.25,-51C334.1,-51 343.49,-51 352.14,-51"/>
<polygon fill="#000000" fill-opacity="0.200000" stroke="#000000" stroke-width="2" stroke-opacity="0.200000" points="352.29,-53.1 358.29,-51 352.29,-48.9 352.29,-53.1"/>
</g>
<!-- client/src/questions&#45;answers.js -->
<g id="node15" class="node">
<title>client/src/questions&#45;answers.js</title>
<g id="a_node15"><a xlink:href="../client/src/questions-answers.js" xlink:title="questions&#45;answers.js">
<path fill="#ccffcc" stroke="black" d="M117.82,-105.3C117.82,-105.3 30.2,-105.3 30.2,-105.3 27.1,-105.3 23.99,-102.2 23.99,-99.1 23.99,-99.1 23.99,-92.9 23.99,-92.9 23.99,-89.8 27.1,-86.7 30.2,-86.7 30.2,-86.7 117.82,-86.7 117.82,-86.7 120.92,-86.7 124.02,-89.8 124.02,-92.9 124.02,-92.9 124.02,-99.1 124.02,-99.1 124.02,-102.2 120.92,-105.3 117.82,-105.3"/>
<text text-anchor="middle" x="74.01" y="-93.3" font-family="Helvetica,sans-Serif" font-size="9.00">questions&#45;answers.js</text>
</a>
</g>

</g>
</g>
</svg>
