<?xml version="1.0" encoding="UTF-8" standalone="no"?>
<!DOCTYPE svg PUBLIC "-//W3C//DTD SVG 1.1//EN"
 "http://www.w3.org/Graphics/SVG/1.1/DTD/svg11.dtd">
<!-- Generated by graphviz version 2.44.0 (20200408.0750)
 -->
<!-- Title: dependency&#45;cruiser output Pages: 1 -->
<svg width="622pt" height="680pt"
 viewBox="0.00 0.00 622.02 679.61" xmlns="http://www.w3.org/2000/svg" xmlns:xlink="http://www.w3.org/1999/xlink">
<g id="graph0" class="graph" transform="scale(1 1) rotate(0) translate(4 675.61)">
<title>dependency&#45;cruiser output</title>
<polygon fill="white" stroke="transparent" points="-4,4 -4,-675.61 618.02,-675.61 618.02,4 -4,4"/>
<g id="clust1" class="cluster">
<title>cluster_client</title>
<path fill="#ffffff" stroke="black" stroke-width="2" d="M20,-31.61C20,-31.61 594.02,-31.61 594.02,-31.61 600.02,-31.61 606.02,-37.61 606.02,-43.61 606.02,-43.61 606.02,-651.61 606.02,-651.61 606.02,-657.61 600.02,-663.61 594.02,-663.61 594.02,-663.61 20,-663.61 20,-663.61 14,-663.61 8,-657.61 8,-651.61 8,-651.61 8,-43.61 8,-43.61 8,-37.61 14,-31.61 20,-31.61"/>
<text text-anchor="middle" x="307.01" y="-651.51" font-family="Helvetica,sans-Serif" font-weight="bold" font-size="9.00">client</text>
</g>
<g id="clust2" class="cluster">
<title>cluster_client/src</title>
<path fill="#ffffff" stroke="black" stroke-width="2" d="M28,-39.61C28,-39.61 586.02,-39.61 586.02,-39.61 592.02,-39.61 598.02,-45.61 598.02,-51.61 598.02,-51.61 598.02,-624.61 598.02,-624.61 598.02,-630.61 592.02,-636.61 586.02,-636.61 586.02,-636.61 28,-636.61 28,-636.61 22,-636.61 16,-630.61 16,-624.61 16,-624.61 16,-51.61 16,-51.61 16,-45.61 22,-39.61 28,-39.61"/>
<text text-anchor="middle" x="307.01" y="-624.51" font-family="Helvetica,sans-Serif" font-weight="bold" font-size="9.00">src</text>
</g>
<g id="clust3" class="cluster">
<title>cluster_client/src/components</title>
<path fill="#ffffff" stroke="black" stroke-width="2" d="M142.51,-180.61C142.51,-180.61 357.26,-180.61 357.26,-180.61 363.26,-180.61 369.26,-186.61 369.26,-192.61 369.26,-192.61 369.26,-505.61 369.26,-505.61 369.26,-511.61 363.26,-517.61 357.26,-517.61 357.26,-517.61 142.51,-517.61 142.51,-517.61 136.51,-517.61 130.51,-511.61 130.51,-505.61 130.51,-505.61 130.51,-192.61 130.51,-192.61 130.51,-186.61 136.51,-180.61 142.51,-180.61"/>
<text text-anchor="middle" x="249.88" y="-505.51" font-family="Helvetica,sans-Serif" font-weight="bold" font-size="9.00">components</text>
</g>
<g id="clust4" class="cluster">
<title>cluster_client/src/components/layout</title>
<path fill="#ffffff" stroke="black" stroke-width="2" d="M158.51,-188.61C158.51,-188.61 333.51,-188.61 333.51,-188.61 339.51,-188.61 345.51,-194.61 345.51,-200.61 345.51,-200.61 345.51,-260.61 345.51,-260.61 345.51,-266.61 339.51,-272.61 333.51,-272.61 333.51,-272.61 158.51,-272.61 158.51,-272.61 152.51,-272.61 146.51,-266.61 146.51,-260.61 146.51,-260.61 146.51,-200.61 146.51,-200.61 146.51,-194.61 152.51,-188.61 158.51,-188.61"/>
<text text-anchor="middle" x="246.01" y="-260.51" font-family="Helvetica,sans-Serif" font-weight="bold" font-size="9.00">layout</text>
</g>
<g id="clust5" class="cluster">
<title>cluster_client/src/components/pages</title>
<path fill="#ffffff" stroke="black" stroke-width="2" d="M150.51,-280.61C150.51,-280.61 212.51,-280.61 212.51,-280.61 218.51,-280.61 224.51,-286.61 224.51,-292.61 224.51,-292.61 224.51,-478.61 224.51,-478.61 224.51,-484.61 218.51,-490.61 212.51,-490.61 212.51,-490.61 150.51,-490.61 150.51,-490.61 144.51,-490.61 138.51,-484.61 138.51,-478.61 138.51,-478.61 138.51,-292.61 138.51,-292.61 138.51,-286.61 144.51,-280.61 150.51,-280.61"/>
<text text-anchor="middle" x="181.51" y="-478.51" font-family="Helvetica,sans-Serif" font-weight="bold" font-size="9.00">pages</text>
</g>
<g id="clust6" class="cluster">
<title>cluster_client/src/components/pages/home</title>
<path fill="#ffffff" stroke="black" stroke-width="2" d="M158.51,-349.61C158.51,-349.61 204.51,-349.61 204.51,-349.61 210.51,-349.61 216.51,-355.61 216.51,-361.61 216.51,-361.61 216.51,-390.61 216.51,-390.61 216.51,-396.61 210.51,-402.61 204.51,-402.61 204.51,-402.61 158.51,-402.61 158.51,-402.61 152.51,-402.61 146.51,-396.61 146.51,-390.61 146.51,-390.61 146.51,-361.61 146.51,-361.61 146.51,-355.61 152.51,-349.61 158.51,-349.61"/>
<text text-anchor="middle" x="181.51" y="-390.51" font-family="Helvetica,sans-Serif" font-weight="bold" font-size="9.00">home</text>
</g>
<g id="clust7" class="cluster">
<title>cluster_client/src/components/pages/questions</title>
<path fill="#ffffff" stroke="black" stroke-width="2" d="M158.51,-410.61C158.51,-410.61 204.51,-410.61 204.51,-410.61 210.51,-410.61 216.51,-416.61 216.51,-422.61 216.51,-422.61 216.51,-451.61 216.51,-451.61 216.51,-457.61 210.51,-463.61 204.51,-463.61 204.51,-463.61 158.51,-463.61 158.51,-463.61 152.51,-463.61 146.51,-457.61 146.51,-451.61 146.51,-451.61 146.51,-422.61 146.51,-422.61 146.51,-416.61 152.51,-410.61 158.51,-410.61"/>
<text text-anchor="middle" x="181.51" y="-451.51" font-family="Helvetica,sans-Serif" font-weight="bold" font-size="9.00">questions</text>
</g>
<g id="clust8" class="cluster">
<title>cluster_client/src/components/pages/quiz</title>
<path fill="#ffffff" stroke="black" stroke-width="2" d="M158.51,-288.61C158.51,-288.61 204.51,-288.61 204.51,-288.61 210.51,-288.61 216.51,-294.61 216.51,-300.61 216.51,-300.61 216.51,-329.61 216.51,-329.61 216.51,-335.61 210.51,-341.61 204.51,-341.61 204.51,-341.61 158.51,-341.61 158.51,-341.61 152.51,-341.61 146.51,-335.61 146.51,-329.61 146.51,-329.61 146.51,-300.61 146.51,-300.61 146.51,-294.61 152.51,-288.61 158.51,-288.61"/>
<text text-anchor="middle" x="181.51" y="-329.51" font-family="Helvetica,sans-Serif" font-weight="bold" font-size="9.00">quiz</text>
</g>
<g id="clust9" class="cluster">
<title>cluster_client/src/components/shared</title>
<path fill="#ffffff" stroke="black" stroke-width="2" d="M271.76,-286.61C271.76,-286.61 349.26,-286.61 349.26,-286.61 355.26,-286.61 361.26,-292.61 361.26,-298.61 361.26,-298.61 361.26,-451.61 361.26,-451.61 361.26,-457.61 355.26,-463.61 349.26,-463.61 349.26,-463.61 271.76,-463.61 271.76,-463.61 265.76,-463.61 259.76,-457.61 259.76,-451.61 259.76,-451.61 259.76,-298.61 259.76,-298.61 259.76,-292.61 265.76,-286.61 271.76,-286.61"/>
<text text-anchor="middle" x="310.51" y="-451.51" font-family="Helvetica,sans-Serif" font-weight="bold" font-size="9.00">shared</text>
</g>
<g id="clust10" class="cluster">
<title>cluster_client/src/handlers</title>
<path fill="#ffffff" stroke="black" stroke-width="2" d="M269.5,-525.61C269.5,-525.61 351.52,-525.61 351.52,-525.61 357.52,-525.61 363.52,-531.61 363.52,-537.61 363.52,-537.61 363.52,-597.61 363.52,-597.61 363.52,-603.61 357.52,-609.61 351.52,-609.61 351.52,-609.61 269.5,-609.61 269.5,-609.61 263.5,-609.61 257.5,-603.61 257.5,-597.61 257.5,-597.61 257.5,-537.61 257.5,-537.61 257.5,-531.61 263.5,-525.61 269.5,-525.61"/>
<text text-anchor="middle" x="310.51" y="-597.51" font-family="Helvetica,sans-Serif" font-weight="bold" font-size="9.00">handlers</text>
</g>
<g id="clust11" class="cluster">
<title>cluster_client/src/init</title>
<path fill="#ffffff" stroke="black" stroke-width="2" d="M429.77,-494.61C429.77,-494.61 578.02,-494.61 578.02,-494.61 584.02,-494.61 590.02,-500.61 590.02,-506.61 590.02,-506.61 590.02,-566.61 590.02,-566.61 590.02,-572.61 584.02,-578.61 578.02,-578.61 578.02,-578.61 429.77,-578.61 429.77,-578.61 423.77,-578.61 417.77,-572.61 417.77,-566.61 417.77,-566.61 417.77,-506.61 417.77,-506.61 417.77,-500.61 423.77,-494.61 429.77,-494.61"/>
<text text-anchor="middle" x="503.89" y="-566.51" font-family="Helvetica,sans-Serif" font-weight="bold" font-size="9.00">init</text>
</g>
<g id="clust12" class="cluster">
<title>cluster_client/src/logic</title>
<path fill="#ffffff" stroke="black" stroke-width="2" d="M244.51,-57.61C244.51,-57.61 508.02,-57.61 508.02,-57.61 514.02,-57.61 520.02,-63.61 520.02,-69.61 520.02,-69.61 520.02,-160.61 520.02,-160.61 520.02,-166.61 514.02,-172.61 508.02,-172.61 508.02,-172.61 244.51,-172.61 244.51,-172.61 238.51,-172.61 232.51,-166.61 232.51,-160.61 232.51,-160.61 232.51,-69.61 232.51,-69.61 232.51,-63.61 238.51,-57.61 244.51,-57.61"/>
<text text-anchor="middle" x="376.26" y="-160.51" font-family="Helvetica,sans-Serif" font-weight="bold" font-size="9.00">logic</text>
</g>
<!-- client/src/components/layout/footer.js -->
<g id="node1" class="node">
<title>client/src/components/layout/footer.js</title>
<g id="a_node1"><a xlink:href="../client/src/components/layout/footer.js" xlink:title="footer.js">
<path fill="#ffffcc" stroke="black" d="M331.31,-214.91C331.31,-214.91 289.71,-214.91 289.71,-214.91 286.61,-214.91 283.51,-211.81 283.51,-208.71 283.51,-208.71 283.51,-202.51 283.51,-202.51 283.51,-199.41 286.61,-196.31 289.71,-196.31 289.71,-196.31 331.31,-196.31 331.31,-196.31 334.41,-196.31 337.51,-199.41 337.51,-202.51 337.51,-202.51 337.51,-208.71 337.51,-208.71 337.51,-211.81 334.41,-214.91 331.31,-214.91"/>
<text text-anchor="middle" x="310.51" y="-202.91" font-family="Helvetica,sans-Serif" font-size="9.00">footer.js</text>
</a>
</g>
</g>
<!-- client/src/components/layout/navbar.js -->
<g id="node2" class="node">
<title>client/src/components/layout/navbar.js</title>
<g id="a_node2"><a xlink:href="../client/src/components/layout/navbar.js" xlink:title="navbar.js">
<path fill="#ffffcc" stroke="black" d="M331.31,-245.91C331.31,-245.91 289.71,-245.91 289.71,-245.91 286.61,-245.91 283.51,-242.81 283.51,-239.71 283.51,-239.71 283.51,-233.51 283.51,-233.51 283.51,-230.41 286.61,-227.31 289.71,-227.31 289.71,-227.31 331.31,-227.31 331.31,-227.31 334.41,-227.31 337.51,-230.41 337.51,-233.51 337.51,-233.51 337.51,-239.71 337.51,-239.71 337.51,-242.81 334.41,-245.91 331.31,-245.91"/>
<text text-anchor="middle" x="310.51" y="-233.91" font-family="Helvetica,sans-Serif" font-size="9.00">navbar.js</text>
</a>
</g>
</g>
<!-- client/src/components/layout/page.js -->
<g id="node3" class="node">
<title>client/src/components/layout/page.js</title>
<g id="a_node3"><a xlink:href="../client/src/components/layout/page.js" xlink:title="page.js">
<path fill="#ffffcc" stroke="black" d="M202.31,-245.91C202.31,-245.91 160.71,-245.91 160.71,-245.91 157.61,-245.91 154.51,-242.81 154.51,-239.71 154.51,-239.71 154.51,-233.51 154.51,-233.51 154.51,-230.41 157.61,-227.31 160.71,-227.31 160.71,-227.31 202.31,-227.31 202.31,-227.31 205.41,-227.31 208.51,-230.41 208.51,-233.51 208.51,-233.51 208.51,-239.71 208.51,-239.71 208.51,-242.81 205.41,-245.91 202.31,-245.91"/>
<text text-anchor="middle" x="181.51" y="-233.91" font-family="Helvetica,sans-Serif" font-size="9.00">page.js</text>
</a>
</g>
</g>
<!-- client/src/components/layout/page.js&#45;&gt;client/src/components/layout/footer.js -->
<g id="edge1" class="edge">
<title>client/src/components/layout/page.js&#45;&gt;client/src/components/layout/footer.js</title>
<path fill="none" stroke="#000000" stroke-width="2" stroke-opacity="0.200000" d="M208.6,-228.31C216.26,-226.01 224.69,-223.59 232.51,-221.61 247.08,-217.91 263.37,-214.44 277.2,-211.67"/>
<polygon fill="#000000" fill-opacity="0.200000" stroke="#000000" stroke-width="2" stroke-opacity="0.200000" points="277.88,-213.68 283.36,-210.46 277.07,-209.56 277.88,-213.68"/>
</g>
<!-- client/src/components/layout/page.js&#45;&gt;client/src/components/layout/navbar.js -->
<g id="edge2" class="edge">
<title>client/src/components/layout/page.js&#45;&gt;client/src/components/layout/navbar.js</title>
<path fill="none" stroke="#000000" stroke-width="2" stroke-opacity="0.200000" d="M208.51,-236.61C228.33,-236.61 255.73,-236.61 277,-236.61"/>
<polygon fill="#000000" fill-opacity="0.200000" stroke="#000000" stroke-width="2" stroke-opacity="0.200000" points="277.1,-238.71 283.1,-236.61 277.1,-234.51 277.1,-238.71"/>
</g>
<!-- client/src/components/layout/table.js -->
<g id="node4" class="node">
<title>client/src/components/layout/table.js</title>
<g id="a_node4"><a xlink:href="../client/src/components/layout/table.js" xlink:title="table.js">
<path fill="#ffffcc" stroke="black" d="M202.31,-214.91C202.31,-214.91 160.71,-214.91 160.71,-214.91 157.61,-214.91 154.51,-211.81 154.51,-208.71 154.51,-208.71 154.51,-202.51 154.51,-202.51 154.51,-199.41 157.61,-196.31 160.71,-196.31 160.71,-196.31 202.31,-196.31 202.31,-196.31 205.41,-196.31 208.51,-199.41 208.51,-202.51 208.51,-202.51 208.51,-208.71 208.51,-208.71 208.51,-211.81 205.41,-214.91 202.31,-214.91"/>
<text text-anchor="middle" x="181.51" y="-202.91" font-family="Helvetica,sans-Serif" font-size="9.00">table.js</text>
</a>
</g>
</g>
<!-- client/src/logic/camelCaseToTitleCase.js -->
<g id="node5" class="node">
<title>client/src/logic/camelCaseToTitleCase.js</title>
<g id="a_node5"><a xlink:href="../client/src/logic/camelCaseToTitleCase.js" xlink:title="camelCaseToTitleCase.js">
<path fill="#ffffcc" stroke="black" d="M505.57,-99.91C505.57,-99.91 399.96,-99.91 399.96,-99.91 396.86,-99.91 393.76,-96.81 393.76,-93.71 393.76,-93.71 393.76,-87.51 393.76,-87.51 393.76,-84.41 396.86,-81.31 399.96,-81.31 399.96,-81.31 505.57,-81.31 505.57,-81.31 508.67,-81.31 511.77,-84.41 511.77,-87.51 511.77,-87.51 511.77,-93.71 511.77,-93.71 511.77,-96.81 508.67,-99.91 505.57,-99.91"/>
<text text-anchor="middle" x="452.77" y="-87.91" font-family="Helvetica,sans-Serif" font-size="9.00">camelCaseToTitleCase.js</text>
</a>
</g>
</g>
<!-- client/src/components/layout/table.js&#45;&gt;client/src/logic/camelCaseToTitleCase.js -->
<g id="edge3" class="edge">
<title>client/src/components/layout/table.js&#45;&gt;client/src/logic/camelCaseToTitleCase.js</title>
<path fill="none" stroke="#000000" stroke-width="2" stroke-opacity="0.200000" d="M208.67,-197.58C216.33,-195.27 224.74,-192.79 232.51,-190.61 297.99,-172.16 328.92,-195.94 380.52,-151.61 391.54,-142.14 383.66,-132.29 393.52,-121.61 400.85,-113.66 410.71,-107.35 420.22,-102.56"/>
<polygon fill="#000000" fill-opacity="0.200000" stroke="#000000" stroke-width="2" stroke-opacity="0.200000" points="421.25,-104.4 425.76,-99.91 419.44,-100.61 421.25,-104.4"/>
</g>
<!-- client/src/components/pages/home/index.js -->
<g id="node6" class="node">
<title>client/src/components/pages/home/index.js</title>
<g id="a_node6"><a xlink:href="../client/src/components/pages/home/index.js" xlink:title="index.js">
<path fill="#ffffcc" stroke="black" d="M202.31,-375.91C202.31,-375.91 160.71,-375.91 160.71,-375.91 157.61,-375.91 154.51,-372.81 154.51,-369.71 154.51,-369.71 154.51,-363.51 154.51,-363.51 154.51,-360.41 157.61,-357.31 160.71,-357.31 160.71,-357.31 202.31,-357.31 202.31,-357.31 205.41,-357.31 208.51,-360.41 208.51,-363.51 208.51,-363.51 208.51,-369.71 208.51,-369.71 208.51,-372.81 205.41,-375.91 202.31,-375.91"/>
<text text-anchor="middle" x="181.51" y="-363.91" font-family="Helvetica,sans-Serif" font-size="9.00">index.js</text>
</a>
</g>
</g>
<!-- client/src/handlers/start&#45;quiz.js -->
<g id="node7" class="node">
<title>client/src/handlers/start&#45;quiz.js</title>
<g id="a_node7"><a xlink:href="../client/src/handlers/start-quiz.js" xlink:title="start&#45;quiz.js">
<path fill="#ffffcc" stroke="black" d="M335.31,-582.91C335.31,-582.91 285.71,-582.91 285.71,-582.91 282.61,-582.91 279.51,-579.81 279.51,-576.71 279.51,-576.71 279.51,-570.51 279.51,-570.51 279.51,-567.41 282.61,-564.31 285.71,-564.31 285.71,-564.31 335.31,-564.31 335.31,-564.31 338.41,-564.31 341.51,-567.41 341.51,-570.51 341.51,-570.51 341.51,-576.71 341.51,-576.71 341.51,-579.81 338.41,-582.91 335.31,-582.91"/>
<text text-anchor="middle" x="310.51" y="-570.91" font-family="Helvetica,sans-Serif" font-size="9.00">start&#45;quiz.js</text>
</a>
</g>
</g>
<!-- client/src/components/pages/home/index.js&#45;&gt;client/src/handlers/start&#45;quiz.js -->
<g id="edge4" class="edge">
<title>client/src/components/pages/home/index.js&#45;&gt;client/src/handlers/start&#45;quiz.js</title>
<path fill="none" stroke="#000000" stroke-width="2" stroke-opacity="0.200000" d="M196.52,-375.92C206.27,-383.25 218.54,-394.43 224.51,-407.61 231.39,-422.81 221.63,-544.95 232.51,-557.61 240.72,-567.17 253.01,-571.91 265.38,-574.07"/>
<polygon fill="#000000" fill-opacity="0.200000" stroke="#000000" stroke-width="2" stroke-opacity="0.200000" points="272.98,-576.99 279.16,-575.53 273.42,-572.81 272.98,-576.99"/>
<polyline fill="none" stroke="#000000" stroke-width="2" stroke-opacity="0.200000" points="273.2,-574.9 270.21,-574.59 "/>
<ellipse fill="none" stroke="#000000" stroke-width="2" stroke-opacity="0.200000" cx="267.83" cy="-574.33" rx="2.4" ry="2.4"/>
</g>
<!-- client/src/components/shared/button.js -->
<g id="node8" class="node">
<title>client/src/components/shared/button.js</title>
<g id="a_node8"><a xlink:href="../client/src/components/shared/button.js" xlink:title="button.js">
<path fill="#ffffcc" stroke="black" d="M331.31,-374.91C331.31,-374.91 289.71,-374.91 289.71,-374.91 286.61,-374.91 283.51,-371.81 283.51,-368.71 283.51,-368.71 283.51,-362.51 283.51,-362.51 283.51,-359.41 286.61,-356.31 289.71,-356.31 289.71,-356.31 331.31,-356.31 331.31,-356.31 334.41,-356.31 337.51,-359.41 337.51,-362.51 337.51,-362.51 337.51,-368.71 337.51,-368.71 337.51,-371.81 334.41,-374.91 331.31,-374.91"/>
<text text-anchor="middle" x="310.51" y="-362.91" font-family="Helvetica,sans-Serif" font-size="9.00">button.js</text>
</a>
</g>
</g>
<!-- client/src/components/pages/home/index.js&#45;&gt;client/src/components/shared/button.js -->
<g id="edge5" class="edge">
<title>client/src/components/pages/home/index.js&#45;&gt;client/src/components/shared/button.js</title>
<path fill="none" stroke="#000000" stroke-width="2" stroke-opacity="0.200000" d="M208.51,-366.4C228.33,-366.25 255.73,-366.03 277,-365.86"/>
<polygon fill="#000000" fill-opacity="0.200000" stroke="#000000" stroke-width="2" stroke-opacity="0.200000" points="277.12,-367.96 283.1,-365.82 277.09,-363.76 277.12,-367.96"/>
</g>
<!-- client/src/components/shared/title&#45;description.js -->
<g id="node9" class="node">
<title>client/src/components/shared/title&#45;description.js</title>
<g id="a_node9"><a xlink:href="../client/src/components/shared/title-description.js" xlink:title="title&#45;description.js">
<path fill="#ffffcc" stroke="black" d="M346.81,-405.91C346.81,-405.91 274.21,-405.91 274.21,-405.91 271.11,-405.91 268.01,-402.81 268.01,-399.71 268.01,-399.71 268.01,-393.51 268.01,-393.51 268.01,-390.41 271.11,-387.31 274.21,-387.31 274.21,-387.31 346.81,-387.31 346.81,-387.31 349.91,-387.31 353.01,-390.41 353.01,-393.51 353.01,-393.51 353.01,-399.71 353.01,-399.71 353.01,-402.81 349.91,-405.91 346.81,-405.91"/>
<text text-anchor="middle" x="310.51" y="-393.91" font-family="Helvetica,sans-Serif" font-size="9.00">title&#45;description.js</text>
</a>
</g>
</g>
<!-- client/src/components/pages/home/index.js&#45;&gt;client/src/components/shared/title&#45;description.js -->
<g id="edge6" class="edge">
<title>client/src/components/pages/home/index.js&#45;&gt;client/src/components/shared/title&#45;description.js</title>
<path fill="none" stroke="#000000" stroke-width="2" stroke-opacity="0.200000" d="M208.63,-374.28C216.29,-376.44 224.71,-378.71 232.51,-380.61 241.95,-382.91 252.11,-385.17 261.84,-387.23"/>
<polygon fill="#000000" fill-opacity="0.200000" stroke="#000000" stroke-width="2" stroke-opacity="0.200000" points="261.53,-389.31 267.83,-388.49 262.39,-385.2 261.53,-389.31"/>
</g>
<!-- client/src/init/state.js -->
<g id="node14" class="node">
<title>client/src/init/state.js</title>
<g id="a_node14"><a xlink:href="../client/src/init/state.js" xlink:title="state.js">
<path fill="#ffffcc" stroke="black" d="M473.57,-551.91C473.57,-551.91 431.97,-551.91 431.97,-551.91 428.87,-551.91 425.77,-548.81 425.77,-545.71 425.77,-545.71 425.77,-539.51 425.77,-539.51 425.77,-536.41 428.87,-533.31 431.97,-533.31 431.97,-533.31 473.57,-533.31 473.57,-533.31 476.67,-533.31 479.77,-536.41 479.77,-539.51 479.77,-539.51 479.77,-545.71 479.77,-545.71 479.77,-548.81 476.67,-551.91 473.57,-551.91"/>
<text text-anchor="middle" x="452.77" y="-539.91" font-family="Helvetica,sans-Serif" font-size="9.00">state.js</text>
</a>
</g>
</g>
<!-- client/src/handlers/start&#45;quiz.js&#45;&gt;client/src/init/state.js -->
<g id="edge15" class="edge">
<title>client/src/handlers/start&#45;quiz.js&#45;&gt;client/src/init/state.js</title>
<path fill="none" stroke="#000000" stroke-width="2" stroke-opacity="0.200000" d="M341.6,-566.96C364.51,-561.89 395.98,-554.94 419.42,-549.76"/>
<polygon fill="#000000" fill-opacity="0.200000" stroke="#000000" stroke-width="2" stroke-opacity="0.200000" points="420.1,-551.76 425.51,-548.41 419.19,-547.66 420.1,-551.76"/>
</g>
<!-- client/src/init/router.js -->
<g id="node18" class="node">
<title>client/src/init/router.js</title>
<g id="a_node18"><a xlink:href="../client/src/init/router.js" xlink:title="router.js">
<path fill="#ffffcc" stroke="black" d="M575.82,-520.91C575.82,-520.91 534.22,-520.91 534.22,-520.91 531.12,-520.91 528.02,-517.81 528.02,-514.71 528.02,-514.71 528.02,-508.51 528.02,-508.51 528.02,-505.41 531.12,-502.31 534.22,-502.31 534.22,-502.31 575.82,-502.31 575.82,-502.31 578.92,-502.31 582.02,-505.41 582.02,-508.51 582.02,-508.51 582.02,-514.71 582.02,-514.71 582.02,-517.81 578.92,-520.91 575.82,-520.91"/>
<text text-anchor="middle" x="555.02" y="-508.91" font-family="Helvetica,sans-Serif" font-size="9.00">router.js</text>
</a>
</g>
</g>
<!-- client/src/handlers/start&#45;quiz.js&#45;&gt;client/src/init/router.js -->
<g id="edge14" class="edge">
<title>client/src/handlers/start&#45;quiz.js&#45;&gt;client/src/init/router.js</title>
<path fill="none" stroke="#000000" stroke-width="2" stroke-opacity="0.200000" d="M341.68,-578.72C384.31,-584.38 463.32,-588.99 520.02,-557.61 529.94,-552.12 537.78,-542.37 543.42,-533.25"/>
<polygon fill="#000000" fill-opacity="0.200000" stroke="#000000" stroke-width="2" stroke-opacity="0.200000" points="549.08,-527.2 550.09,-520.93 545.38,-525.2 549.08,-527.2"/>
<polyline fill="none" stroke="#000000" stroke-width="2" stroke-opacity="0.200000" points="547.23,-526.2 545.8,-528.84 "/>
<ellipse fill="none" stroke="#000000" stroke-width="2" stroke-opacity="0.200000" cx="544.66" cy="-530.95" rx="2.4" ry="2.4"/>
</g>
<!-- client/src/components/pages/questions/index.js -->
<g id="node10" class="node">
<title>client/src/components/pages/questions/index.js</title>
<g id="a_node10"><a xlink:href="../client/src/components/pages/questions/index.js" xlink:title="index.js">
<path fill="#ffffcc" stroke="black" d="M202.31,-436.91C202.31,-436.91 160.71,-436.91 160.71,-436.91 157.61,-436.91 154.51,-433.81 154.51,-430.71 154.51,-430.71 154.51,-424.51 154.51,-424.51 154.51,-421.41 157.61,-418.31 160.71,-418.31 160.71,-418.31 202.31,-418.31 202.31,-418.31 205.41,-418.31 208.51,-421.41 208.51,-424.51 208.51,-424.51 208.51,-430.71 208.51,-430.71 208.51,-433.81 205.41,-436.91 202.31,-436.91"/>
<text text-anchor="middle" x="181.51" y="-424.91" font-family="Helvetica,sans-Serif" font-size="9.00">index.js</text>
</a>
</g>
</g>
<!-- client/src/components/shared/input&#45;greeting.js -->
<g id="node11" class="node">
<title>client/src/components/shared/input&#45;greeting.js</title>
<g id="a_node11"><a xlink:href="../client/src/components/shared/input-greeting.js" xlink:title="input&#45;greeting.js">
<path fill="#ffffcc" stroke="black" d="M344.32,-436.91C344.32,-436.91 276.7,-436.91 276.7,-436.91 273.6,-436.91 270.5,-433.81 270.5,-430.71 270.5,-430.71 270.5,-424.51 270.5,-424.51 270.5,-421.41 273.6,-418.31 276.7,-418.31 276.7,-418.31 344.32,-418.31 344.32,-418.31 347.42,-418.31 350.52,-421.41 350.52,-424.51 350.52,-424.51 350.52,-430.71 350.52,-430.71 350.52,-433.81 347.42,-436.91 344.32,-436.91"/>
<text text-anchor="middle" x="310.51" y="-424.91" font-family="Helvetica,sans-Serif" font-size="9.00">input&#45;greeting.js</text>
</a>
</g>
</g>
<!-- client/src/components/pages/questions/index.js&#45;&gt;client/src/components/shared/input&#45;greeting.js -->
<g id="edge7" class="edge">
<title>client/src/components/pages/questions/index.js&#45;&gt;client/src/components/shared/input&#45;greeting.js</title>
<path fill="none" stroke="#000000" stroke-width="2" stroke-opacity="0.200000" d="M208.51,-427.61C224.42,-427.61 245.22,-427.61 263.81,-427.61"/>
<polygon fill="#000000" fill-opacity="0.200000" stroke="#000000" stroke-width="2" stroke-opacity="0.200000" points="264.02,-429.71 270.02,-427.61 264.02,-425.51 264.02,-429.71"/>
</g>
<!-- client/src/handlers/change&#45;greeting.js -->
<g id="node13" class="node">
<title>client/src/handlers/change&#45;greeting.js</title>
<g id="a_node13"><a xlink:href="../client/src/handlers/change-greeting.js" xlink:title="change&#45;greeting.js">
<path fill="#ffffcc" stroke="black" d="M349.33,-551.91C349.33,-551.91 271.69,-551.91 271.69,-551.91 268.59,-551.91 265.49,-548.81 265.49,-545.71 265.49,-545.71 265.49,-539.51 265.49,-539.51 265.49,-536.41 268.59,-533.31 271.69,-533.31 271.69,-533.31 349.33,-533.31 349.33,-533.31 352.43,-533.31 355.53,-536.41 355.53,-539.51 355.53,-539.51 355.53,-545.71 355.53,-545.71 355.53,-548.81 352.43,-551.91 349.33,-551.91"/>
<text text-anchor="middle" x="310.51" y="-539.91" font-family="Helvetica,sans-Serif" font-size="9.00">change&#45;greeting.js</text>
</a>
</g>
</g>
<!-- client/src/components/shared/input&#45;greeting.js&#45;&gt;client/src/handlers/change&#45;greeting.js -->
<g id="edge9" class="edge">
<title>client/src/components/shared/input&#45;greeting.js&#45;&gt;client/src/handlers/change&#45;greeting.js</title>
<path fill="none" stroke="#000000" stroke-width="2" stroke-opacity="0.200000" d="M310.51,-437.04C310.51,-467.07 310.51,-497.09 310.51,-527.12"/>
<polygon fill="#000000" fill-opacity="0.200000" stroke="#000000" stroke-width="2" stroke-opacity="0.200000" points="308.41,-527.12 310.51,-533.12 312.61,-527.12 308.41,-527.12"/>
</g>
<!-- client/src/components/shared/input&#45;greeting.js&#45;&gt;client/src/init/state.js -->
<g id="edge10" class="edge">
<title>client/src/components/shared/input&#45;greeting.js&#45;&gt;client/src/init/state.js</title>
<path fill="none" stroke="#000000" stroke-width="2" stroke-opacity="0.200000" d="M316.69,-437.16C327.93,-456.99 356.58,-502.75 393.52,-526.61 401.32,-531.65 410.69,-535.11 419.62,-537.49"/>
<polygon fill="#000000" fill-opacity="0.200000" stroke="#000000" stroke-width="2" stroke-opacity="0.200000" points="419.38,-539.6 425.7,-538.97 420.37,-535.52 419.38,-539.6"/>
</g>
<!-- client/src/logic/reverse.js -->
<g id="node15" class="node">
<title>client/src/logic/reverse.js</title>
<g id="a_node15"><a xlink:href="../client/src/logic/reverse.js" xlink:title="reverse.js">
<path fill="#ffffcc" stroke="black" d="M474.07,-145.91C474.07,-145.91 431.47,-145.91 431.47,-145.91 428.37,-145.91 425.27,-142.81 425.27,-139.71 425.27,-139.71 425.27,-133.51 425.27,-133.51 425.27,-130.41 428.37,-127.31 431.47,-127.31 431.47,-127.31 474.07,-127.31 474.07,-127.31 477.17,-127.31 480.27,-130.41 480.27,-133.51 480.27,-133.51 480.27,-139.71 480.27,-139.71 480.27,-142.81 477.17,-145.91 474.07,-145.91"/>
<text text-anchor="middle" x="452.77" y="-133.91" font-family="Helvetica,sans-Serif" font-size="9.00">reverse.js</text>
</a>
</g>
</g>
<!-- client/src/components/shared/input&#45;greeting.js&#45;&gt;client/src/logic/reverse.js -->
<g id="edge11" class="edge">
<title>client/src/components/shared/input&#45;greeting.js&#45;&gt;client/src/logic/reverse.js</title>
<path fill="none" stroke="#000000" stroke-width="2" stroke-opacity="0.200000" d="M350.57,-425.97C361.47,-423.7 372.5,-419.42 380.52,-411.61 418.62,-374.47 443.11,-204.57 449.86,-152.09"/>
<polygon fill="#000000" fill-opacity="0.200000" stroke="#000000" stroke-width="2" stroke-opacity="0.200000" points="451.96,-152.24 450.63,-146.02 447.8,-151.71 451.96,-152.24"/>
</g>
<!-- client/src/components/pages/quiz/index.js -->
<g id="node12" class="node">
<title>client/src/components/pages/quiz/index.js</title>
<g id="a_node12"><a xlink:href="../client/src/components/pages/quiz/index.js" xlink:title="index.js">
<path fill="#ffffcc" stroke="black" d="M202.31,-314.91C202.31,-314.91 160.71,-314.91 160.71,-314.91 157.61,-314.91 154.51,-311.81 154.51,-308.71 154.51,-308.71 154.51,-302.51 154.51,-302.51 154.51,-299.41 157.61,-296.31 160.71,-296.31 160.71,-296.31 202.31,-296.31 202.31,-296.31 205.41,-296.31 208.51,-299.41 208.51,-302.51 208.51,-302.51 208.51,-308.71 208.51,-308.71 208.51,-311.81 205.41,-314.91 202.31,-314.91"/>
<text text-anchor="middle" x="181.51" y="-302.91" font-family="Helvetica,sans-Serif" font-size="9.00">index.js</text>
</a>
</g>
</g>
<!-- client/src/components/pages/quiz/index.js&#45;&gt;client/src/components/shared/input&#45;greeting.js -->
<g id="edge8" class="edge">
<title>client/src/components/pages/quiz/index.js&#45;&gt;client/src/components/shared/input&#45;greeting.js</title>
<path fill="none" stroke="#000000" stroke-width="2" stroke-opacity="0.200000" d="M196.25,-315.04C205.86,-322.44 218.08,-333.64 224.51,-346.61 237.43,-372.69 212.79,-390.2 232.51,-411.61 240.7,-420.5 252.44,-425.16 264.29,-427.44"/>
<polygon fill="#000000" fill-opacity="0.200000" stroke="#000000" stroke-width="2" stroke-opacity="0.200000" points="264.22,-429.56 270.48,-428.43 264.89,-425.41 264.22,-429.56"/>
</g>
<!-- client/src/handlers/change&#45;greeting.js&#45;&gt;client/src/init/state.js -->
<g id="edge12" class="edge">
<title>client/src/handlers/change&#45;greeting.js&#45;&gt;client/src/init/state.js</title>
<path fill="none" stroke="#000000" stroke-width="2" stroke-opacity="0.200000" d="M355.89,-542.61C376.51,-542.61 400.58,-542.61 419.45,-542.61"/>
<polygon fill="#000000" fill-opacity="0.200000" stroke="#000000" stroke-width="2" stroke-opacity="0.200000" points="419.63,-544.71 425.63,-542.61 419.63,-540.51 419.63,-544.71"/>
</g>
<!-- client/src/handlers/change&#45;greeting.js&#45;&gt;client/src/logic/reverse.js -->
<g id="edge13" class="edge">
<title>client/src/handlers/change&#45;greeting.js&#45;&gt;client/src/logic/reverse.js</title>
<path fill="none" stroke="#000000" stroke-width="2" stroke-opacity="0.200000" d="M323.31,-533.15C338.94,-519.96 366.17,-494.5 380.52,-466.61 437.47,-355.84 448.97,-201.58 451.23,-152.36"/>
<polygon fill="#000000" fill-opacity="0.200000" stroke="#000000" stroke-width="2" stroke-opacity="0.200000" points="453.34,-152.21 451.49,-146.12 449.14,-152.03 453.34,-152.21"/>
</g>
<!-- client/src/components/shared/options.js -->
<g id="node16" class="node">
<title>client/src/components/shared/options.js</title>
<g id="a_node16"><a xlink:href="../client/src/components/shared/options.js" xlink:title="options.js">
<path fill="#ccffcc" stroke="black" d="M331.32,-343.91C331.32,-343.91 289.7,-343.91 289.7,-343.91 286.6,-343.91 283.5,-340.81 283.5,-337.71 283.5,-337.71 283.5,-331.51 283.5,-331.51 283.5,-328.41 286.6,-325.31 289.7,-325.31 289.7,-325.31 331.32,-325.31 331.32,-325.31 334.42,-325.31 337.52,-328.41 337.52,-331.51 337.52,-331.51 337.52,-337.71 337.52,-337.71 337.52,-340.81 334.42,-343.91 331.32,-343.91"/>
<text text-anchor="middle" x="310.51" y="-331.91" font-family="Helvetica,sans-Serif" font-size="9.00">options.js</text>
</a>
</g>
</g>
<!-- client/src/components/shared/progress&#45;bar.js -->
<g id="node17" class="node">
<title>client/src/components/shared/progress&#45;bar.js</title>
<g id="a_node17"><a xlink:href="../client/src/components/shared/progress-bar.js" xlink:title="progress&#45;bar.js">
<path fill="#ccffcc" stroke="black" d="M342.31,-312.91C342.31,-312.91 278.71,-312.91 278.71,-312.91 275.61,-312.91 272.51,-309.81 272.51,-306.71 272.51,-306.71 272.51,-300.51 272.51,-300.51 272.51,-297.41 275.61,-294.31 278.71,-294.31 278.71,-294.31 342.31,-294.31 342.31,-294.31 345.41,-294.31 348.51,-297.41 348.51,-300.51 348.51,-300.51 348.51,-306.71 348.51,-306.71 348.51,-309.81 345.41,-312.91 342.31,-312.91"/>
<text text-anchor="middle" x="310.51" y="-300.91" font-family="Helvetica,sans-Serif" font-size="9.00">progress&#45;bar.js</text>
</a>
</g>
</g>
<!-- client/src/routes.js -->
<g id="node20" class="node">
<title>client/src/routes.js</title>
<g id="a_node20"><a xlink:href="../client/src/routes.js" xlink:title="routes.js">
<path fill="#ffffcc" stroke="black" d="M94.05,-314.91C94.05,-314.91 52.45,-314.91 52.45,-314.91 49.35,-314.91 46.25,-311.81 46.25,-308.71 46.25,-308.71 46.25,-302.51 46.25,-302.51 46.25,-299.41 49.35,-296.31 52.45,-296.31 52.45,-296.31 94.05,-296.31 94.05,-296.31 97.15,-296.31 100.25,-299.41 100.25,-302.51 100.25,-302.51 100.25,-308.71 100.25,-308.71 100.25,-311.81 97.15,-314.91 94.05,-314.91"/>
<text text-anchor="middle" x="73.25" y="-302.91" font-family="Helvetica,sans-Serif" font-size="9.00">routes.js</text>
</a>
</g>
</g>
<!-- client/src/init/router.js&#45;&gt;client/src/routes.js -->
<g id="edge17" class="edge">
<title>client/src/init/router.js&#45;&gt;client/src/routes.js</title>
<path fill="none" stroke="#000000" stroke-width="2" stroke-opacity="0.200000" d="M554.07,-501.97C554.29,-438.84 553.98,-86.14 520.02,-54.61 426.37,32.33 347.31,1.5 232.51,-54.61 139.19,-100.22 94.7,-229.68 80.01,-282.62"/>
<polygon fill="#000000" fill-opacity="0.200000" stroke="#000000" stroke-width="2" stroke-opacity="0.200000" points="75.94,-289.82 76.45,-296.16 80.01,-290.89 75.94,-289.82"/>
<polyline fill="none" stroke="#000000" stroke-width="2" stroke-opacity="0.200000" points="77.97,-290.36 78.74,-287.45 "/>
<ellipse fill="none" stroke="#000000" stroke-width="2" stroke-opacity="0.200000" cx="79.35" cy="-285.13" rx="2.4" ry="2.4"/>
</g>
<!-- client/src/init/index.js -->
<g id="node19" class="node">
<title>client/src/init/index.js</title>
<g id="a_node19"><a xlink:href="../client/src/init/index.js" xlink:title="index.js">
<path fill="#ffffcc" stroke="black" d="M473.57,-520.91C473.57,-520.91 431.97,-520.91 431.97,-520.91 428.87,-520.91 425.77,-517.81 425.77,-514.71 425.77,-514.71 425.77,-508.51 425.77,-508.51 425.77,-505.41 428.87,-502.31 431.97,-502.31 431.97,-502.31 473.57,-502.31 473.57,-502.31 476.67,-502.31 479.77,-505.41 479.77,-508.51 479.77,-508.51 479.77,-514.71 479.77,-514.71 479.77,-517.81 476.67,-520.91 473.57,-520.91"/>
<text text-anchor="middle" x="452.77" y="-508.91" font-family="Helvetica,sans-Serif" font-size="9.00">index.js</text>
</a>
</g>
</g>
<!-- client/src/init/index.js&#45;&gt;client/src/init/router.js -->
<g id="edge16" class="edge">
<title>client/src/init/index.js&#45;&gt;client/src/init/router.js</title>
<path fill="none" stroke="#000000" stroke-width="2" stroke-opacity="0.200000" d="M479.84,-511.61C492.62,-511.61 508.14,-511.61 521.66,-511.61"/>
<polygon fill="#000000" fill-opacity="0.200000" stroke="#000000" stroke-width="2" stroke-opacity="0.200000" points="521.72,-513.71 527.72,-511.61 521.72,-509.51 521.72,-513.71"/>
</g>
<!-- client/src/routes.js&#45;&gt;client/src/components/layout/page.js -->
<g id="edge21" class="edge">
<title>client/src/routes.js&#45;&gt;client/src/components/layout/page.js</title>
<path fill="none" stroke="#000000" stroke-width="2" stroke-opacity="0.200000" d="M88.58,-296.3C107.28,-284.16 140.07,-262.87 161.01,-249.27"/>
<polygon fill="#000000" fill-opacity="0.200000" stroke="#000000" stroke-width="2" stroke-opacity="0.200000" points="162.18,-251.02 166.06,-245.99 159.89,-247.49 162.18,-251.02"/>
</g>
<!-- client/src/routes.js&#45;&gt;client/src/components/pages/home/index.js -->
<g id="edge22" class="edge">
<title>client/src/routes.js&#45;&gt;client/src/components/pages/home/index.js</title>
<path fill="none" stroke="#000000" stroke-width="2" stroke-opacity="0.200000" d="M86.32,-314.99C97.42,-323.37 114.54,-335.67 130.51,-344.61 134.77,-347 139.35,-349.32 143.94,-351.5"/>
<polygon fill="#000000" fill-opacity="0.200000" stroke="#000000" stroke-width="2" stroke-opacity="0.200000" points="150.32,-356.67 156.65,-357.22 152.04,-352.84 150.32,-356.67"/>
<polyline fill="none" stroke="#000000" stroke-width="2" stroke-opacity="0.200000" points="151.18,-354.75 148.45,-353.52 "/>
<ellipse fill="none" stroke="#000000" stroke-width="2" stroke-opacity="0.200000" cx="146.26" cy="-352.54" rx="2.4" ry="2.4"/>
</g>
<!-- client/src/routes.js&#45;&gt;client/src/components/pages/questions/index.js -->
<g id="edge23" class="edge">
<title>client/src/routes.js&#45;&gt;client/src/components/pages/questions/index.js</title>
<path fill="none" stroke="#000000" stroke-width="2" stroke-opacity="0.200000" d="M77.31,-315.19C83.97,-334.7 101.58,-379.38 130.51,-405.61 135.83,-410.43 142.38,-414.33 148.97,-417.43"/>
<polygon fill="#000000" fill-opacity="0.200000" stroke="#000000" stroke-width="2" stroke-opacity="0.200000" points="148.15,-419.36 154.49,-419.84 149.83,-415.51 148.15,-419.36"/>
</g>
<!-- client/src/routes.js&#45;&gt;client/src/components/pages/quiz/index.js -->
<g id="edge24" class="edge">
<title>client/src/routes.js&#45;&gt;client/src/components/pages/quiz/index.js</title>
<path fill="none" stroke="#000000" stroke-width="2" stroke-opacity="0.200000" d="M100.52,-305.61C114.82,-305.61 132.65,-305.61 147.84,-305.61"/>
<polygon fill="#000000" fill-opacity="0.200000" stroke="#000000" stroke-width="2" stroke-opacity="0.200000" points="148.18,-307.71 154.18,-305.61 148.18,-303.51 148.18,-307.71"/>
</g>
<!-- client/src/logic/camelCaseToTitleCase.spec.js -->
<g id="node21" class="node">
<title>client/src/logic/camelCaseToTitleCase.spec.js</title>
<g id="a_node21"><a xlink:href="../client/src/logic/camelCaseToTitleCase.spec.js" xlink:title="camelCaseToTitleCase.spec.js">
<path fill="#ffffcc" stroke="black" d="M374.32,-83.91C374.32,-83.91 246.7,-83.91 246.7,-83.91 243.6,-83.91 240.5,-80.81 240.5,-77.71 240.5,-77.71 240.5,-71.51 240.5,-71.51 240.5,-68.41 243.6,-65.31 246.7,-65.31 246.7,-65.31 374.32,-65.31 374.32,-65.31 377.42,-65.31 380.52,-68.41 380.52,-71.51 380.52,-71.51 380.52,-77.71 380.52,-77.71 380.52,-80.81 377.42,-83.91 374.32,-83.91"/>
<text text-anchor="middle" x="310.51" y="-71.91" font-family="Helvetica,sans-Serif" font-size="9.00">camelCaseToTitleCase.spec.js</text>
</a>
</g>
</g>
<!-- client/src/logic/camelCaseToTitleCase.spec.js&#45;&gt;client/src/logic/camelCaseToTitleCase.js -->
<g id="edge18" class="edge">
<title>client/src/logic/camelCaseToTitleCase.spec.js&#45;&gt;client/src/logic/camelCaseToTitleCase.js</title>
<path fill="none" stroke="#000000" stroke-width="2" stroke-opacity="0.200000" d="M380.82,-82.51C383.09,-82.77 385.36,-83.03 387.63,-83.29"/>
<polygon fill="#000000" fill-opacity="0.200000" stroke="#000000" stroke-width="2" stroke-opacity="0.200000" points="387.4,-85.38 393.6,-83.97 387.88,-81.21 387.4,-85.38"/>
</g>
<!-- client/src/logic/progress&#45;bar.js -->
<g id="node22" class="node">
<title>client/src/logic/progress&#45;bar.js</title>
<g id="a_node22"><a xlink:href="../client/src/logic/progress-bar.js" xlink:title="progress&#45;bar.js">
<path fill="#ccffcc" stroke="black" d="M342.31,-114.91C342.31,-114.91 278.71,-114.91 278.71,-114.91 275.61,-114.91 272.51,-111.81 272.51,-108.71 272.51,-108.71 272.51,-102.51 272.51,-102.51 272.51,-99.41 275.61,-96.31 278.71,-96.31 278.71,-96.31 342.31,-96.31 342.31,-96.31 345.41,-96.31 348.51,-99.41 348.51,-102.51 348.51,-102.51 348.51,-108.71 348.51,-108.71 348.51,-111.81 345.41,-114.91 342.31,-114.91"/>
<text text-anchor="middle" x="310.51" y="-102.91" font-family="Helvetica,sans-Serif" font-size="9.00">progress&#45;bar.js</text>
</a>
</g>
</g>
<!-- client/src/logic/reverse.spec.js -->
<g id="node23" class="node">
<title>client/src/logic/reverse.spec.js</title>
<g id="a_node23"><a xlink:href="../client/src/logic/reverse.spec.js" xlink:title="reverse.spec.js">
<path fill="#ffffcc" stroke="black" d="M342.32,-145.91C342.32,-145.91 278.7,-145.91 278.7,-145.91 275.6,-145.91 272.5,-142.81 272.5,-139.71 272.5,-139.71 272.5,-133.51 272.5,-133.51 272.5,-130.41 275.6,-127.31 278.7,-127.31 278.7,-127.31 342.32,-127.31 342.32,-127.31 345.42,-127.31 348.52,-130.41 348.52,-133.51 348.52,-133.51 348.52,-139.71 348.52,-139.71 348.52,-142.81 345.42,-145.91 342.32,-145.91"/>
<text text-anchor="middle" x="310.51" y="-133.91" font-family="Helvetica,sans-Serif" font-size="9.00">reverse.spec.js</text>
</a>
</g>
</g>
<!-- client/src/logic/reverse.spec.js&#45;&gt;client/src/logic/reverse.js -->
<g id="edge19" class="edge">
<title>client/src/logic/reverse.spec.js&#45;&gt;client/src/logic/reverse.js</title>
<path fill="none" stroke="#000000" stroke-width="2" stroke-opacity="0.200000" d="M348.73,-136.61C370.59,-136.61 397.98,-136.61 419.02,-136.61"/>
<polygon fill="#000000" fill-opacity="0.200000" stroke="#000000" stroke-width="2" stroke-opacity="0.200000" points="419.05,-138.71 425.05,-136.61 419.05,-134.51 419.05,-138.71"/>
</g>
<!-- client/src/progress&#45;bar&#45;code.js -->
<g id="node24" class="node">
<title>client/src/progress&#45;bar&#45;code.js</title>
<g id="a_node24"><a xlink:href="../client/src/progress-bar-code.js" xlink:title="progress&#45;bar&#45;code.js">
<path fill="#ffffcc" stroke="black" d="M116.06,-436.91C116.06,-436.91 30.45,-436.91 30.45,-436.91 27.35,-436.91 24.25,-433.81 24.25,-430.71 24.25,-430.71 24.25,-424.51 24.25,-424.51 24.25,-421.41 27.35,-418.31 30.45,-418.31 30.45,-418.31 116.06,-418.31 116.06,-418.31 119.16,-418.31 122.26,-421.41 122.26,-424.51 122.26,-424.51 122.26,-430.71 122.26,-430.71 122.26,-433.81 119.16,-436.91 116.06,-436.91"/>
<text text-anchor="middle" x="73.25" y="-424.91" font-family="Helvetica,sans-Serif" font-size="9.00">progress&#45;bar&#45;code.js</text>
</a>
</g>
</g>
<!-- client/src/progress&#45;bar&#45;code.js&#45;&gt;client/src/components/pages/questions/index.js -->
<g id="edge20" class="edge">
<title>client/src/progress&#45;bar&#45;code.js&#45;&gt;client/src/components/pages/questions/index.js</title>
<path fill="none" stroke="#000000" stroke-width="2" stroke-opacity="0.200000" d="M122.41,-427.61C131.16,-427.61 140.09,-427.61 148.24,-427.61"/>
<polygon fill="#000000" fill-opacity="0.200000" stroke="#000000" stroke-width="2" stroke-opacity="0.200000" points="148.31,-429.71 154.31,-427.61 148.31,-425.51 148.31,-429.71"/>
</g>
</g>
</svg>
