<?xml version="1.0" encoding="UTF-8" standalone="no"?>
<!DOCTYPE svg PUBLIC "-//W3C//DTD SVG 1.1//EN"
 "http://www.w3.org/Graphics/SVG/1.1/DTD/svg11.dtd">
<!-- Generated by graphviz version 2.44.0 (20200408.0750)
 -->
<!-- Title: dependency&#45;cruiser output Pages: 1 -->
<svg width="399pt" height="594pt"
 viewBox="0.00 0.00 399.02 594.00" xmlns="http://www.w3.org/2000/svg" xmlns:xlink="http://www.w3.org/1999/xlink">
<g id="graph0" class="graph" transform="scale(1 1) rotate(0) translate(4 590)">
<title>dependency&#45;cruiser output</title>
<polygon fill="white" stroke="transparent" points="-4,4 -4,-590 395.02,-590 395.02,4 -4,4"/>
<g id="clust1" class="cluster">
<title>cluster_client</title>
<path fill="#ffffff" stroke="black" stroke-width="2" d="M20,-8C20,-8 371.02,-8 371.02,-8 377.02,-8 383.02,-14 383.02,-20 383.02,-20 383.02,-566 383.02,-566 383.02,-572 377.02,-578 371.02,-578 371.02,-578 20,-578 20,-578 14,-578 8,-572 8,-566 8,-566 8,-20 8,-20 8,-14 14,-8 20,-8"/>
<text text-anchor="middle" x="195.51" y="-565.9" font-family="Helvetica,sans-Serif" font-weight="bold" font-size="9.00">client</text>
</g>
<g id="clust2" class="cluster">
<title>cluster_client/src</title>
<path fill="#ffffff" stroke="black" stroke-width="2" d="M28,-16C28,-16 363.02,-16 363.02,-16 369.02,-16 375.02,-22 375.02,-28 375.02,-28 375.02,-539 375.02,-539 375.02,-545 369.02,-551 363.02,-551 363.02,-551 28,-551 28,-551 22,-551 16,-545 16,-539 16,-539 16,-28 16,-28 16,-22 22,-16 28,-16"/>
<text text-anchor="middle" x="195.51" y="-538.9" font-family="Helvetica,sans-Serif" font-weight="bold" font-size="9.00">src</text>
</g>
<g id="clust3" class="cluster">
<title>cluster_client/src/components</title>
<path fill="#ffffff" stroke="black" stroke-width="2" d="M98,-34C98,-34 285.02,-34 285.02,-34 291.02,-34 297.02,-40 297.02,-46 297.02,-46 297.02,-359 297.02,-359 297.02,-365 291.02,-371 285.02,-371 285.02,-371 98,-371 98,-371 92,-371 86,-365 86,-359 86,-359 86,-46 86,-46 86,-40 92,-34 98,-34"/>
<text text-anchor="middle" x="191.51" y="-358.9" font-family="Helvetica,sans-Serif" font-weight="bold" font-size="9.00">components</text>
</g>
<g id="clust4" class="cluster">
<title>cluster_client/src/components/layout</title>
<path fill="#ffffff" stroke="black" stroke-width="2" d="M114,-260C114,-260 264.01,-260 264.01,-260 270.01,-260 276.01,-266 276.01,-272 276.01,-272 276.01,-332 276.01,-332 276.01,-338 270.01,-344 264.01,-344 264.01,-344 114,-344 114,-344 108,-344 102,-338 102,-332 102,-332 102,-272 102,-272 102,-266 108,-260 114,-260"/>
<text text-anchor="middle" x="189" y="-331.9" font-family="Helvetica,sans-Serif" font-weight="bold" font-size="9.00">layout</text>
</g>
<g id="clust5" class="cluster">
<title>cluster_client/src/components/pages</title>
<path fill="#ffffff" stroke="black" stroke-width="2" d="M106,-42C106,-42 168,-42 168,-42 174,-42 180,-48 180,-54 180,-54 180,-240 180,-240 180,-246 174,-252 168,-252 168,-252 106,-252 106,-252 100,-252 94,-246 94,-240 94,-240 94,-54 94,-54 94,-48 100,-42 106,-42"/>
<text text-anchor="middle" x="137" y="-239.9" font-family="Helvetica,sans-Serif" font-weight="bold" font-size="9.00">pages</text>
</g>
<g id="clust6" class="cluster">
<title>cluster_client/src/components/pages/home</title>
<path fill="#ffffff" stroke="black" stroke-width="2" d="M114,-172C114,-172 160,-172 160,-172 166,-172 172,-178 172,-184 172,-184 172,-213 172,-213 172,-219 166,-225 160,-225 160,-225 114,-225 114,-225 108,-225 102,-219 102,-213 102,-213 102,-184 102,-184 102,-178 108,-172 114,-172"/>
<text text-anchor="middle" x="137" y="-212.9" font-family="Helvetica,sans-Serif" font-weight="bold" font-size="9.00">home</text>
</g>
<g id="clust7" class="cluster">
<title>cluster_client/src/components/pages/questions</title>
<path fill="#ffffff" stroke="black" stroke-width="2" d="M114,-111C114,-111 160,-111 160,-111 166,-111 172,-117 172,-123 172,-123 172,-152 172,-152 172,-158 166,-164 160,-164 160,-164 114,-164 114,-164 108,-164 102,-158 102,-152 102,-152 102,-123 102,-123 102,-117 108,-111 114,-111"/>
<text text-anchor="middle" x="137" y="-151.9" font-family="Helvetica,sans-Serif" font-weight="bold" font-size="9.00">questions</text>
</g>
<g id="clust8" class="cluster">
<title>cluster_client/src/components/pages/quiz</title>
<path fill="#ffffff" stroke="black" stroke-width="2" d="M114,-50C114,-50 160,-50 160,-50 166,-50 172,-56 172,-62 172,-62 172,-91 172,-91 172,-97 166,-103 160,-103 160,-103 114,-103 114,-103 108,-103 102,-97 102,-91 102,-91 102,-62 102,-62 102,-56 108,-50 114,-50"/>
<text text-anchor="middle" x="137" y="-90.9" font-family="Helvetica,sans-Serif" font-weight="bold" font-size="9.00">quiz</text>
</g>
<g id="clust9" class="cluster">
<title>cluster_client/src/components/shared</title>
<path fill="#ffffff" stroke="black" stroke-width="2" d="M205,-172C205,-172 277.02,-172 277.02,-172 283.02,-172 289.02,-178 289.02,-184 289.02,-184 289.02,-213 289.02,-213 289.02,-219 283.02,-225 277.02,-225 277.02,-225 205,-225 205,-225 199,-225 193,-219 193,-213 193,-213 193,-184 193,-184 193,-178 199,-172 205,-172"/>
<text text-anchor="middle" x="241.01" y="-212.9" font-family="Helvetica,sans-Serif" font-weight="bold" font-size="9.00">shared</text>
</g>
<g id="clust10" class="cluster">
<title>cluster_client/src/handlers</title>
<path fill="#ffffff" stroke="black" stroke-width="2" d="M200,-471C200,-471 282.02,-471 282.02,-471 288.02,-471 294.02,-477 294.02,-483 294.02,-483 294.02,-512 294.02,-512 294.02,-518 288.02,-524 282.02,-524 282.02,-524 200,-524 200,-524 194,-524 188,-518 188,-512 188,-512 188,-483 188,-483 188,-477 194,-471 200,-471"/>
<text text-anchor="middle" x="241.01" y="-511.9" font-family="Helvetica,sans-Serif" font-weight="bold" font-size="9.00">handlers</text>
</g>
<g id="clust11" class="cluster">
<title>cluster_client/src/init</title>
<path fill="#ffffff" stroke="black" stroke-width="2" d="M218.01,-379C218.01,-379 355.02,-379 355.02,-379 361.02,-379 367.02,-385 367.02,-391 367.02,-391 367.02,-451 367.02,-451 367.02,-457 361.02,-463 355.02,-463 355.02,-463 218.01,-463 218.01,-463 212.01,-463 206.01,-457 206.01,-451 206.01,-451 206.01,-391 206.01,-391 206.01,-385 212.01,-379 218.01,-379"/>
<text text-anchor="middle" x="286.51" y="-450.9" font-family="Helvetica,sans-Serif" font-weight="bold" font-size="9.00">init</text>
</g>
<!-- client/src/components/layout/footer.js -->
<g id="node1" class="node">
<title>client/src/components/layout/footer.js</title>
<g id="a_node1"><a xlink:href="../client/src/components/layout/footer.js" xlink:title="footer.js">
<path fill="#ffffcc" stroke="black" d="M261.81,-286.3C261.81,-286.3 220.21,-286.3 220.21,-286.3 217.11,-286.3 214.01,-283.2 214.01,-280.1 214.01,-280.1 214.01,-273.9 214.01,-273.9 214.01,-270.8 217.11,-267.7 220.21,-267.7 220.21,-267.7 261.81,-267.7 261.81,-267.7 264.91,-267.7 268.01,-270.8 268.01,-273.9 268.01,-273.9 268.01,-280.1 268.01,-280.1 268.01,-283.2 264.91,-286.3 261.81,-286.3"/>
<text text-anchor="middle" x="241.01" y="-274.3" font-family="Helvetica,sans-Serif" font-size="9.00">footer.js</text>
</a>
</g>
</g>
<!-- client/src/components/layout/navbar.js -->
<g id="node2" class="node">
<title>client/src/components/layout/navbar.js</title>
<g id="a_node2"><a xlink:href="../client/src/components/layout/navbar.js" xlink:title="navbar.js">
<path fill="#ffffcc" stroke="black" d="M261.81,-317.3C261.81,-317.3 220.21,-317.3 220.21,-317.3 217.11,-317.3 214.01,-314.2 214.01,-311.1 214.01,-311.1 214.01,-304.9 214.01,-304.9 214.01,-301.8 217.11,-298.7 220.21,-298.7 220.21,-298.7 261.81,-298.7 261.81,-298.7 264.91,-298.7 268.01,-301.8 268.01,-304.9 268.01,-304.9 268.01,-311.1 268.01,-311.1 268.01,-314.2 264.91,-317.3 261.81,-317.3"/>
<text text-anchor="middle" x="241.01" y="-305.3" font-family="Helvetica,sans-Serif" font-size="9.00">navbar.js</text>
</a>
</g>
</g>
<!-- client/src/components/layout/page.js -->
<g id="node3" class="node">
<title>client/src/components/layout/page.js</title>
<g id="a_node3"><a xlink:href="../client/src/components/layout/page.js" xlink:title="page.js">
<path fill="#ffffcc" stroke="black" d="M157.8,-286.3C157.8,-286.3 116.2,-286.3 116.2,-286.3 113.1,-286.3 110,-283.2 110,-280.1 110,-280.1 110,-273.9 110,-273.9 110,-270.8 113.1,-267.7 116.2,-267.7 116.2,-267.7 157.8,-267.7 157.8,-267.7 160.9,-267.7 164,-270.8 164,-273.9 164,-273.9 164,-280.1 164,-280.1 164,-283.2 160.9,-286.3 157.8,-286.3"/>
<text text-anchor="middle" x="137" y="-274.3" font-family="Helvetica,sans-Serif" font-size="9.00">page.js</text>
</a>
</g>
</g>
<!-- client/src/components/layout/page.js&#45;&gt;client/src/components/layout/footer.js -->
<g id="edge1" class="edge">
<title>client/src/components/layout/page.js&#45;&gt;client/src/components/layout/footer.js</title>
<path fill="none" stroke="#000000" stroke-width="2" stroke-opacity="0.200000" d="M164.01,-277C177.21,-277 193.39,-277 207.42,-277"/>
<polygon fill="#000000" fill-opacity="0.200000" stroke="#000000" stroke-width="2" stroke-opacity="0.200000" points="207.7,-279.1 213.7,-277 207.7,-274.9 207.7,-279.1"/>
</g>
<!-- client/src/components/layout/page.js&#45;&gt;client/src/components/layout/navbar.js -->
<g id="edge2" class="edge">
<title>client/src/components/layout/page.js&#45;&gt;client/src/components/layout/navbar.js</title>
<path fill="none" stroke="#000000" stroke-width="2" stroke-opacity="0.200000" d="M164.01,-284.9C177.33,-288.95 193.68,-293.92 207.8,-298.21"/>
<polygon fill="#000000" fill-opacity="0.200000" stroke="#000000" stroke-width="2" stroke-opacity="0.200000" points="207.35,-300.27 213.7,-300 208.57,-296.25 207.35,-300.27"/>
</g>
<!-- client/src/components/pages/home/index.js -->
<g id="node4" class="node">
<title>client/src/components/pages/home/index.js</title>
<g id="a_node4"><a xlink:href="../client/src/components/pages/home/index.js" xlink:title="index.js">
<path fill="#ffffcc" stroke="black" d="M157.8,-198.3C157.8,-198.3 116.2,-198.3 116.2,-198.3 113.1,-198.3 110,-195.2 110,-192.1 110,-192.1 110,-185.9 110,-185.9 110,-182.8 113.1,-179.7 116.2,-179.7 116.2,-179.7 157.8,-179.7 157.8,-179.7 160.9,-179.7 164,-182.8 164,-185.9 164,-185.9 164,-192.1 164,-192.1 164,-195.2 160.9,-198.3 157.8,-198.3"/>
<text text-anchor="middle" x="137" y="-186.3" font-family="Helvetica,sans-Serif" font-size="9.00">index.js</text>
</a>
</g>
</g>
<!-- client/src/components/shared/input&#45;greeting.js -->
<g id="node5" class="node">
<title>client/src/components/shared/input&#45;greeting.js</title>
<g id="a_node5"><a xlink:href="../client/src/components/shared/input-greeting.js" xlink:title="input&#45;greeting.js">
<path fill="#ffffcc" stroke="black" d="M274.82,-198.3C274.82,-198.3 207.2,-198.3 207.2,-198.3 204.1,-198.3 201,-195.2 201,-192.1 201,-192.1 201,-185.9 201,-185.9 201,-182.8 204.1,-179.7 207.2,-179.7 207.2,-179.7 274.82,-179.7 274.82,-179.7 277.92,-179.7 281.02,-182.8 281.02,-185.9 281.02,-185.9 281.02,-192.1 281.02,-192.1 281.02,-195.2 277.92,-198.3 274.82,-198.3"/>
<text text-anchor="middle" x="241.01" y="-186.3" font-family="Helvetica,sans-Serif" font-size="9.00">input&#45;greeting.js</text>
</a>
</g>
</g>
<!-- client/src/components/pages/home/index.js&#45;&gt;client/src/components/shared/input&#45;greeting.js -->
<g id="edge3" class="edge">
<title>client/src/components/pages/home/index.js&#45;&gt;client/src/components/shared/input&#45;greeting.js</title>
<path fill="none" stroke="#000000" stroke-width="2" stroke-opacity="0.200000" d="M164.01,-189C173.38,-189 184.25,-189 194.79,-189"/>
<polygon fill="#000000" fill-opacity="0.200000" stroke="#000000" stroke-width="2" stroke-opacity="0.200000" points="194.95,-191.1 200.95,-189 194.94,-186.9 194.95,-191.1"/>
</g>
<!-- client/src/handlers/change&#45;greeting.js -->
<g id="node8" class="node">
<title>client/src/handlers/change&#45;greeting.js</title>
<g id="a_node8"><a xlink:href="../client/src/handlers/change-greeting.js" xlink:title="change&#45;greeting.js">
<path fill="#ffffcc" stroke="black" d="M279.83,-497.3C279.83,-497.3 202.19,-497.3 202.19,-497.3 199.09,-497.3 195.99,-494.2 195.99,-491.1 195.99,-491.1 195.99,-484.9 195.99,-484.9 195.99,-481.8 199.09,-478.7 202.19,-478.7 202.19,-478.7 279.83,-478.7 279.83,-478.7 282.93,-478.7 286.03,-481.8 286.03,-484.9 286.03,-484.9 286.03,-491.1 286.03,-491.1 286.03,-494.2 282.93,-497.3 279.83,-497.3"/>
<text text-anchor="middle" x="241.01" y="-485.3" font-family="Helvetica,sans-Serif" font-size="9.00">change&#45;greeting.js</text>
</a>
</g>
</g>
<!-- client/src/components/shared/input&#45;greeting.js&#45;&gt;client/src/handlers/change&#45;greeting.js -->
<g id="edge6" class="edge">
<title>client/src/components/shared/input&#45;greeting.js&#45;&gt;client/src/handlers/change&#45;greeting.js</title>
<path fill="none" stroke="#000000" stroke-width="2" stroke-opacity="0.200000" d="M229.73,-198.6C215.58,-211.51 192.18,-235.99 184,-263 180.83,-273.47 180.83,-449.53 184,-460 185.98,-466.54 190.35,-471.56 195.83,-475.41"/>
<polygon fill="#000000" fill-opacity="0.200000" stroke="#000000" stroke-width="2" stroke-opacity="0.200000" points="194.92,-477.31 201.14,-478.62 197.09,-473.72 194.92,-477.31"/>
</g>
<!-- client/src/init/state.js -->
<g id="node9" class="node">
<title>client/src/init/state.js</title>
<g id="a_node9"><a xlink:href="../client/src/init/state.js" xlink:title="state.js">
<path fill="#ffffcc" stroke="black" d="M352.81,-436.3C352.81,-436.3 311.22,-436.3 311.22,-436.3 308.12,-436.3 305.02,-433.2 305.02,-430.1 305.02,-430.1 305.02,-423.9 305.02,-423.9 305.02,-420.8 308.12,-417.7 311.22,-417.7 311.22,-417.7 352.81,-417.7 352.81,-417.7 355.92,-417.7 359.02,-420.8 359.02,-423.9 359.02,-423.9 359.02,-430.1 359.02,-430.1 359.02,-433.2 355.92,-436.3 352.81,-436.3"/>
<text text-anchor="middle" x="332.02" y="-424.3" font-family="Helvetica,sans-Serif" font-size="9.00">state.js</text>
</a>
</g>
</g>
<!-- client/src/components/shared/input&#45;greeting.js&#45;&gt;client/src/init/state.js -->
<g id="edge7" class="edge">
<title>client/src/components/shared/input&#45;greeting.js&#45;&gt;client/src/init/state.js</title>
<path fill="none" stroke="#000000" stroke-width="2" stroke-opacity="0.200000" d="M253.33,-198.71C266.55,-210.82 287.78,-232.9 297.02,-257 309.28,-289 287.53,-381.53 305.02,-411 305.49,-411.8 306.02,-412.56 306.6,-413.29"/>
<polygon fill="#000000" fill-opacity="0.200000" stroke="#000000" stroke-width="2" stroke-opacity="0.200000" points="305.24,-414.9 310.98,-417.64 308.2,-411.92 305.24,-414.9"/>
</g>
<!-- client/src/components/pages/questions/index.js -->
<g id="node6" class="node">
<title>client/src/components/pages/questions/index.js</title>
<g id="a_node6"><a xlink:href="../client/src/components/pages/questions/index.js" xlink:title="index.js">
<path fill="#ffffcc" stroke="black" d="M157.8,-137.3C157.8,-137.3 116.2,-137.3 116.2,-137.3 113.1,-137.3 110,-134.2 110,-131.1 110,-131.1 110,-124.9 110,-124.9 110,-121.8 113.1,-118.7 116.2,-118.7 116.2,-118.7 157.8,-118.7 157.8,-118.7 160.9,-118.7 164,-121.8 164,-124.9 164,-124.9 164,-131.1 164,-131.1 164,-134.2 160.9,-137.3 157.8,-137.3"/>
<text text-anchor="middle" x="137" y="-125.3" font-family="Helvetica,sans-Serif" font-size="9.00">index.js</text>
</a>
</g>
</g>
<!-- client/src/components/pages/questions/index.js&#45;&gt;client/src/components/shared/input&#45;greeting.js -->
<g id="edge4" class="edge">
<title>client/src/components/pages/questions/index.js&#45;&gt;client/src/components/shared/input&#45;greeting.js</title>
<path fill="none" stroke="#000000" stroke-width="2" stroke-opacity="0.200000" d="M147.52,-137.38C161.34,-150.97 185.6,-174.68 188,-176 190.25,-177.24 192.61,-178.37 195.04,-179.38"/>
<polygon fill="#000000" fill-opacity="0.200000" stroke="#000000" stroke-width="2" stroke-opacity="0.200000" points="194.46,-181.41 200.82,-181.57 195.95,-177.48 194.46,-181.41"/>
</g>
<!-- client/src/components/pages/quiz/index.js -->
<g id="node7" class="node">
<title>client/src/components/pages/quiz/index.js</title>
<g id="a_node7"><a xlink:href="../client/src/components/pages/quiz/index.js" xlink:title="index.js">
<path fill="#ffffcc" stroke="black" d="M157.8,-76.3C157.8,-76.3 116.2,-76.3 116.2,-76.3 113.1,-76.3 110,-73.2 110,-70.1 110,-70.1 110,-63.9 110,-63.9 110,-60.8 113.1,-57.7 116.2,-57.7 116.2,-57.7 157.8,-57.7 157.8,-57.7 160.9,-57.7 164,-60.8 164,-63.9 164,-63.9 164,-70.1 164,-70.1 164,-73.2 160.9,-76.3 157.8,-76.3"/>
<text text-anchor="middle" x="137" y="-64.3" font-family="Helvetica,sans-Serif" font-size="9.00">index.js</text>
</a>
</g>
</g>
<!-- client/src/components/pages/quiz/index.js&#45;&gt;client/src/components/shared/input&#45;greeting.js -->
<g id="edge5" class="edge">
<title>client/src/components/pages/quiz/index.js&#45;&gt;client/src/components/shared/input&#45;greeting.js</title>
<path fill="none" stroke="#000000" stroke-width="2" stroke-opacity="0.200000" d="M151.77,-76.43C161.39,-83.82 173.61,-95.02 180,-108 186.72,-121.65 177.95,-164.58 188,-176 190.08,-178.37 192.52,-180.33 195.19,-181.96"/>
<polygon fill="#000000" fill-opacity="0.200000" stroke="#000000" stroke-width="2" stroke-opacity="0.200000" points="194.64,-184.04 200.94,-184.87 196.53,-180.29 194.64,-184.04"/>
</g>
<!-- client/src/handlers/change&#45;greeting.js&#45;&gt;client/src/init/state.js -->
<g id="edge8" class="edge">
<title>client/src/handlers/change&#45;greeting.js&#45;&gt;client/src/init/state.js</title>
<path fill="none" stroke="#000000" stroke-width="2" stroke-opacity="0.200000" d="M272.73,-478.67C281.03,-475.38 289.72,-471.18 297.02,-466 306.3,-459.41 314.73,-449.79 320.87,-441.75"/>
<polygon fill="#000000" fill-opacity="0.200000" stroke="#000000" stroke-width="2" stroke-opacity="0.200000" points="322.87,-442.57 324.74,-436.49 319.49,-440.08 322.87,-442.57"/>
</g>
<!-- client/src/init/index.js -->
<g id="node10" class="node">
<title>client/src/init/index.js</title>
<g id="a_node10"><a xlink:href="../client/src/init/index.js" xlink:title="index.js">
<path fill="#ffffcc" stroke="black" d="M261.81,-420.3C261.81,-420.3 220.21,-420.3 220.21,-420.3 217.11,-420.3 214.01,-417.2 214.01,-414.1 214.01,-414.1 214.01,-407.9 214.01,-407.9 214.01,-404.8 217.11,-401.7 220.21,-401.7 220.21,-401.7 261.81,-401.7 261.81,-401.7 264.91,-401.7 268.01,-404.8 268.01,-407.9 268.01,-407.9 268.01,-414.1 268.01,-414.1 268.01,-417.2 264.91,-420.3 261.81,-420.3"/>
<text text-anchor="middle" x="241.01" y="-408.3" font-family="Helvetica,sans-Serif" font-size="9.00">index.js</text>
</a>
</g>
</g>
<!-- client/src/init/index.js&#45;&gt;client/src/init/state.js -->
<g id="edge10" class="edge">
<title>client/src/init/index.js&#45;&gt;client/src/init/state.js</title>
<path fill="none" stroke="#000000" stroke-width="2" stroke-opacity="0.200000" d="M268.23,-415.71C277.83,-417.44 288.8,-419.41 298.86,-421.22"/>
<polygon fill="#000000" fill-opacity="0.200000" stroke="#000000" stroke-width="2" stroke-opacity="0.200000" points="298.7,-423.32 304.98,-422.32 299.45,-419.19 298.7,-423.32"/>
</g>
<!-- client/src/init/router.js -->
<g id="node11" class="node">
<title>client/src/init/router.js</title>
<g id="a_node11"><a xlink:href="../client/src/init/router.js" xlink:title="router.js">
<path fill="#ffffcc" stroke="black" d="M352.81,-405.3C352.81,-405.3 311.22,-405.3 311.22,-405.3 308.12,-405.3 305.02,-402.2 305.02,-399.1 305.02,-399.1 305.02,-392.9 305.02,-392.9 305.02,-389.8 308.12,-386.7 311.22,-386.7 311.22,-386.7 352.81,-386.7 352.81,-386.7 355.92,-386.7 359.02,-389.8 359.02,-392.9 359.02,-392.9 359.02,-399.1 359.02,-399.1 359.02,-402.2 355.92,-405.3 352.81,-405.3"/>
<text text-anchor="middle" x="332.02" y="-393.3" font-family="Helvetica,sans-Serif" font-size="9.00">router.js</text>
</a>
</g>
</g>
<!-- client/src/init/index.js&#45;&gt;client/src/init/router.js -->
<g id="edge9" class="edge">
<title>client/src/init/index.js&#45;&gt;client/src/init/router.js</title>
<path fill="none" stroke="#000000" stroke-width="2" stroke-opacity="0.200000" d="M268.23,-406.58C277.83,-404.96 288.8,-403.11 298.86,-401.42"/>
<polygon fill="#000000" fill-opacity="0.200000" stroke="#000000" stroke-width="2" stroke-opacity="0.200000" points="299.41,-403.46 304.98,-400.39 298.71,-399.31 299.41,-403.46"/>
</g>
<!-- client/src/routes.js -->
<g id="node12" class="node">
<title>client/src/routes.js</title>
<g id="a_node12"><a xlink:href="../client/src/routes.js" xlink:title="routes.js">
<path fill="#ffffcc" stroke="black" d="M71.8,-137.3C71.8,-137.3 30.2,-137.3 30.2,-137.3 27.1,-137.3 24,-134.2 24,-131.1 24,-131.1 24,-124.9 24,-124.9 24,-121.8 27.1,-118.7 30.2,-118.7 30.2,-118.7 71.8,-118.7 71.8,-118.7 74.9,-118.7 78,-121.8 78,-124.9 78,-124.9 78,-131.1 78,-131.1 78,-134.2 74.9,-137.3 71.8,-137.3"/>
<text text-anchor="middle" x="51" y="-125.3" font-family="Helvetica,sans-Serif" font-size="9.00">routes.js</text>
</a>
</g>
</g>
<!-- client/src/init/router.js&#45;&gt;client/src/routes.js -->
<g id="edge11" class="edge">
<title>client/src/init/router.js&#45;&gt;client/src/routes.js</title>
<path fill="none" stroke="#000000" stroke-width="2" stroke-opacity="0.200000" d="M330.37,-386.65C327.66,-348.98 316.43,-208.52 297.02,-169 263.89,-101.57 249.11,-76.47 180,-47 141.57,-30.61 120.79,-23.87 86,-47 64.07,-61.58 56.26,-93.33 53.49,-112.47"/>
<polygon fill="#000000" fill-opacity="0.200000" stroke="#000000" stroke-width="2" stroke-opacity="0.200000" points="51.38,-112.44 52.71,-118.66 55.55,-112.97 51.38,-112.44"/>
</g>
<!-- client/src/routes.js&#45;&gt;client/src/components/layout/page.js -->
<g id="edge12" class="edge">
<title>client/src/routes.js&#45;&gt;client/src/components/layout/page.js</title>
<path fill="none" stroke="#000000" stroke-width="2" stroke-opacity="0.200000" d="M53.68,-137.46C57.3,-155.99 67.05,-197.89 86,-228 94.64,-241.74 107.88,-254.48 118.56,-263.52"/>
<polygon fill="#000000" fill-opacity="0.200000" stroke="#000000" stroke-width="2" stroke-opacity="0.200000" points="117.3,-265.2 123.26,-267.41 119.97,-261.97 117.3,-265.2"/>
</g>
<!-- client/src/routes.js&#45;&gt;client/src/components/pages/home/index.js -->
<g id="edge13" class="edge">
<title>client/src/routes.js&#45;&gt;client/src/components/pages/home/index.js</title>
<path fill="none" stroke="#000000" stroke-width="2" stroke-opacity="0.200000" d="M58.34,-137.4C64.56,-146.03 74.71,-158.7 86,-167 91.5,-171.04 97.86,-174.55 104.16,-177.51"/>
<polygon fill="#000000" fill-opacity="0.200000" stroke="#000000" stroke-width="2" stroke-opacity="0.200000" points="103.57,-179.54 109.9,-180.07 105.27,-175.71 103.57,-179.54"/>
</g>
<!-- client/src/routes.js&#45;&gt;client/src/components/pages/questions/index.js -->
<g id="edge14" class="edge">
<title>client/src/routes.js&#45;&gt;client/src/components/pages/questions/index.js</title>
<path fill="none" stroke="#000000" stroke-width="2" stroke-opacity="0.200000" d="M78.12,-128C86.18,-128 95.15,-128 103.58,-128"/>
<polygon fill="#000000" fill-opacity="0.200000" stroke="#000000" stroke-width="2" stroke-opacity="0.200000" points="103.9,-130.1 109.9,-128 103.9,-125.9 103.9,-130.1"/>
</g>
<!-- client/src/routes.js&#45;&gt;client/src/components/pages/quiz/index.js -->
<g id="edge15" class="edge">
<title>client/src/routes.js&#45;&gt;client/src/components/pages/quiz/index.js</title>
<path fill="none" stroke="#000000" stroke-width="2" stroke-opacity="0.200000" d="M65.12,-118.47C79.3,-108.17 101.99,-91.7 117.87,-80.17"/>
<polygon fill="#000000" fill-opacity="0.200000" stroke="#000000" stroke-width="2" stroke-opacity="0.200000" points="119.35,-81.69 122.97,-76.46 116.88,-78.29 119.35,-81.69"/>
</g>
</g>
</svg>
