<?xml version="1.0" encoding="UTF-8" standalone="no"?>
<!DOCTYPE svg PUBLIC "-//W3C//DTD SVG 1.1//EN"
 "http://www.w3.org/Graphics/SVG/1.1/DTD/svg11.dtd">
<!-- Generated by graphviz version 2.44.0 (20200408.0750)
 -->
<!-- Title: dependency&#45;cruiser output Pages: 1 -->
<svg width="474pt" height="502pt"
 viewBox="0.00 0.00 474.02 502.00" xmlns="http://www.w3.org/2000/svg" xmlns:xlink="http://www.w3.org/1999/xlink">
<g id="graph0" class="graph" transform="scale(1 1) rotate(0) translate(4 498)">
<title>dependency&#45;cruiser output</title>
<polygon fill="white" stroke="transparent" points="-4,4 -4,-498 470.02,-498 470.02,4 -4,4"/>
<g id="clust1" class="cluster">
<title>cluster_client</title>
<path fill="#ffffff" stroke="black" stroke-width="2" d="M20,-8C20,-8 446.02,-8 446.02,-8 452.02,-8 458.02,-14 458.02,-20 458.02,-20 458.02,-474 458.02,-474 458.02,-480 452.02,-486 446.02,-486 446.02,-486 20,-486 20,-486 14,-486 8,-480 8,-474 8,-474 8,-20 8,-20 8,-14 14,-8 20,-8"/>
<text text-anchor="middle" x="233.01" y="-473.9" font-family="Helvetica,sans-Serif" font-weight="bold" font-size="9.00">client</text>
</g>
<g id="clust2" class="cluster">
<title>cluster_client/src</title>
<path fill="#ffffff" stroke="black" stroke-width="2" d="M28,-16C28,-16 438.02,-16 438.02,-16 444.02,-16 450.02,-22 450.02,-28 450.02,-28 450.02,-447 450.02,-447 450.02,-453 444.02,-459 438.02,-459 438.02,-459 28,-459 28,-459 22,-459 16,-453 16,-447 16,-447 16,-28 16,-28 16,-22 22,-16 28,-16"/>
<text text-anchor="middle" x="233.01" y="-446.9" font-family="Helvetica,sans-Serif" font-weight="bold" font-size="9.00">src</text>
</g>
<g id="clust3" class="cluster">
<title>cluster_client/src/components</title>
<path fill="#ffffff" stroke="black" stroke-width="2" d="M98,-34C98,-34 285.02,-34 285.02,-34 291.02,-34 297.02,-40 297.02,-46 297.02,-46 297.02,-359 297.02,-359 297.02,-365 291.02,-371 285.02,-371 285.02,-371 98,-371 98,-371 92,-371 86,-365 86,-359 86,-359 86,-46 86,-46 86,-40 92,-34 98,-34"/>
<text text-anchor="middle" x="191.51" y="-358.9" font-family="Helvetica,sans-Serif" font-weight="bold" font-size="9.00">components</text>
</g>
<g id="clust4" class="cluster">
<title>cluster_client/src/components/layout</title>
<path fill="#ffffff" stroke="black" stroke-width="2" d="M114,-260C114,-260 264.01,-260 264.01,-260 270.01,-260 276.01,-266 276.01,-272 276.01,-272 276.01,-332 276.01,-332 276.01,-338 270.01,-344 264.01,-344 264.01,-344 114,-344 114,-344 108,-344 102,-338 102,-332 102,-332 102,-272 102,-272 102,-266 108,-260 114,-260"/>
<text text-anchor="middle" x="189" y="-331.9" font-family="Helvetica,sans-Serif" font-weight="bold" font-size="9.00">layout</text>
</g>
<g id="clust5" class="cluster">
<title>cluster_client/src/components/pages</title>
<path fill="#ffffff" stroke="black" stroke-width="2" d="M106,-42C106,-42 168,-42 168,-42 174,-42 180,-48 180,-54 180,-54 180,-240 180,-240 180,-246 174,-252 168,-252 168,-252 106,-252 106,-252 100,-252 94,-246 94,-240 94,-240 94,-54 94,-54 94,-48 100,-42 106,-42"/>
<text text-anchor="middle" x="137" y="-239.9" font-family="Helvetica,sans-Serif" font-weight="bold" font-size="9.00">pages</text>
</g>
<g id="clust6" class="cluster">
<title>cluster_client/src/components/pages/home</title>
<path fill="#ffffff" stroke="black" stroke-width="2" d="M114,-172C114,-172 160,-172 160,-172 166,-172 172,-178 172,-184 172,-184 172,-213 172,-213 172,-219 166,-225 160,-225 160,-225 114,-225 114,-225 108,-225 102,-219 102,-213 102,-213 102,-184 102,-184 102,-178 108,-172 114,-172"/>
<text text-anchor="middle" x="137" y="-212.9" font-family="Helvetica,sans-Serif" font-weight="bold" font-size="9.00">home</text>
</g>
<g id="clust7" class="cluster">
<title>cluster_client/src/components/pages/questions</title>
<path fill="#ffffff" stroke="black" stroke-width="2" d="M114,-111C114,-111 160,-111 160,-111 166,-111 172,-117 172,-123 172,-123 172,-152 172,-152 172,-158 166,-164 160,-164 160,-164 114,-164 114,-164 108,-164 102,-158 102,-152 102,-152 102,-123 102,-123 102,-117 108,-111 114,-111"/>
<text text-anchor="middle" x="137" y="-151.9" font-family="Helvetica,sans-Serif" font-weight="bold" font-size="9.00">questions</text>
</g>
<g id="clust8" class="cluster">
<title>cluster_client/src/components/pages/quiz</title>
<path fill="#ffffff" stroke="black" stroke-width="2" d="M114,-50C114,-50 160,-50 160,-50 166,-50 172,-56 172,-62 172,-62 172,-91 172,-91 172,-97 166,-103 160,-103 160,-103 114,-103 114,-103 108,-103 102,-97 102,-91 102,-91 102,-62 102,-62 102,-56 108,-50 114,-50"/>
<text text-anchor="middle" x="137" y="-90.9" font-family="Helvetica,sans-Serif" font-weight="bold" font-size="9.00">quiz</text>
</g>
<g id="clust9" class="cluster">
<title>cluster_client/src/components/shared</title>
<path fill="#ffffff" stroke="black" stroke-width="2" d="M205,-141C205,-141 277.02,-141 277.02,-141 283.02,-141 289.02,-147 289.02,-153 289.02,-153 289.02,-182 289.02,-182 289.02,-188 283.02,-194 277.02,-194 277.02,-194 205,-194 205,-194 199,-194 193,-188 193,-182 193,-182 193,-153 193,-153 193,-147 199,-141 205,-141"/>
<text text-anchor="middle" x="241.01" y="-181.9" font-family="Helvetica,sans-Serif" font-weight="bold" font-size="9.00">shared</text>
</g>
<g id="clust10" class="cluster">
<title>cluster_client/src/handlers</title>
<path fill="#ffffff" stroke="black" stroke-width="2" d="M200,-379C200,-379 282.02,-379 282.02,-379 288.02,-379 294.02,-385 294.02,-391 294.02,-391 294.02,-420 294.02,-420 294.02,-426 288.02,-432 282.02,-432 282.02,-432 200,-432 200,-432 194,-432 188,-426 188,-420 188,-420 188,-391 188,-391 188,-385 194,-379 200,-379"/>
<text text-anchor="middle" x="241.01" y="-419.9" font-family="Helvetica,sans-Serif" font-weight="bold" font-size="9.00">handlers</text>
</g>
<g id="clust11" class="cluster">
<title>cluster_client/src/init</title>
<path fill="#ffffff" stroke="black" stroke-width="2" d="M317.02,-110C317.02,-110 430.02,-110 430.02,-110 436.02,-110 442.02,-116 442.02,-122 442.02,-122 442.02,-182 442.02,-182 442.02,-188 436.02,-194 430.02,-194 430.02,-194 317.02,-194 317.02,-194 311.02,-194 305.02,-188 305.02,-182 305.02,-182 305.02,-122 305.02,-122 305.02,-116 311.02,-110 317.02,-110"/>
<text text-anchor="middle" x="373.52" y="-181.9" font-family="Helvetica,sans-Serif" font-weight="bold" font-size="9.00">init</text>
</g>
<!-- client/src/components/layout/footer.js -->
<g id="node1" class="node">
<title>client/src/components/layout/footer.js</title>
<g id="a_node1"><a xlink:href="../client/src/components/layout/footer.js" xlink:title="footer.js">
<path fill="#ffffcc" stroke="black" d="M261.81,-286.3C261.81,-286.3 220.21,-286.3 220.21,-286.3 217.11,-286.3 214.01,-283.2 214.01,-280.1 214.01,-280.1 214.01,-273.9 214.01,-273.9 214.01,-270.8 217.11,-267.7 220.21,-267.7 220.21,-267.7 261.81,-267.7 261.81,-267.7 264.91,-267.7 268.01,-270.8 268.01,-273.9 268.01,-273.9 268.01,-280.1 268.01,-280.1 268.01,-283.2 264.91,-286.3 261.81,-286.3"/>
<text text-anchor="middle" x="241.01" y="-274.3" font-family="Helvetica,sans-Serif" font-size="9.00">footer.js</text>
</a>
</g>
</g>
<!-- client/src/components/layout/navbar.js -->
<g id="node2" class="node">
<title>client/src/components/layout/navbar.js</title>
<g id="a_node2"><a xlink:href="../client/src/components/layout/navbar.js" xlink:title="navbar.js">
<path fill="#ffffcc" stroke="black" d="M261.81,-317.3C261.81,-317.3 220.21,-317.3 220.21,-317.3 217.11,-317.3 214.01,-314.2 214.01,-311.1 214.01,-311.1 214.01,-304.9 214.01,-304.9 214.01,-301.8 217.11,-298.7 220.21,-298.7 220.21,-298.7 261.81,-298.7 261.81,-298.7 264.91,-298.7 268.01,-301.8 268.01,-304.9 268.01,-304.9 268.01,-311.1 268.01,-311.1 268.01,-314.2 264.91,-317.3 261.81,-317.3"/>
<text text-anchor="middle" x="241.01" y="-305.3" font-family="Helvetica,sans-Serif" font-size="9.00">navbar.js</text>
</a>
</g>
</g>
<!-- client/src/components/layout/page.js -->
<g id="node3" class="node">
<title>client/src/components/layout/page.js</title>
<g id="a_node3"><a xlink:href="../client/src/components/layout/page.js" xlink:title="page.js">
<path fill="#ffffcc" stroke="black" d="M157.8,-286.3C157.8,-286.3 116.2,-286.3 116.2,-286.3 113.1,-286.3 110,-283.2 110,-280.1 110,-280.1 110,-273.9 110,-273.9 110,-270.8 113.1,-267.7 116.2,-267.7 116.2,-267.7 157.8,-267.7 157.8,-267.7 160.9,-267.7 164,-270.8 164,-273.9 164,-273.9 164,-280.1 164,-280.1 164,-283.2 160.9,-286.3 157.8,-286.3"/>
<text text-anchor="middle" x="137" y="-274.3" font-family="Helvetica,sans-Serif" font-size="9.00">page.js</text>
</a>
</g>
</g>
<!-- client/src/components/layout/page.js&#45;&gt;client/src/components/layout/footer.js -->
<g id="edge1" class="edge">
<title>client/src/components/layout/page.js&#45;&gt;client/src/components/layout/footer.js</title>
<path fill="none" stroke="#000000" stroke-width="2" stroke-opacity="0.200000" d="M164.01,-277C177.21,-277 193.39,-277 207.42,-277"/>
<polygon fill="#000000" fill-opacity="0.200000" stroke="#000000" stroke-width="2" stroke-opacity="0.200000" points="207.7,-279.1 213.7,-277 207.7,-274.9 207.7,-279.1"/>
</g>
<!-- client/src/components/layout/page.js&#45;&gt;client/src/components/layout/navbar.js -->
<g id="edge2" class="edge">
<title>client/src/components/layout/page.js&#45;&gt;client/src/components/layout/navbar.js</title>
<path fill="none" stroke="#000000" stroke-width="2" stroke-opacity="0.200000" d="M164.01,-284.9C177.33,-288.95 193.68,-293.92 207.8,-298.21"/>
<polygon fill="#000000" fill-opacity="0.200000" stroke="#000000" stroke-width="2" stroke-opacity="0.200000" points="207.35,-300.27 213.7,-300 208.57,-296.25 207.35,-300.27"/>
</g>
<!-- client/src/components/pages/home/index.js -->
<g id="node4" class="node">
<title>client/src/components/pages/home/index.js</title>
<g id="a_node4"><a xlink:href="../client/src/components/pages/home/index.js" xlink:title="index.js">
<path fill="#ffffcc" stroke="black" d="M157.8,-198.3C157.8,-198.3 116.2,-198.3 116.2,-198.3 113.1,-198.3 110,-195.2 110,-192.1 110,-192.1 110,-185.9 110,-185.9 110,-182.8 113.1,-179.7 116.2,-179.7 116.2,-179.7 157.8,-179.7 157.8,-179.7 160.9,-179.7 164,-182.8 164,-185.9 164,-185.9 164,-192.1 164,-192.1 164,-195.2 160.9,-198.3 157.8,-198.3"/>
<text text-anchor="middle" x="137" y="-186.3" font-family="Helvetica,sans-Serif" font-size="9.00">index.js</text>
</a>
</g>
</g>
<!-- client/src/components/shared/input&#45;greeting.js -->
<g id="node5" class="node">
<title>client/src/components/shared/input&#45;greeting.js</title>
<g id="a_node5"><a xlink:href="../client/src/components/shared/input-greeting.js" xlink:title="input&#45;greeting.js">
<path fill="#ffffcc" stroke="black" d="M274.82,-167.3C274.82,-167.3 207.2,-167.3 207.2,-167.3 204.1,-167.3 201,-164.2 201,-161.1 201,-161.1 201,-154.9 201,-154.9 201,-151.8 204.1,-148.7 207.2,-148.7 207.2,-148.7 274.82,-148.7 274.82,-148.7 277.92,-148.7 281.02,-151.8 281.02,-154.9 281.02,-154.9 281.02,-161.1 281.02,-161.1 281.02,-164.2 277.92,-167.3 274.82,-167.3"/>
<text text-anchor="middle" x="241.01" y="-155.3" font-family="Helvetica,sans-Serif" font-size="9.00">input&#45;greeting.js</text>
</a>
</g>
</g>
<!-- client/src/components/pages/home/index.js&#45;&gt;client/src/components/shared/input&#45;greeting.js -->
<g id="edge3" class="edge">
<title>client/src/components/pages/home/index.js&#45;&gt;client/src/components/shared/input&#45;greeting.js</title>
<path fill="none" stroke="#000000" stroke-width="2" stroke-opacity="0.200000" d="M164.01,-181.1C175.98,-177.46 190.41,-173.07 203.45,-169.11"/>
<polygon fill="#000000" fill-opacity="0.200000" stroke="#000000" stroke-width="2" stroke-opacity="0.200000" points="204.21,-171.07 209.34,-167.32 202.99,-167.06 204.21,-171.07"/>
</g>
<!-- client/src/handlers/change&#45;greeting.js -->
<g id="node8" class="node">
<title>client/src/handlers/change&#45;greeting.js</title>
<g id="a_node8"><a xlink:href="../client/src/handlers/change-greeting.js" xlink:title="change&#45;greeting.js">
<path fill="#ffffcc" stroke="black" d="M279.83,-405.3C279.83,-405.3 202.19,-405.3 202.19,-405.3 199.09,-405.3 195.99,-402.2 195.99,-399.1 195.99,-399.1 195.99,-392.9 195.99,-392.9 195.99,-389.8 199.09,-386.7 202.19,-386.7 202.19,-386.7 279.83,-386.7 279.83,-386.7 282.93,-386.7 286.03,-389.8 286.03,-392.9 286.03,-392.9 286.03,-399.1 286.03,-399.1 286.03,-402.2 282.93,-405.3 279.83,-405.3"/>
<text text-anchor="middle" x="241.01" y="-393.3" font-family="Helvetica,sans-Serif" font-size="9.00">change&#45;greeting.js</text>
</a>
</g>
</g>
<!-- client/src/components/shared/input&#45;greeting.js&#45;&gt;client/src/handlers/change&#45;greeting.js -->
<g id="edge6" class="edge">
<title>client/src/components/shared/input&#45;greeting.js&#45;&gt;client/src/handlers/change&#45;greeting.js</title>
<path fill="none" stroke="#000000" stroke-width="2" stroke-opacity="0.200000" d="M233.74,-167.44C220.69,-185.05 193.75,-224.6 184,-263 179.73,-279.8 178.98,-324.41 184,-341 189.45,-359.01 205.36,-373.48 219,-383.05"/>
<polygon fill="#000000" fill-opacity="0.200000" stroke="#000000" stroke-width="2" stroke-opacity="0.200000" points="218.12,-384.99 224.27,-386.6 220.47,-381.51 218.12,-384.99"/>
</g>
<!-- client/src/init/state.js -->
<g id="node9" class="node">
<title>client/src/init/state.js</title>
<g id="a_node9"><a xlink:href="../client/src/init/state.js" xlink:title="state.js">
<path fill="#ffffcc" stroke="black" d="M360.81,-167.3C360.81,-167.3 319.22,-167.3 319.22,-167.3 316.12,-167.3 313.02,-164.2 313.02,-161.1 313.02,-161.1 313.02,-154.9 313.02,-154.9 313.02,-151.8 316.12,-148.7 319.22,-148.7 319.22,-148.7 360.81,-148.7 360.81,-148.7 363.92,-148.7 367.02,-151.8 367.02,-154.9 367.02,-154.9 367.02,-161.1 367.02,-161.1 367.02,-164.2 363.92,-167.3 360.81,-167.3"/>
<text text-anchor="middle" x="340.02" y="-155.3" font-family="Helvetica,sans-Serif" font-size="9.00">state.js</text>
</a>
</g>
</g>
<!-- client/src/components/shared/input&#45;greeting.js&#45;&gt;client/src/init/state.js -->
<g id="edge7" class="edge">
<title>client/src/components/shared/input&#45;greeting.js&#45;&gt;client/src/init/state.js</title>
<path fill="none" stroke="#000000" stroke-width="2" stroke-opacity="0.200000" d="M281.19,-158C289.65,-158 298.51,-158 306.68,-158"/>
<polygon fill="#000000" fill-opacity="0.200000" stroke="#000000" stroke-width="2" stroke-opacity="0.200000" points="306.77,-160.1 312.77,-158 306.77,-155.9 306.77,-160.1"/>
</g>
<!-- client/src/components/pages/questions/index.js -->
<g id="node6" class="node">
<title>client/src/components/pages/questions/index.js</title>
<g id="a_node6"><a xlink:href="../client/src/components/pages/questions/index.js" xlink:title="index.js">
<path fill="#ffffcc" stroke="black" d="M157.8,-137.3C157.8,-137.3 116.2,-137.3 116.2,-137.3 113.1,-137.3 110,-134.2 110,-131.1 110,-131.1 110,-124.9 110,-124.9 110,-121.8 113.1,-118.7 116.2,-118.7 116.2,-118.7 157.8,-118.7 157.8,-118.7 160.9,-118.7 164,-121.8 164,-124.9 164,-124.9 164,-131.1 164,-131.1 164,-134.2 160.9,-137.3 157.8,-137.3"/>
<text text-anchor="middle" x="137" y="-125.3" font-family="Helvetica,sans-Serif" font-size="9.00">index.js</text>
</a>
</g>
</g>
<!-- client/src/components/pages/questions/index.js&#45;&gt;client/src/components/shared/input&#45;greeting.js -->
<g id="edge4" class="edge">
<title>client/src/components/pages/questions/index.js&#45;&gt;client/src/components/shared/input&#45;greeting.js</title>
<path fill="none" stroke="#000000" stroke-width="2" stroke-opacity="0.200000" d="M164.08,-137.32C171.74,-139.94 180.17,-142.7 188,-145 190.41,-145.71 192.89,-146.41 195.4,-147.11"/>
<polygon fill="#000000" fill-opacity="0.200000" stroke="#000000" stroke-width="2" stroke-opacity="0.200000" points="194.95,-149.16 201.29,-148.7 196.04,-145.11 194.95,-149.16"/>
</g>
<!-- client/src/components/pages/quiz/index.js -->
<g id="node7" class="node">
<title>client/src/components/pages/quiz/index.js</title>
<g id="a_node7"><a xlink:href="../client/src/components/pages/quiz/index.js" xlink:title="index.js">
<path fill="#ffffcc" stroke="black" d="M157.8,-76.3C157.8,-76.3 116.2,-76.3 116.2,-76.3 113.1,-76.3 110,-73.2 110,-70.1 110,-70.1 110,-63.9 110,-63.9 110,-60.8 113.1,-57.7 116.2,-57.7 116.2,-57.7 157.8,-57.7 157.8,-57.7 160.9,-57.7 164,-60.8 164,-63.9 164,-63.9 164,-70.1 164,-70.1 164,-73.2 160.9,-76.3 157.8,-76.3"/>
<text text-anchor="middle" x="137" y="-64.3" font-family="Helvetica,sans-Serif" font-size="9.00">index.js</text>
</a>
</g>
</g>
<!-- client/src/components/pages/quiz/index.js&#45;&gt;client/src/components/shared/input&#45;greeting.js -->
<g id="edge5" class="edge">
<title>client/src/components/pages/quiz/index.js&#45;&gt;client/src/components/shared/input&#45;greeting.js</title>
<path fill="none" stroke="#000000" stroke-width="2" stroke-opacity="0.200000" d="M151.01,-76.3C160.5,-83.79 172.9,-95.16 180,-108 188.14,-122.72 176.3,-132.91 188,-145 190.11,-147.18 192.54,-149.02 195.15,-150.57"/>
<polygon fill="#000000" fill-opacity="0.200000" stroke="#000000" stroke-width="2" stroke-opacity="0.200000" points="194.45,-152.56 200.76,-153.34 196.31,-148.8 194.45,-152.56"/>
</g>
<!-- client/src/handlers/change&#45;greeting.js&#45;&gt;client/src/init/state.js -->
<g id="edge8" class="edge">
<title>client/src/handlers/change&#45;greeting.js&#45;&gt;client/src/init/state.js</title>
<path fill="none" stroke="#000000" stroke-width="2" stroke-opacity="0.200000" d="M257,-386.61C269.63,-377.9 287.17,-363.76 297.02,-347 330.84,-289.39 337.46,-207.31 338.73,-173.49"/>
<polygon fill="#000000" fill-opacity="0.200000" stroke="#000000" stroke-width="2" stroke-opacity="0.200000" points="340.83,-173.45 338.92,-167.38 336.63,-173.32 340.83,-173.45"/>
</g>
<!-- client/src/init/index.js -->
<g id="node10" class="node">
<title>client/src/init/index.js</title>
<g id="a_node10"><a xlink:href="../client/src/init/index.js" xlink:title="index.js">
<path fill="#ffffcc" stroke="black" d="M360.81,-136.3C360.81,-136.3 319.22,-136.3 319.22,-136.3 316.12,-136.3 313.02,-133.2 313.02,-130.1 313.02,-130.1 313.02,-123.9 313.02,-123.9 313.02,-120.8 316.12,-117.7 319.22,-117.7 319.22,-117.7 360.81,-117.7 360.81,-117.7 363.92,-117.7 367.02,-120.8 367.02,-123.9 367.02,-123.9 367.02,-130.1 367.02,-130.1 367.02,-133.2 363.92,-136.3 360.81,-136.3"/>
<text text-anchor="middle" x="340.02" y="-124.3" font-family="Helvetica,sans-Serif" font-size="9.00">index.js</text>
</a>
</g>
</g>
<!-- client/src/init/router.js -->
<g id="node11" class="node">
<title>client/src/init/router.js</title>
<g id="a_node11"><a xlink:href="../client/src/init/router.js" xlink:title="router.js">
<path fill="#ffffcc" stroke="black" d="M427.81,-136.3C427.81,-136.3 386.22,-136.3 386.22,-136.3 383.12,-136.3 380.02,-133.2 380.02,-130.1 380.02,-130.1 380.02,-123.9 380.02,-123.9 380.02,-120.8 383.12,-117.7 386.22,-117.7 386.22,-117.7 427.81,-117.7 427.81,-117.7 430.92,-117.7 434.02,-120.8 434.02,-123.9 434.02,-123.9 434.02,-130.1 434.02,-130.1 434.02,-133.2 430.92,-136.3 427.81,-136.3"/>
<text text-anchor="middle" x="407.02" y="-124.3" font-family="Helvetica,sans-Serif" font-size="9.00">router.js</text>
</a>
</g>
</g>
<!-- client/src/init/index.js&#45;&gt;client/src/init/router.js -->
<g id="edge9" class="edge">
<title>client/src/init/index.js&#45;&gt;client/src/init/router.js</title>
<path fill="none" stroke="#000000" stroke-width="2" stroke-opacity="0.200000" d="M367.08,-127C369.33,-127 371.63,-127 373.92,-127"/>
<polygon fill="#000000" fill-opacity="0.200000" stroke="#000000" stroke-width="2" stroke-opacity="0.200000" points="373.95,-129.1 379.95,-127 373.95,-124.9 373.95,-129.1"/>
</g>
<!-- client/src/routes.js -->
<g id="node12" class="node">
<title>client/src/routes.js</title>
<g id="a_node12"><a xlink:href="../client/src/routes.js" xlink:title="routes.js">
<path fill="#ffffcc" stroke="black" d="M71.8,-137.3C71.8,-137.3 30.2,-137.3 30.2,-137.3 27.1,-137.3 24,-134.2 24,-131.1 24,-131.1 24,-124.9 24,-124.9 24,-121.8 27.1,-118.7 30.2,-118.7 30.2,-118.7 71.8,-118.7 71.8,-118.7 74.9,-118.7 78,-121.8 78,-124.9 78,-124.9 78,-131.1 78,-131.1 78,-134.2 74.9,-137.3 71.8,-137.3"/>
<text text-anchor="middle" x="51" y="-125.3" font-family="Helvetica,sans-Serif" font-size="9.00">routes.js</text>
</a>
</g>
</g>
<!-- client/src/init/router.js&#45;&gt;client/src/routes.js -->
<g id="edge10" class="edge">
<title>client/src/init/router.js&#45;&gt;client/src/routes.js</title>
<path fill="none" stroke="#000000" stroke-width="2" stroke-opacity="0.200000" d="M386.68,-117.56C348.36,-99.45 259.62,-60.44 180,-47 138.81,-40.05 120.79,-23.87 86,-47 64.07,-61.58 56.26,-93.33 53.49,-112.47"/>
<polygon fill="#000000" fill-opacity="0.200000" stroke="#000000" stroke-width="2" stroke-opacity="0.200000" points="51.38,-112.44 52.71,-118.66 55.55,-112.97 51.38,-112.44"/>
</g>
<!-- client/src/routes.js&#45;&gt;client/src/components/layout/page.js -->
<g id="edge11" class="edge">
<title>client/src/routes.js&#45;&gt;client/src/components/layout/page.js</title>
<path fill="none" stroke="#000000" stroke-width="2" stroke-opacity="0.200000" d="M53.68,-137.46C57.3,-155.99 67.05,-197.89 86,-228 94.64,-241.74 107.88,-254.48 118.56,-263.52"/>
<polygon fill="#000000" fill-opacity="0.200000" stroke="#000000" stroke-width="2" stroke-opacity="0.200000" points="117.3,-265.2 123.26,-267.41 119.97,-261.97 117.3,-265.2"/>
</g>
<!-- client/src/routes.js&#45;&gt;client/src/components/pages/home/index.js -->
<g id="edge12" class="edge">
<title>client/src/routes.js&#45;&gt;client/src/components/pages/home/index.js</title>
<path fill="none" stroke="#000000" stroke-width="2" stroke-opacity="0.200000" d="M58.34,-137.4C64.56,-146.03 74.71,-158.7 86,-167 91.5,-171.04 97.86,-174.55 104.16,-177.51"/>
<polygon fill="#000000" fill-opacity="0.200000" stroke="#000000" stroke-width="2" stroke-opacity="0.200000" points="103.57,-179.54 109.9,-180.07 105.27,-175.71 103.57,-179.54"/>
</g>
<!-- client/src/routes.js&#45;&gt;client/src/components/pages/questions/index.js -->
<g id="edge13" class="edge">
<title>client/src/routes.js&#45;&gt;client/src/components/pages/questions/index.js</title>
<path fill="none" stroke="#000000" stroke-width="2" stroke-opacity="0.200000" d="M78.12,-128C86.18,-128 95.15,-128 103.58,-128"/>
<polygon fill="#000000" fill-opacity="0.200000" stroke="#000000" stroke-width="2" stroke-opacity="0.200000" points="103.9,-130.1 109.9,-128 103.9,-125.9 103.9,-130.1"/>
</g>
<!-- client/src/routes.js&#45;&gt;client/src/components/pages/quiz/index.js -->
<g id="edge14" class="edge">
<title>client/src/routes.js&#45;&gt;client/src/components/pages/quiz/index.js</title>
<path fill="none" stroke="#000000" stroke-width="2" stroke-opacity="0.200000" d="M65.12,-118.47C79.3,-108.17 101.99,-91.7 117.87,-80.17"/>
<polygon fill="#000000" fill-opacity="0.200000" stroke="#000000" stroke-width="2" stroke-opacity="0.200000" points="119.35,-81.69 122.97,-76.46 116.88,-78.29 119.35,-81.69"/>
</g>
</g>
</svg>
