<?xml version="1.0" encoding="UTF-8" standalone="no"?>
<!DOCTYPE svg PUBLIC "-//W3C//DTD SVG 1.1//EN"
 "http://www.w3.org/Graphics/SVG/1.1/DTD/svg11.dtd">
<!-- Generated by graphviz version 2.44.0 (20200408.0750)
 -->
<!-- Title: dependency&#45;cruiser output Pages: 1 -->
<svg width="279pt" height="234pt"
 viewBox="0.00 0.00 279.26 234.00" xmlns="http://www.w3.org/2000/svg" xmlns:xlink="http://www.w3.org/1999/xlink">
<g id="graph0" class="graph" transform="scale(1 1) rotate(0) translate(4 230)">
<title>dependency&#45;cruiser output</title>
<polygon fill="white" stroke="transparent" points="-4,4 -4,-230 275.26,-230 275.26,4 -4,4"/>
<g id="clust1" class="cluster">
<title>cluster_src</title>
<path fill="#ffffff" stroke="black" stroke-width="2" d="M20,-8C20,-8 251.26,-8 251.26,-8 257.26,-8 263.26,-14 263.26,-20 263.26,-20 263.26,-206 263.26,-206 263.26,-212 257.26,-218 251.26,-218 251.26,-218 20,-218 20,-218 14,-218 8,-212 8,-206 8,-206 8,-20 8,-20 8,-14 14,-8 20,-8"/>
<text text-anchor="middle" x="135.63" y="-205.9" font-family="Helvetica,sans-Serif" font-weight="bold" font-size="9.00">src</text>
</g>
<g id="clust2" class="cluster">
<title>cluster_src/components</title>
<path fill="#ffffff" stroke="black" stroke-width="2" d="M28,-77C28,-77 74,-77 74,-77 80,-77 86,-83 86,-89 86,-89 86,-118 86,-118 86,-124 80,-130 74,-130 74,-130 28,-130 28,-130 22,-130 16,-124 16,-118 16,-118 16,-89 16,-89 16,-83 22,-77 28,-77"/>
<text text-anchor="middle" x="51" y="-117.9" font-family="Helvetica,sans-Serif" font-weight="bold" font-size="9.00">components</text>
</g>
<g id="clust3" class="cluster">
<title>cluster_src/handlers</title>
<path fill="#ffffff" stroke="black" stroke-width="2" d="M108.25,-77C108.25,-77 172.26,-77 172.26,-77 178.26,-77 184.26,-83 184.26,-89 184.26,-89 184.26,-118 184.26,-118 184.26,-124 178.26,-130 172.26,-130 172.26,-130 108.25,-130 108.25,-130 102.25,-130 96.25,-124 96.25,-118 96.25,-118 96.25,-89 96.25,-89 96.25,-83 102.25,-77 108.25,-77"/>
<text text-anchor="middle" x="140.25" y="-117.9" font-family="Helvetica,sans-Serif" font-weight="bold" font-size="9.00">handlers</text>
</g>
<g id="clust4" class="cluster">
<title>cluster_src/init</title>
<path fill="#ffffff" stroke="black" stroke-width="2" d="M28,-138C28,-138 163.25,-138 163.25,-138 169.25,-138 175.25,-144 175.25,-150 175.25,-150 175.25,-179 175.25,-179 175.25,-185 169.25,-191 163.25,-191 163.25,-191 28,-191 28,-191 22,-191 16,-185 16,-179 16,-179 16,-150 16,-150 16,-144 22,-138 28,-138"/>
<text text-anchor="middle" x="95.63" y="-178.9" font-family="Helvetica,sans-Serif" font-weight="bold" font-size="9.00">init</text>
</g>
<g id="clust5" class="cluster">
<title>cluster_src/logic</title>
<path fill="#ffffff" stroke="black" stroke-width="2" d="M106,-16C106,-16 243.26,-16 243.26,-16 249.26,-16 255.26,-22 255.26,-28 255.26,-28 255.26,-57 255.26,-57 255.26,-63 249.26,-69 243.26,-69 243.26,-69 106,-69 106,-69 100,-69 94,-63 94,-57 94,-57 94,-28 94,-28 94,-22 100,-16 106,-16"/>
<text text-anchor="middle" x="174.63" y="-56.9" font-family="Helvetica,sans-Serif" font-weight="bold" font-size="9.00">logic</text>
</g>
<!-- src/components/app.js -->
<g id="node1" class="node">
<title>src/components/app.js</title>
<g id="a_node1"><a xlink:href="../src/components/app.js" xlink:title="app.js">
<path fill="#ffffcc" stroke="black" d="M71.8,-103.3C71.8,-103.3 30.2,-103.3 30.2,-103.3 27.1,-103.3 24,-100.2 24,-97.1 24,-97.1 24,-90.9 24,-90.9 24,-87.8 27.1,-84.7 30.2,-84.7 30.2,-84.7 71.8,-84.7 71.8,-84.7 74.9,-84.7 78,-87.8 78,-90.9 78,-90.9 78,-97.1 78,-97.1 78,-100.2 74.9,-103.3 71.8,-103.3"/>
<text text-anchor="middle" x="51" y="-91.3" font-family="Helvetica,sans-Serif" font-size="9.00">app.js</text>
</a>
</g>
</g>
<!-- src/handlers/change&#45;text.js -->
<g id="node2" class="node">
<title>src/handlers/change&#45;text.js</title>
<g id="a_node2"><a xlink:href="../src/handlers/change-text.js" xlink:title="change&#45;text.js">
<path fill="#ffffcc" stroke="black" d="M170.07,-103.3C170.07,-103.3 110.44,-103.3 110.44,-103.3 107.34,-103.3 104.24,-100.2 104.24,-97.1 104.24,-97.1 104.24,-90.9 104.24,-90.9 104.24,-87.8 107.34,-84.7 110.44,-84.7 110.44,-84.7 170.07,-84.7 170.07,-84.7 173.17,-84.7 176.27,-87.8 176.27,-90.9 176.27,-90.9 176.27,-97.1 176.27,-97.1 176.27,-100.2 173.17,-103.3 170.07,-103.3"/>
<text text-anchor="middle" x="140.25" y="-91.3" font-family="Helvetica,sans-Serif" font-size="9.00">change&#45;text.js</text>
</a>
</g>
</g>
<!-- src/components/app.js&#45;&gt;src/handlers/change&#45;text.js -->
<g id="edge1" class="edge">
<title>src/components/app.js&#45;&gt;src/handlers/change&#45;text.js</title>
<path fill="none" stroke="#000000" stroke-width="2" stroke-opacity="0.200000" d="M78.18,-94C84.4,-94 91.2,-94 97.92,-94"/>
<polygon fill="#000000" fill-opacity="0.200000" stroke="#000000" stroke-width="2" stroke-opacity="0.200000" points="98.05,-96.1 104.05,-94 98.05,-91.9 98.05,-96.1"/>
</g>
<!-- src/init/state.js -->
<g id="node3" class="node">
<title>src/init/state.js</title>
<g id="a_node3"><a xlink:href="../src/init/state.js" xlink:title="state.js">
<path fill="#ffffcc" stroke="black" d="M161.05,-164.3C161.05,-164.3 119.45,-164.3 119.45,-164.3 116.35,-164.3 113.25,-161.2 113.25,-158.1 113.25,-158.1 113.25,-151.9 113.25,-151.9 113.25,-148.8 116.35,-145.7 119.45,-145.7 119.45,-145.7 161.05,-145.7 161.05,-145.7 164.15,-145.7 167.25,-148.8 167.25,-151.9 167.25,-151.9 167.25,-158.1 167.25,-158.1 167.25,-161.2 164.15,-164.3 161.05,-164.3"/>
<text text-anchor="middle" x="140.25" y="-152.3" font-family="Helvetica,sans-Serif" font-size="9.00">state.js</text>
</a>
</g>
</g>
<!-- src/components/app.js&#45;&gt;src/init/state.js -->
<g id="edge2" class="edge">
<title>src/components/app.js&#45;&gt;src/init/state.js</title>
<path fill="none" stroke="#000000" stroke-width="2" stroke-opacity="0.200000" d="M60.67,-103.52C68.73,-111.99 81.36,-124.34 94,-133 99.19,-136.55 105.04,-139.85 110.77,-142.75"/>
<polygon fill="#000000" fill-opacity="0.200000" stroke="#000000" stroke-width="2" stroke-opacity="0.200000" points="110.11,-144.77 116.43,-145.51 111.96,-140.99 110.11,-144.77"/>
</g>
<!-- src/handlers/change&#45;text.js&#45;&gt;src/init/state.js -->
<g id="edge3" class="edge">
<title>src/handlers/change&#45;text.js&#45;&gt;src/init/state.js</title>
<path fill="none" stroke="#000000" stroke-width="2" stroke-opacity="0.200000" d="M140.25,-103.53C140.25,-115.4 140.25,-127.27 140.25,-139.14"/>
<polygon fill="#000000" fill-opacity="0.200000" stroke="#000000" stroke-width="2" stroke-opacity="0.200000" points="138.15,-139.35 140.25,-145.35 142.35,-139.35 138.15,-139.35"/>
</g>
<!-- src/logic/reverse.js -->
<g id="node5" class="node">
<title>src/logic/reverse.js</title>
<g id="a_node5"><a xlink:href="../src/logic/reverse.js" xlink:title="reverse.js">
<path fill="#ffffcc" stroke="black" d="M241.06,-42.3C241.06,-42.3 198.46,-42.3 198.46,-42.3 195.36,-42.3 192.26,-39.2 192.26,-36.1 192.26,-36.1 192.26,-29.9 192.26,-29.9 192.26,-26.8 195.36,-23.7 198.46,-23.7 198.46,-23.7 241.06,-23.7 241.06,-23.7 244.16,-23.7 247.26,-26.8 247.26,-29.9 247.26,-29.9 247.26,-36.1 247.26,-36.1 247.26,-39.2 244.16,-42.3 241.06,-42.3"/>
<text text-anchor="middle" x="219.76" y="-30.3" font-family="Helvetica,sans-Serif" font-size="9.00">reverse.js</text>
</a>
</g>
</g>
<!-- src/handlers/change&#45;text.js&#45;&gt;src/logic/reverse.js -->
<g id="edge4" class="edge">
<title>src/handlers/change&#45;text.js&#45;&gt;src/logic/reverse.js</title>
<path fill="none" stroke="#000000" stroke-width="2" stroke-opacity="0.200000" d="M167.72,-84.63C173.84,-81.42 179.84,-77.27 184.26,-72 191,-63.97 186.16,-57.23 192.38,-47.23"/>
<polygon fill="#000000" fill-opacity="0.200000" stroke="#000000" stroke-width="2" stroke-opacity="0.200000" points="194.11,-48.42 196.09,-42.38 190.77,-45.87 194.11,-48.42"/>
</g>
<!-- src/data.js -->
<g id="node4" class="node">
<title>src/data.js</title>
<g id="a_node4"><a xlink:href="../src/data.js" xlink:title="data.js">
<path fill="#ffffcc" stroke="black" d="M240.56,-164.3C240.56,-164.3 198.96,-164.3 198.96,-164.3 195.86,-164.3 192.76,-161.2 192.76,-158.1 192.76,-158.1 192.76,-151.9 192.76,-151.9 192.76,-148.8 195.86,-145.7 198.96,-145.7 198.96,-145.7 240.56,-145.7 240.56,-145.7 243.66,-145.7 246.76,-148.8 246.76,-151.9 246.76,-151.9 246.76,-158.1 246.76,-158.1 246.76,-161.2 243.66,-164.3 240.56,-164.3"/>
<text text-anchor="middle" x="219.76" y="-152.3" font-family="Helvetica,sans-Serif" font-size="9.00">data.js</text>
</a>
</g>
</g>
<!-- src/init/state.js&#45;&gt;src/data.js -->
<g id="edge7" class="edge">
<title>src/init/state.js&#45;&gt;src/data.js</title>
<path fill="none" stroke="#000000" stroke-width="2" stroke-opacity="0.200000" d="M167.49,-155C173.55,-155 180.07,-155 186.36,-155"/>
<polygon fill="#000000" fill-opacity="0.200000" stroke="#000000" stroke-width="2" stroke-opacity="0.200000" points="186.55,-157.1 192.55,-155 186.55,-152.9 186.55,-157.1"/>
</g>
<!-- src/init/index.js -->
<g id="node6" class="node">
<title>src/init/index.js</title>
<g id="a_node6"><a xlink:href="../src/init/index.js" xlink:title="index.js">
<path fill="#ffffcc" stroke="black" d="M71.8,-164.3C71.8,-164.3 30.2,-164.3 30.2,-164.3 27.1,-164.3 24,-161.2 24,-158.1 24,-158.1 24,-151.9 24,-151.9 24,-148.8 27.1,-145.7 30.2,-145.7 30.2,-145.7 71.8,-145.7 71.8,-145.7 74.9,-145.7 78,-148.8 78,-151.9 78,-151.9 78,-158.1 78,-158.1 78,-161.2 74.9,-164.3 71.8,-164.3"/>
<text text-anchor="middle" x="51" y="-152.3" font-family="Helvetica,sans-Serif" font-size="9.00">index.js</text>
</a>
</g>
</g>
<!-- src/init/index.js&#45;&gt;src/components/app.js -->
<g id="edge5" class="edge">
<title>src/init/index.js&#45;&gt;src/components/app.js</title>
<path fill="none" stroke="#000000" stroke-width="2" stroke-opacity="0.200000" d="M51,-145.35C51,-133.48 51,-121.61 51,-109.74"/>
<polygon fill="#000000" fill-opacity="0.200000" stroke="#000000" stroke-width="2" stroke-opacity="0.200000" points="53.1,-109.53 51,-103.53 48.9,-109.53 53.1,-109.53"/>
</g>
<!-- src/init/index.js&#45;&gt;src/init/state.js -->
<g id="edge6" class="edge">
<title>src/init/index.js&#45;&gt;src/init/state.js</title>
<path fill="none" stroke="#000000" stroke-width="2" stroke-opacity="0.200000" d="M78.18,-155C87.24,-155 97.5,-155 106.99,-155"/>
<polygon fill="#000000" fill-opacity="0.200000" stroke="#000000" stroke-width="2" stroke-opacity="0.200000" points="107.09,-157.1 113.09,-155 107.09,-152.9 107.09,-157.1"/>
</g>
<!-- src/logic/reverse.spec.js -->
<g id="node7" class="node">
<title>src/logic/reverse.spec.js</title>
<g id="a_node7"><a xlink:href="../src/logic/reverse.spec.js" xlink:title="reverse.spec.js">
<path fill="#ffffcc" stroke="black" d="M172.06,-42.3C172.06,-42.3 108.45,-42.3 108.45,-42.3 105.35,-42.3 102.24,-39.2 102.24,-36.1 102.24,-36.1 102.24,-29.9 102.24,-29.9 102.24,-26.8 105.35,-23.7 108.45,-23.7 108.45,-23.7 172.06,-23.7 172.06,-23.7 175.16,-23.7 178.26,-26.8 178.26,-29.9 178.26,-29.9 178.26,-36.1 178.26,-36.1 178.26,-39.2 175.16,-42.3 172.06,-42.3"/>
<text text-anchor="middle" x="140.25" y="-30.3" font-family="Helvetica,sans-Serif" font-size="9.00">reverse.spec.js</text>
</a>
</g>
</g>
<!-- src/logic/reverse.spec.js&#45;&gt;src/logic/reverse.js -->
<g id="edge8" class="edge">
<title>src/logic/reverse.spec.js&#45;&gt;src/logic/reverse.js</title>
<path fill="none" stroke="#000000" stroke-width="2" stroke-opacity="0.200000" d="M178.65,-33C181.03,-33 183.42,-33 185.79,-33"/>
<polygon fill="#000000" fill-opacity="0.200000" stroke="#000000" stroke-width="2" stroke-opacity="0.200000" points="185.95,-35.1 191.95,-33 185.95,-30.9 185.95,-35.1"/>
</g>
</g>
</svg>
